G04 #@! TF.FileFunction,Legend,Bot*
%FSLAX46Y46*%
G04 Gerber Fmt 4.6, Leading zero omitted, Abs format (unit mm)*
G04 Created by KiCad (PCBNEW 4.0.5-e0-6337~49~ubuntu16.04.1) date Sun Jan 22 15:59:59 2017*
%MOMM*%
%LPD*%
G01*
G04 APERTURE LIST*
%ADD10C,0.100000*%
%ADD11C,0.400000*%
%ADD12C,0.300000*%
%ADD13C,0.500000*%
%ADD14C,0.200000*%
%ADD15C,1.000000*%
%ADD16C,0.250000*%
%ADD17C,0.150000*%
%ADD18C,0.600000*%
%ADD19C,0.120000*%
%ADD20R,1.270000X3.600000*%
%ADD21R,3.600000X1.270000*%
%ADD22O,2.500000X3.000000*%
%ADD23C,2.000000*%
%ADD24R,1.750000X1.750000*%
%ADD25C,1.750000*%
%ADD26O,2.000000X1.500000*%
%ADD27C,1.524000*%
%ADD28R,1.700000X1.700000*%
%ADD29O,1.700000X1.700000*%
G04 APERTURE END LIST*
D10*
D11*
X115635714Y-53230953D02*
X116769048Y-53554763D01*
X115959524Y-53878572D01*
X116769048Y-54202382D01*
X115635714Y-54526191D01*
X115635714Y-55011905D02*
X116769048Y-55335715D01*
X115959524Y-55659524D01*
X116769048Y-55983334D01*
X115635714Y-56307143D01*
X115635714Y-56792857D02*
X116769048Y-57116667D01*
X115959524Y-57440476D01*
X116769048Y-57764286D01*
X115635714Y-58088095D01*
X116607143Y-58735714D02*
X116688095Y-58816666D01*
X116769048Y-58735714D01*
X116688095Y-58654762D01*
X116607143Y-58735714D01*
X116769048Y-58735714D01*
X116769048Y-59788095D02*
X116688095Y-59626190D01*
X116526190Y-59545238D01*
X115069048Y-59545238D01*
X116769048Y-61164285D02*
X115878571Y-61164285D01*
X115716667Y-61083333D01*
X115635714Y-60921428D01*
X115635714Y-60597619D01*
X115716667Y-60435714D01*
X116688095Y-61164285D02*
X116769048Y-61002381D01*
X116769048Y-60597619D01*
X116688095Y-60435714D01*
X116526190Y-60354762D01*
X116364286Y-60354762D01*
X116202381Y-60435714D01*
X116121429Y-60597619D01*
X116121429Y-61002381D01*
X116040476Y-61164285D01*
X116769048Y-62216666D02*
X116688095Y-62054761D01*
X116526190Y-61973809D01*
X115069048Y-61973809D01*
X116688095Y-63511904D02*
X116769048Y-63349999D01*
X116769048Y-63026190D01*
X116688095Y-62864285D01*
X116526190Y-62783333D01*
X115878571Y-62783333D01*
X115716667Y-62864285D01*
X115635714Y-63026190D01*
X115635714Y-63349999D01*
X115716667Y-63511904D01*
X115878571Y-63592856D01*
X116040476Y-63592856D01*
X116202381Y-62783333D01*
X116769048Y-64321428D02*
X115069048Y-64321428D01*
X115716667Y-64321428D02*
X115635714Y-64483333D01*
X115635714Y-64807142D01*
X115716667Y-64969047D01*
X115797619Y-65049999D01*
X115959524Y-65130952D01*
X116445238Y-65130952D01*
X116607143Y-65049999D01*
X116688095Y-64969047D01*
X116769048Y-64807142D01*
X116769048Y-64483333D01*
X116688095Y-64321428D01*
X116769048Y-66102380D02*
X116688095Y-65940475D01*
X116607143Y-65859523D01*
X116445238Y-65778571D01*
X115959524Y-65778571D01*
X115797619Y-65859523D01*
X115716667Y-65940475D01*
X115635714Y-66102380D01*
X115635714Y-66345237D01*
X115716667Y-66507142D01*
X115797619Y-66588094D01*
X115959524Y-66669047D01*
X116445238Y-66669047D01*
X116607143Y-66588094D01*
X116688095Y-66507142D01*
X116769048Y-66345237D01*
X116769048Y-66102380D01*
X115635714Y-67154761D02*
X115635714Y-67802380D01*
X115069048Y-67397618D02*
X116526190Y-67397618D01*
X116688095Y-67478570D01*
X116769048Y-67640475D01*
X116769048Y-67802380D01*
X116688095Y-68288095D02*
X116769048Y-68449999D01*
X116769048Y-68773809D01*
X116688095Y-68935714D01*
X116526190Y-69016666D01*
X116445238Y-69016666D01*
X116283333Y-68935714D01*
X116202381Y-68773809D01*
X116202381Y-68530952D01*
X116121429Y-68369047D01*
X115959524Y-68288095D01*
X115878571Y-68288095D01*
X115716667Y-68369047D01*
X115635714Y-68530952D01*
X115635714Y-68773809D01*
X115716667Y-68935714D01*
X116607143Y-69745237D02*
X116688095Y-69826189D01*
X116769048Y-69745237D01*
X116688095Y-69664285D01*
X116607143Y-69745237D01*
X116769048Y-69745237D01*
X116688095Y-71283332D02*
X116769048Y-71121428D01*
X116769048Y-70797618D01*
X116688095Y-70635713D01*
X116607143Y-70554761D01*
X116445238Y-70473809D01*
X115959524Y-70473809D01*
X115797619Y-70554761D01*
X115716667Y-70635713D01*
X115635714Y-70797618D01*
X115635714Y-71121428D01*
X115716667Y-71283332D01*
X116769048Y-72254761D02*
X116688095Y-72092856D01*
X116607143Y-72011904D01*
X116445238Y-71930952D01*
X115959524Y-71930952D01*
X115797619Y-72011904D01*
X115716667Y-72092856D01*
X115635714Y-72254761D01*
X115635714Y-72497618D01*
X115716667Y-72659523D01*
X115797619Y-72740475D01*
X115959524Y-72821428D01*
X116445238Y-72821428D01*
X116607143Y-72740475D01*
X116688095Y-72659523D01*
X116769048Y-72497618D01*
X116769048Y-72254761D01*
X116769048Y-73549999D02*
X115635714Y-73549999D01*
X115797619Y-73549999D02*
X115716667Y-73630951D01*
X115635714Y-73792856D01*
X115635714Y-74035713D01*
X115716667Y-74197618D01*
X115878571Y-74278570D01*
X116769048Y-74278570D01*
X115878571Y-74278570D02*
X115716667Y-74359523D01*
X115635714Y-74521427D01*
X115635714Y-74764285D01*
X115716667Y-74926189D01*
X115878571Y-75007142D01*
X116769048Y-75007142D01*
D12*
X112178571Y-32750000D02*
X112178571Y-33607143D01*
X113678571Y-33178572D02*
X112178571Y-33178572D01*
X112178571Y-33964286D02*
X113678571Y-34321429D01*
X112607143Y-34607143D01*
X113678571Y-34892857D01*
X112178571Y-35250000D01*
X113678571Y-35821429D02*
X112178571Y-35821429D01*
X112107143Y-37607143D02*
X114035714Y-36321429D01*
X113678571Y-38107144D02*
X112178571Y-38107144D01*
X112321429Y-38750001D02*
X112250000Y-38821430D01*
X112178571Y-38964287D01*
X112178571Y-39321430D01*
X112250000Y-39464287D01*
X112321429Y-39535716D01*
X112464286Y-39607144D01*
X112607143Y-39607144D01*
X112821429Y-39535716D01*
X113678571Y-38678573D01*
X113678571Y-39607144D01*
X113535714Y-41107144D02*
X113607143Y-41035715D01*
X113678571Y-40821429D01*
X113678571Y-40678572D01*
X113607143Y-40464287D01*
X113464286Y-40321429D01*
X113321429Y-40250001D01*
X113035714Y-40178572D01*
X112821429Y-40178572D01*
X112535714Y-40250001D01*
X112392857Y-40321429D01*
X112250000Y-40464287D01*
X112178571Y-40678572D01*
X112178571Y-40821429D01*
X112250000Y-41035715D01*
X112321429Y-41107144D01*
D13*
X115400000Y-47800000D02*
X115400000Y-49800000D01*
X114400000Y-48800000D02*
X116400000Y-48800000D01*
X114800000Y-51600000D02*
X116600000Y-51600000D01*
D14*
X114600000Y-41000000D02*
X118800000Y-41000000D01*
X114200000Y-41400000D02*
X114600000Y-41000000D01*
X114200000Y-42800000D02*
X114200000Y-41400000D01*
X115400000Y-44600000D02*
X118800000Y-44600000D01*
X114400000Y-45600000D02*
X115400000Y-44600000D01*
D12*
X118785714Y-44207143D02*
X118571428Y-44278571D01*
X118214285Y-44278571D01*
X118071428Y-44207143D01*
X117999999Y-44135714D01*
X117928571Y-43992857D01*
X117928571Y-43850000D01*
X117999999Y-43707143D01*
X118071428Y-43635714D01*
X118214285Y-43564286D01*
X118499999Y-43492857D01*
X118642857Y-43421429D01*
X118714285Y-43350000D01*
X118785714Y-43207143D01*
X118785714Y-43064286D01*
X118714285Y-42921429D01*
X118642857Y-42850000D01*
X118499999Y-42778571D01*
X118142857Y-42778571D01*
X117928571Y-42850000D01*
X116428571Y-44135714D02*
X116500000Y-44207143D01*
X116714286Y-44278571D01*
X116857143Y-44278571D01*
X117071428Y-44207143D01*
X117214286Y-44064286D01*
X117285714Y-43921429D01*
X117357143Y-43635714D01*
X117357143Y-43421429D01*
X117285714Y-43135714D01*
X117214286Y-42992857D01*
X117071428Y-42850000D01*
X116857143Y-42778571D01*
X116714286Y-42778571D01*
X116500000Y-42850000D01*
X116428571Y-42921429D01*
X115071428Y-44278571D02*
X115785714Y-44278571D01*
X115785714Y-42778571D01*
X118821428Y-40607143D02*
X118607142Y-40678571D01*
X118249999Y-40678571D01*
X118107142Y-40607143D01*
X118035713Y-40535714D01*
X117964285Y-40392857D01*
X117964285Y-40250000D01*
X118035713Y-40107143D01*
X118107142Y-40035714D01*
X118249999Y-39964286D01*
X118535713Y-39892857D01*
X118678571Y-39821429D01*
X118749999Y-39750000D01*
X118821428Y-39607143D01*
X118821428Y-39464286D01*
X118749999Y-39321429D01*
X118678571Y-39250000D01*
X118535713Y-39178571D01*
X118178571Y-39178571D01*
X117964285Y-39250000D01*
X117321428Y-40678571D02*
X117321428Y-39178571D01*
X116964285Y-39178571D01*
X116750000Y-39250000D01*
X116607142Y-39392857D01*
X116535714Y-39535714D01*
X116464285Y-39821429D01*
X116464285Y-40035714D01*
X116535714Y-40321429D01*
X116607142Y-40464286D01*
X116750000Y-40607143D01*
X116964285Y-40678571D01*
X117321428Y-40678571D01*
X115892857Y-40250000D02*
X115178571Y-40250000D01*
X116035714Y-40678571D02*
X115535714Y-39178571D01*
X115035714Y-40678571D01*
D11*
X119169048Y-52254764D02*
X117469048Y-52254764D01*
X119169048Y-52983335D02*
X118278571Y-52983335D01*
X118116667Y-52902383D01*
X118035714Y-52740478D01*
X118035714Y-52497621D01*
X118116667Y-52335716D01*
X118197619Y-52254764D01*
X118035714Y-53550002D02*
X118035714Y-54197621D01*
X117469048Y-53792859D02*
X118926190Y-53792859D01*
X119088095Y-53873811D01*
X119169048Y-54035716D01*
X119169048Y-54197621D01*
X118035714Y-54521431D02*
X118035714Y-55169050D01*
X117469048Y-54764288D02*
X118926190Y-54764288D01*
X119088095Y-54845240D01*
X119169048Y-55007145D01*
X119169048Y-55169050D01*
X118035714Y-55735717D02*
X119735714Y-55735717D01*
X118116667Y-55735717D02*
X118035714Y-55897622D01*
X118035714Y-56221431D01*
X118116667Y-56383336D01*
X118197619Y-56464288D01*
X118359524Y-56545241D01*
X118845238Y-56545241D01*
X119007143Y-56464288D01*
X119088095Y-56383336D01*
X119169048Y-56221431D01*
X119169048Y-55897622D01*
X119088095Y-55735717D01*
X119088095Y-57192860D02*
X119169048Y-57354764D01*
X119169048Y-57678574D01*
X119088095Y-57840479D01*
X118926190Y-57921431D01*
X118845238Y-57921431D01*
X118683333Y-57840479D01*
X118602381Y-57678574D01*
X118602381Y-57435717D01*
X118521429Y-57273812D01*
X118359524Y-57192860D01*
X118278571Y-57192860D01*
X118116667Y-57273812D01*
X118035714Y-57435717D01*
X118035714Y-57678574D01*
X118116667Y-57840479D01*
X119007143Y-58650002D02*
X119088095Y-58730954D01*
X119169048Y-58650002D01*
X119088095Y-58569050D01*
X119007143Y-58650002D01*
X119169048Y-58650002D01*
X118116667Y-58650002D02*
X118197619Y-58730954D01*
X118278571Y-58650002D01*
X118197619Y-58569050D01*
X118116667Y-58650002D01*
X118278571Y-58650002D01*
X117388095Y-60673812D02*
X119573810Y-59216669D01*
X117388095Y-62454764D02*
X119573810Y-60997621D01*
X118035714Y-63750001D02*
X119411905Y-63750001D01*
X119573810Y-63669049D01*
X119654762Y-63588097D01*
X119735714Y-63426192D01*
X119735714Y-63183335D01*
X119654762Y-63021430D01*
X119088095Y-63750001D02*
X119169048Y-63588097D01*
X119169048Y-63264287D01*
X119088095Y-63102382D01*
X119007143Y-63021430D01*
X118845238Y-62940478D01*
X118359524Y-62940478D01*
X118197619Y-63021430D01*
X118116667Y-63102382D01*
X118035714Y-63264287D01*
X118035714Y-63588097D01*
X118116667Y-63750001D01*
X119169048Y-64559525D02*
X118035714Y-64559525D01*
X117469048Y-64559525D02*
X117550000Y-64478573D01*
X117630952Y-64559525D01*
X117550000Y-64640477D01*
X117469048Y-64559525D01*
X117630952Y-64559525D01*
X118035714Y-65126192D02*
X118035714Y-65773811D01*
X117469048Y-65369049D02*
X118926190Y-65369049D01*
X119088095Y-65450001D01*
X119169048Y-65611906D01*
X119169048Y-65773811D01*
X119169048Y-66340478D02*
X117469048Y-66340478D01*
X119169048Y-67069049D02*
X118278571Y-67069049D01*
X118116667Y-66988097D01*
X118035714Y-66826192D01*
X118035714Y-66583335D01*
X118116667Y-66421430D01*
X118197619Y-66340478D01*
X118035714Y-68607144D02*
X119169048Y-68607144D01*
X118035714Y-67878573D02*
X118926190Y-67878573D01*
X119088095Y-67959525D01*
X119169048Y-68121430D01*
X119169048Y-68364287D01*
X119088095Y-68526192D01*
X119007143Y-68607144D01*
X119169048Y-69416668D02*
X117469048Y-69416668D01*
X118116667Y-69416668D02*
X118035714Y-69578573D01*
X118035714Y-69902382D01*
X118116667Y-70064287D01*
X118197619Y-70145239D01*
X118359524Y-70226192D01*
X118845238Y-70226192D01*
X119007143Y-70145239D01*
X119088095Y-70064287D01*
X119169048Y-69902382D01*
X119169048Y-69578573D01*
X119088095Y-69416668D01*
X119007143Y-70954763D02*
X119088095Y-71035715D01*
X119169048Y-70954763D01*
X119088095Y-70873811D01*
X119007143Y-70954763D01*
X119169048Y-70954763D01*
X119088095Y-72492858D02*
X119169048Y-72330954D01*
X119169048Y-72007144D01*
X119088095Y-71845239D01*
X119007143Y-71764287D01*
X118845238Y-71683335D01*
X118359524Y-71683335D01*
X118197619Y-71764287D01*
X118116667Y-71845239D01*
X118035714Y-72007144D01*
X118035714Y-72330954D01*
X118116667Y-72492858D01*
X119169048Y-73464287D02*
X119088095Y-73302382D01*
X119007143Y-73221430D01*
X118845238Y-73140478D01*
X118359524Y-73140478D01*
X118197619Y-73221430D01*
X118116667Y-73302382D01*
X118035714Y-73464287D01*
X118035714Y-73707144D01*
X118116667Y-73869049D01*
X118197619Y-73950001D01*
X118359524Y-74030954D01*
X118845238Y-74030954D01*
X119007143Y-73950001D01*
X119088095Y-73869049D01*
X119169048Y-73707144D01*
X119169048Y-73464287D01*
X119169048Y-74759525D02*
X118035714Y-74759525D01*
X118197619Y-74759525D02*
X118116667Y-74840477D01*
X118035714Y-75002382D01*
X118035714Y-75245239D01*
X118116667Y-75407144D01*
X118278571Y-75488096D01*
X119169048Y-75488096D01*
X118278571Y-75488096D02*
X118116667Y-75569049D01*
X118035714Y-75730953D01*
X118035714Y-75973811D01*
X118116667Y-76135715D01*
X118278571Y-76216668D01*
X119169048Y-76216668D01*
X117388095Y-78240478D02*
X119573810Y-76783335D01*
X119169048Y-78807144D02*
X117469048Y-78807144D01*
X117469048Y-79211906D01*
X117550000Y-79454763D01*
X117711905Y-79616668D01*
X117873810Y-79697620D01*
X118197619Y-79778572D01*
X118440476Y-79778572D01*
X118764286Y-79697620D01*
X118926190Y-79616668D01*
X119088095Y-79454763D01*
X119169048Y-79211906D01*
X119169048Y-78807144D01*
X119169048Y-80507144D02*
X118035714Y-80507144D01*
X117469048Y-80507144D02*
X117550000Y-80426192D01*
X117630952Y-80507144D01*
X117550000Y-80588096D01*
X117469048Y-80507144D01*
X117630952Y-80507144D01*
X119088095Y-81964287D02*
X119169048Y-81802382D01*
X119169048Y-81478573D01*
X119088095Y-81316668D01*
X118926190Y-81235716D01*
X118278571Y-81235716D01*
X118116667Y-81316668D01*
X118035714Y-81478573D01*
X118035714Y-81802382D01*
X118116667Y-81964287D01*
X118278571Y-82045239D01*
X118440476Y-82045239D01*
X118602381Y-81235716D01*
X118035714Y-83502382D02*
X119411905Y-83502382D01*
X119573810Y-83421430D01*
X119654762Y-83340478D01*
X119735714Y-83178573D01*
X119735714Y-82935716D01*
X119654762Y-82773811D01*
X119088095Y-83502382D02*
X119169048Y-83340478D01*
X119169048Y-83016668D01*
X119088095Y-82854763D01*
X119007143Y-82773811D01*
X118845238Y-82692859D01*
X118359524Y-82692859D01*
X118197619Y-82773811D01*
X118116667Y-82854763D01*
X118035714Y-83016668D01*
X118035714Y-83340478D01*
X118116667Y-83502382D01*
X119169048Y-84554763D02*
X119088095Y-84392858D01*
X119007143Y-84311906D01*
X118845238Y-84230954D01*
X118359524Y-84230954D01*
X118197619Y-84311906D01*
X118116667Y-84392858D01*
X118035714Y-84554763D01*
X118035714Y-84797620D01*
X118116667Y-84959525D01*
X118197619Y-85040477D01*
X118359524Y-85121430D01*
X118845238Y-85121430D01*
X119007143Y-85040477D01*
X119088095Y-84959525D01*
X119169048Y-84797620D01*
X119169048Y-84554763D01*
X119169048Y-86659525D02*
X119169048Y-85850001D01*
X117469048Y-85850001D01*
X119169048Y-87954762D02*
X118278571Y-87954762D01*
X118116667Y-87873810D01*
X118035714Y-87711905D01*
X118035714Y-87388096D01*
X118116667Y-87226191D01*
X119088095Y-87954762D02*
X119169048Y-87792858D01*
X119169048Y-87388096D01*
X119088095Y-87226191D01*
X118926190Y-87145239D01*
X118764286Y-87145239D01*
X118602381Y-87226191D01*
X118521429Y-87388096D01*
X118521429Y-87792858D01*
X118440476Y-87954762D01*
X119169048Y-89007143D02*
X119088095Y-88845238D01*
X118926190Y-88764286D01*
X117469048Y-88764286D01*
X119088095Y-90302381D02*
X119169048Y-90140476D01*
X119169048Y-89816667D01*
X119088095Y-89654762D01*
X118926190Y-89573810D01*
X118278571Y-89573810D01*
X118116667Y-89654762D01*
X118035714Y-89816667D01*
X118035714Y-90140476D01*
X118116667Y-90302381D01*
X118278571Y-90383333D01*
X118440476Y-90383333D01*
X118602381Y-89573810D01*
X117388095Y-92326191D02*
X119573810Y-90869048D01*
X118035714Y-93621428D02*
X119411905Y-93621428D01*
X119573810Y-93540476D01*
X119654762Y-93459524D01*
X119735714Y-93297619D01*
X119735714Y-93054762D01*
X119654762Y-92892857D01*
X119088095Y-93621428D02*
X119169048Y-93459524D01*
X119169048Y-93135714D01*
X119088095Y-92973809D01*
X119007143Y-92892857D01*
X118845238Y-92811905D01*
X118359524Y-92811905D01*
X118197619Y-92892857D01*
X118116667Y-92973809D01*
X118035714Y-93135714D01*
X118035714Y-93459524D01*
X118116667Y-93621428D01*
X119169048Y-95159523D02*
X118278571Y-95159523D01*
X118116667Y-95078571D01*
X118035714Y-94916666D01*
X118035714Y-94592857D01*
X118116667Y-94430952D01*
X119088095Y-95159523D02*
X119169048Y-94997619D01*
X119169048Y-94592857D01*
X119088095Y-94430952D01*
X118926190Y-94350000D01*
X118764286Y-94350000D01*
X118602381Y-94430952D01*
X118521429Y-94592857D01*
X118521429Y-94997619D01*
X118440476Y-95159523D01*
X119169048Y-95969047D02*
X118035714Y-95969047D01*
X118359524Y-95969047D02*
X118197619Y-96049999D01*
X118116667Y-96130952D01*
X118035714Y-96292856D01*
X118035714Y-96454761D01*
X119169048Y-97749999D02*
X118278571Y-97749999D01*
X118116667Y-97669047D01*
X118035714Y-97507142D01*
X118035714Y-97183333D01*
X118116667Y-97021428D01*
X119088095Y-97749999D02*
X119169048Y-97588095D01*
X119169048Y-97183333D01*
X119088095Y-97021428D01*
X118926190Y-96940476D01*
X118764286Y-96940476D01*
X118602381Y-97021428D01*
X118521429Y-97183333D01*
X118521429Y-97588095D01*
X118440476Y-97749999D01*
X119169048Y-98559523D02*
X117469048Y-98559523D01*
X118116667Y-98559523D02*
X118035714Y-98721428D01*
X118035714Y-99045237D01*
X118116667Y-99207142D01*
X118197619Y-99288094D01*
X118359524Y-99369047D01*
X118845238Y-99369047D01*
X119007143Y-99288094D01*
X119088095Y-99207142D01*
X119169048Y-99045237D01*
X119169048Y-98721428D01*
X119088095Y-98559523D01*
X118035714Y-100826189D02*
X119169048Y-100826189D01*
X118035714Y-100097618D02*
X118926190Y-100097618D01*
X119088095Y-100178570D01*
X119169048Y-100340475D01*
X119169048Y-100583332D01*
X119088095Y-100745237D01*
X119007143Y-100826189D01*
X119169048Y-101878570D02*
X119088095Y-101716665D01*
X118926190Y-101635713D01*
X117469048Y-101635713D01*
X119169048Y-102769046D02*
X119088095Y-102607141D01*
X118926190Y-102526189D01*
X117469048Y-102526189D01*
X119169048Y-103659522D02*
X119088095Y-103497617D01*
X119007143Y-103416665D01*
X118845238Y-103335713D01*
X118359524Y-103335713D01*
X118197619Y-103416665D01*
X118116667Y-103497617D01*
X118035714Y-103659522D01*
X118035714Y-103902379D01*
X118116667Y-104064284D01*
X118197619Y-104145236D01*
X118359524Y-104226189D01*
X118845238Y-104226189D01*
X119007143Y-104145236D01*
X119088095Y-104064284D01*
X119169048Y-103902379D01*
X119169048Y-103659522D01*
D15*
X85700000Y-40576191D02*
X85461905Y-40100000D01*
X85461905Y-39385715D01*
X85700000Y-38671429D01*
X86176190Y-38195238D01*
X86652381Y-37957143D01*
X87604762Y-37719048D01*
X88319048Y-37719048D01*
X89271429Y-37957143D01*
X89747619Y-38195238D01*
X90223810Y-38671429D01*
X90461905Y-39385715D01*
X90461905Y-39861905D01*
X90223810Y-40576191D01*
X89985714Y-40814286D01*
X88319048Y-40814286D01*
X88319048Y-39861905D01*
X89033333Y-42719048D02*
X89033333Y-45100000D01*
X90461905Y-42242857D02*
X85461905Y-43909524D01*
X90461905Y-45576191D01*
X90461905Y-50100000D02*
X88080952Y-48433333D01*
X90461905Y-47242857D02*
X85461905Y-47242857D01*
X85461905Y-49147619D01*
X85700000Y-49623810D01*
X85938095Y-49861905D01*
X86414286Y-50100000D01*
X87128571Y-50100000D01*
X87604762Y-49861905D01*
X87842857Y-49623810D01*
X88080952Y-49147619D01*
X88080952Y-47242857D01*
X89033333Y-52004762D02*
X89033333Y-54385714D01*
X90461905Y-51528571D02*
X85461905Y-53195238D01*
X90461905Y-54861905D01*
X87842857Y-58195238D02*
X88080952Y-58909524D01*
X88319048Y-59147619D01*
X88795238Y-59385714D01*
X89509524Y-59385714D01*
X89985714Y-59147619D01*
X90223810Y-58909524D01*
X90461905Y-58433333D01*
X90461905Y-56528571D01*
X85461905Y-56528571D01*
X85461905Y-58195238D01*
X85700000Y-58671428D01*
X85938095Y-58909524D01*
X86414286Y-59147619D01*
X86890476Y-59147619D01*
X87366667Y-58909524D01*
X87604762Y-58671428D01*
X87842857Y-58195238D01*
X87842857Y-56528571D01*
X85461905Y-61528571D02*
X89509524Y-61528571D01*
X89985714Y-61766666D01*
X90223810Y-62004762D01*
X90461905Y-62480952D01*
X90461905Y-63433333D01*
X90223810Y-63909524D01*
X89985714Y-64147619D01*
X89509524Y-64385714D01*
X85461905Y-64385714D01*
X90461905Y-69147619D02*
X90461905Y-66766666D01*
X85461905Y-66766666D01*
X90461905Y-73195238D02*
X90461905Y-70814285D01*
X85461905Y-70814285D01*
X85461905Y-75814285D02*
X85461905Y-76766666D01*
X85700000Y-77242857D01*
X86176190Y-77719047D01*
X87128571Y-77957142D01*
X88795238Y-77957142D01*
X89747619Y-77719047D01*
X90223810Y-77242857D01*
X90461905Y-76766666D01*
X90461905Y-75814285D01*
X90223810Y-75338095D01*
X89747619Y-74861904D01*
X88795238Y-74623809D01*
X87128571Y-74623809D01*
X86176190Y-74861904D01*
X85700000Y-75338095D01*
X85461905Y-75814285D01*
X87128571Y-83433333D02*
X90461905Y-84623809D01*
X87128571Y-85814285D01*
X90461905Y-90338095D02*
X90461905Y-87480952D01*
X90461905Y-88909523D02*
X85461905Y-88909523D01*
X86176190Y-88433333D01*
X86652381Y-87957142D01*
X86890476Y-87480952D01*
X89985714Y-92480952D02*
X90223810Y-92719047D01*
X90461905Y-92480952D01*
X90223810Y-92242857D01*
X89985714Y-92480952D01*
X90461905Y-92480952D01*
X85461905Y-95814285D02*
X85461905Y-96290476D01*
X85700000Y-96766666D01*
X85938095Y-97004761D01*
X86414286Y-97242857D01*
X87366667Y-97480952D01*
X88557143Y-97480952D01*
X89509524Y-97242857D01*
X89985714Y-97004761D01*
X90223810Y-96766666D01*
X90461905Y-96290476D01*
X90461905Y-95814285D01*
X90223810Y-95338095D01*
X89985714Y-95099999D01*
X89509524Y-94861904D01*
X88557143Y-94623809D01*
X87366667Y-94623809D01*
X86414286Y-94861904D01*
X85938095Y-95099999D01*
X85700000Y-95338095D01*
X85461905Y-95814285D01*
D16*
X101800000Y-83438096D02*
X101704762Y-83342858D01*
X101704762Y-83200001D01*
X101800000Y-83057143D01*
X101990476Y-82961905D01*
X102180952Y-82914286D01*
X102561905Y-82866667D01*
X102847619Y-82866667D01*
X103228571Y-82914286D01*
X103419048Y-82961905D01*
X103609524Y-83057143D01*
X103704762Y-83200001D01*
X103704762Y-83295239D01*
X103609524Y-83438096D01*
X103514286Y-83485715D01*
X102847619Y-83485715D01*
X102847619Y-83295239D01*
X103704762Y-83914286D02*
X101704762Y-83914286D01*
X103704762Y-84485715D01*
X101704762Y-84485715D01*
X103704762Y-84961905D02*
X101704762Y-84961905D01*
X101704762Y-85200000D01*
X101800000Y-85342858D01*
X101990476Y-85438096D01*
X102180952Y-85485715D01*
X102561905Y-85533334D01*
X102847619Y-85533334D01*
X103228571Y-85485715D01*
X103419048Y-85438096D01*
X103609524Y-85342858D01*
X103704762Y-85200000D01*
X103704762Y-84961905D01*
D12*
X95628572Y-74333333D02*
X94676191Y-74333333D01*
X95819048Y-74904762D02*
X95152381Y-72904762D01*
X94485714Y-74904762D01*
X94009524Y-72904762D02*
X92771428Y-72904762D01*
X93438095Y-73666667D01*
X93152381Y-73666667D01*
X92961905Y-73761905D01*
X92866667Y-73857143D01*
X92771428Y-74047619D01*
X92771428Y-74523810D01*
X92866667Y-74714286D01*
X92961905Y-74809524D01*
X93152381Y-74904762D01*
X93723809Y-74904762D01*
X93914286Y-74809524D01*
X94009524Y-74714286D01*
D14*
X117200000Y-101000000D02*
G75*
G03X117200000Y-101000000I-1200000J0D01*
G01*
X87200000Y-101000000D02*
G75*
G03X87200000Y-101000000I-1200000J0D01*
G01*
X112200000Y-81000000D02*
G75*
G03X112200000Y-81000000I-1200000J0D01*
G01*
X92200000Y-81000000D02*
G75*
G03X92200000Y-81000000I-1200000J0D01*
G01*
D16*
X101800000Y-97138096D02*
X101704762Y-97042858D01*
X101704762Y-96900001D01*
X101800000Y-96757143D01*
X101990476Y-96661905D01*
X102180952Y-96614286D01*
X102561905Y-96566667D01*
X102847619Y-96566667D01*
X103228571Y-96614286D01*
X103419048Y-96661905D01*
X103609524Y-96757143D01*
X103704762Y-96900001D01*
X103704762Y-96995239D01*
X103609524Y-97138096D01*
X103514286Y-97185715D01*
X102847619Y-97185715D01*
X102847619Y-96995239D01*
X103704762Y-97614286D02*
X101704762Y-97614286D01*
X103704762Y-98185715D01*
X101704762Y-98185715D01*
X103704762Y-98661905D02*
X101704762Y-98661905D01*
X101704762Y-98900000D01*
X101800000Y-99042858D01*
X101990476Y-99138096D01*
X102180952Y-99185715D01*
X102561905Y-99233334D01*
X102847619Y-99233334D01*
X103228571Y-99185715D01*
X103419048Y-99138096D01*
X103609524Y-99042858D01*
X103704762Y-98900000D01*
X103704762Y-98661905D01*
D12*
X98504762Y-83666667D02*
X97552381Y-83000000D01*
X98504762Y-82523809D02*
X96504762Y-82523809D01*
X96504762Y-83285714D01*
X96600000Y-83476190D01*
X96695238Y-83571429D01*
X96885714Y-83666667D01*
X97171429Y-83666667D01*
X97361905Y-83571429D01*
X97457143Y-83476190D01*
X97552381Y-83285714D01*
X97552381Y-82523809D01*
X96504762Y-84333333D02*
X98504762Y-85666667D01*
X96504762Y-85666667D02*
X98504762Y-84333333D01*
X98704762Y-97666667D02*
X97752381Y-97000000D01*
X98704762Y-96523809D02*
X96704762Y-96523809D01*
X96704762Y-97285714D01*
X96800000Y-97476190D01*
X96895238Y-97571429D01*
X97085714Y-97666667D01*
X97371429Y-97666667D01*
X97561905Y-97571429D01*
X97657143Y-97476190D01*
X97752381Y-97285714D01*
X97752381Y-96523809D01*
X96704762Y-98333333D02*
X98704762Y-99666667D01*
X96704762Y-99666667D02*
X98704762Y-98333333D01*
X99104762Y-96076190D02*
X99104762Y-97219047D01*
X101104762Y-96647619D02*
X99104762Y-96647619D01*
X99104762Y-97695238D02*
X101104762Y-99028572D01*
X99104762Y-99028572D02*
X101104762Y-97695238D01*
X99304762Y-82676190D02*
X99304762Y-83819047D01*
X101304762Y-83247619D02*
X99304762Y-83247619D01*
X99304762Y-84295238D02*
X101304762Y-85628572D01*
X99304762Y-85628572D02*
X101304762Y-84295238D01*
X104304762Y-83619047D02*
X104304762Y-82666666D01*
X105257143Y-82571428D01*
X105161905Y-82666666D01*
X105066667Y-82857143D01*
X105066667Y-83333333D01*
X105161905Y-83523809D01*
X105257143Y-83619047D01*
X105447619Y-83714286D01*
X105923810Y-83714286D01*
X106114286Y-83619047D01*
X106209524Y-83523809D01*
X106304762Y-83333333D01*
X106304762Y-82857143D01*
X106209524Y-82666666D01*
X106114286Y-82571428D01*
X104304762Y-84285714D02*
X106304762Y-84952381D01*
X104304762Y-85619048D01*
X104304762Y-97819047D02*
X104304762Y-96866666D01*
X105257143Y-96771428D01*
X105161905Y-96866666D01*
X105066667Y-97057143D01*
X105066667Y-97533333D01*
X105161905Y-97723809D01*
X105257143Y-97819047D01*
X105447619Y-97914286D01*
X105923810Y-97914286D01*
X106114286Y-97819047D01*
X106209524Y-97723809D01*
X106304762Y-97533333D01*
X106304762Y-97057143D01*
X106209524Y-96866666D01*
X106114286Y-96771428D01*
X104304762Y-98485714D02*
X106304762Y-99152381D01*
X104304762Y-99819048D01*
X108780953Y-78104762D02*
X109733334Y-78104762D01*
X109828572Y-79057143D01*
X109733334Y-78961905D01*
X109542857Y-78866667D01*
X109066667Y-78866667D01*
X108876191Y-78961905D01*
X108780953Y-79057143D01*
X108685714Y-79247619D01*
X108685714Y-79723810D01*
X108780953Y-79914286D01*
X108876191Y-80009524D01*
X109066667Y-80104762D01*
X109542857Y-80104762D01*
X109733334Y-80009524D01*
X109828572Y-79914286D01*
X108114286Y-78104762D02*
X107447619Y-80104762D01*
X106780952Y-78104762D01*
X94580953Y-77904762D02*
X95533334Y-77904762D01*
X95628572Y-78857143D01*
X95533334Y-78761905D01*
X95342857Y-78666667D01*
X94866667Y-78666667D01*
X94676191Y-78761905D01*
X94580953Y-78857143D01*
X94485714Y-79047619D01*
X94485714Y-79523810D01*
X94580953Y-79714286D01*
X94676191Y-79809524D01*
X94866667Y-79904762D01*
X95342857Y-79904762D01*
X95533334Y-79809524D01*
X95628572Y-79714286D01*
X93914286Y-77904762D02*
X93247619Y-79904762D01*
X92580952Y-77904762D01*
X109828572Y-74533333D02*
X108876191Y-74533333D01*
X110019048Y-75104762D02*
X109352381Y-73104762D01*
X108685714Y-75104762D01*
X108209524Y-73104762D02*
X106876190Y-73104762D01*
X107733333Y-75104762D01*
X109828572Y-76933333D02*
X108876191Y-76933333D01*
X110019048Y-77504762D02*
X109352381Y-75504762D01*
X108685714Y-77504762D01*
X107161905Y-75504762D02*
X107542857Y-75504762D01*
X107733333Y-75600000D01*
X107828571Y-75695238D01*
X108019048Y-75980952D01*
X108114286Y-76361905D01*
X108114286Y-77123810D01*
X108019048Y-77314286D01*
X107923809Y-77409524D01*
X107733333Y-77504762D01*
X107352381Y-77504762D01*
X107161905Y-77409524D01*
X107066667Y-77314286D01*
X106971428Y-77123810D01*
X106971428Y-76647619D01*
X107066667Y-76457143D01*
X107161905Y-76361905D01*
X107352381Y-76266667D01*
X107733333Y-76266667D01*
X107923809Y-76361905D01*
X108019048Y-76457143D01*
X108114286Y-76647619D01*
X94942857Y-70600000D02*
X95085714Y-70504762D01*
X95300000Y-70504762D01*
X95514285Y-70600000D01*
X95657143Y-70790476D01*
X95728571Y-70980952D01*
X95800000Y-71361905D01*
X95800000Y-71647619D01*
X95728571Y-72028571D01*
X95657143Y-72219048D01*
X95514285Y-72409524D01*
X95300000Y-72504762D01*
X95157143Y-72504762D01*
X94942857Y-72409524D01*
X94871428Y-72314286D01*
X94871428Y-71647619D01*
X95157143Y-71647619D01*
X94228571Y-72504762D02*
X94228571Y-70504762D01*
X93371428Y-72504762D01*
X93371428Y-70504762D01*
X92657142Y-72504762D02*
X92657142Y-70504762D01*
X92299999Y-70504762D01*
X92085714Y-70600000D01*
X91942856Y-70790476D01*
X91871428Y-70980952D01*
X91799999Y-71361905D01*
X91799999Y-71647619D01*
X91871428Y-72028571D01*
X91942856Y-72219048D01*
X92085714Y-72409524D01*
X92299999Y-72504762D01*
X92657142Y-72504762D01*
X109942857Y-70600000D02*
X110085714Y-70504762D01*
X110300000Y-70504762D01*
X110514285Y-70600000D01*
X110657143Y-70790476D01*
X110728571Y-70980952D01*
X110800000Y-71361905D01*
X110800000Y-71647619D01*
X110728571Y-72028571D01*
X110657143Y-72219048D01*
X110514285Y-72409524D01*
X110300000Y-72504762D01*
X110157143Y-72504762D01*
X109942857Y-72409524D01*
X109871428Y-72314286D01*
X109871428Y-71647619D01*
X110157143Y-71647619D01*
X109228571Y-72504762D02*
X109228571Y-70504762D01*
X108371428Y-72504762D01*
X108371428Y-70504762D01*
X107657142Y-72504762D02*
X107657142Y-70504762D01*
X107299999Y-70504762D01*
X107085714Y-70600000D01*
X106942856Y-70790476D01*
X106871428Y-70980952D01*
X106799999Y-71361905D01*
X106799999Y-71647619D01*
X106871428Y-72028571D01*
X106942856Y-72219048D01*
X107085714Y-72409524D01*
X107299999Y-72504762D01*
X107657142Y-72504762D01*
X95628572Y-76733333D02*
X94676191Y-76733333D01*
X95819048Y-77304762D02*
X95152381Y-75304762D01*
X94485714Y-77304762D01*
X93914286Y-75495238D02*
X93819048Y-75400000D01*
X93628571Y-75304762D01*
X93152381Y-75304762D01*
X92961905Y-75400000D01*
X92866667Y-75495238D01*
X92771428Y-75685714D01*
X92771428Y-75876190D01*
X92866667Y-76161905D01*
X94009524Y-77304762D01*
X92771428Y-77304762D01*
D14*
X120000000Y-103000000D02*
X120000000Y-55000000D01*
D15*
X121000000Y-54750000D02*
X121000000Y-102750000D01*
X122500000Y-103000000D02*
X122500000Y-55000000D01*
D14*
X130000000Y-55000000D02*
X130000000Y-103000000D01*
D15*
X129000000Y-103000000D02*
X129000000Y-55000000D01*
X127500000Y-55000000D02*
X127500000Y-103000000D01*
X127500000Y-55000000D02*
G75*
G03X125000000Y-52500000I-2500000J0D01*
G01*
X125000000Y-52500000D02*
G75*
G03X122500000Y-55000000I0J-2500000D01*
G01*
X122500000Y-103000000D02*
G75*
G03X125000000Y-105500000I2500000J0D01*
G01*
X125000000Y-105500000D02*
G75*
G03X127500000Y-103000000I0J2500000D01*
G01*
X121000000Y-103000000D02*
G75*
G03X125000000Y-107000000I4000000J0D01*
G01*
X125000000Y-107000000D02*
G75*
G03X129000000Y-103000000I0J4000000D01*
G01*
D14*
X120000000Y-103000000D02*
G75*
G03X125000000Y-108000000I5000000J0D01*
G01*
X125000000Y-108000000D02*
G75*
G03X130000000Y-103000000I0J5000000D01*
G01*
D15*
X129000000Y-55000000D02*
G75*
G03X125000000Y-51000000I-4000000J0D01*
G01*
X125000000Y-51000000D02*
G75*
G03X121000000Y-55000000I0J-4000000D01*
G01*
D14*
X125000000Y-50000000D02*
G75*
G03X120000000Y-55000000I0J-5000000D01*
G01*
X130000000Y-55000000D02*
G75*
G03X125000000Y-50000000I-5000000J0D01*
G01*
D15*
X81000000Y-55000000D02*
X81000000Y-103000000D01*
X73000000Y-103000000D02*
X73000000Y-55000000D01*
X73000000Y-103000000D02*
G75*
G03X77000000Y-107000000I4000000J0D01*
G01*
X77000000Y-107000000D02*
G75*
G03X81000000Y-103000000I0J4000000D01*
G01*
X81000000Y-55000000D02*
G75*
G03X77000000Y-51000000I-4000000J0D01*
G01*
X77000000Y-51000000D02*
G75*
G03X73000000Y-55000000I0J-4000000D01*
G01*
X79500000Y-55000000D02*
G75*
G03X77000000Y-52500000I-2500000J0D01*
G01*
X77000000Y-52500000D02*
G75*
G03X74500000Y-55000000I0J-2500000D01*
G01*
X74500000Y-103000000D02*
X74500000Y-55000000D01*
X74500000Y-103000000D02*
G75*
G03X77000000Y-105500000I2500000J0D01*
G01*
X77000000Y-105500000D02*
G75*
G03X79500000Y-103000000I0J2500000D01*
G01*
X79500000Y-55000000D02*
X79500000Y-103000000D01*
D14*
X82000000Y-103000000D02*
X82000000Y-55000000D01*
X72000000Y-55000000D02*
X72000000Y-103000000D01*
X82000000Y-55000000D02*
G75*
G03X77000000Y-50000000I-5000000J0D01*
G01*
X77000000Y-50000000D02*
G75*
G03X72000000Y-55000000I0J-5000000D01*
G01*
X72000000Y-103000000D02*
G75*
G03X77000000Y-108000000I5000000J0D01*
G01*
X77000000Y-108000000D02*
G75*
G03X82000000Y-103000000I0J5000000D01*
G01*
D15*
X104000000Y-123000000D02*
X104000000Y-103000000D01*
X98000000Y-103000000D02*
X98000000Y-123000000D01*
X101000000Y-100000000D02*
G75*
G03X98000000Y-103000000I0J-3000000D01*
G01*
X104000000Y-103000000D02*
G75*
G03X101000000Y-100000000I-3000000J0D01*
G01*
D14*
X104750000Y-103000000D02*
G75*
G03X101000000Y-99250000I-3750000J0D01*
G01*
X101000000Y-99250000D02*
G75*
G03X97250000Y-103000000I0J-3750000D01*
G01*
X97250000Y-103000000D02*
X97250000Y-124750000D01*
X104750000Y-124750000D02*
X104750000Y-103000000D01*
D15*
X97250000Y-124750000D02*
X104750000Y-124750000D01*
D17*
X106200000Y-93700000D02*
X106200000Y-96125000D01*
X103940000Y-93450000D02*
X103940000Y-88950000D01*
X96320000Y-88700000D02*
X96600000Y-88700000D01*
X96320000Y-88700000D02*
X96320000Y-93700000D01*
X96320000Y-93700000D02*
X96600000Y-93700000D01*
X106480000Y-93700000D02*
X106200000Y-93700000D01*
X106480000Y-88700000D02*
X106480000Y-93700000D01*
X104321000Y-88700000D02*
X104194000Y-88700000D01*
X104194000Y-88700000D02*
X103940000Y-88954000D01*
X103940000Y-88954000D02*
X103686000Y-88700000D01*
X103686000Y-88700000D02*
X103559000Y-88700000D01*
X106480000Y-88700000D02*
X106200000Y-88700000D01*
X101781000Y-88700000D02*
X101654000Y-88700000D01*
X99241000Y-88700000D02*
X99114000Y-88700000D01*
X103559000Y-93700000D02*
X103686000Y-93700000D01*
X101400000Y-88954000D02*
X101146000Y-88700000D01*
X98860000Y-88954000D02*
X98606000Y-88700000D01*
X103940000Y-93446000D02*
X104194000Y-93700000D01*
X101146000Y-88700000D02*
X101019000Y-88700000D01*
X98606000Y-88700000D02*
X98479000Y-88700000D01*
X104194000Y-93700000D02*
X104321000Y-93700000D01*
X101654000Y-88700000D02*
X101400000Y-88954000D01*
X99114000Y-88700000D02*
X98860000Y-88954000D01*
X103686000Y-93700000D02*
X103940000Y-93446000D01*
X101019000Y-93700000D02*
X101146000Y-93700000D01*
X98479000Y-93700000D02*
X98606000Y-93700000D01*
X101654000Y-93700000D02*
X101781000Y-93700000D01*
X99114000Y-93700000D02*
X99241000Y-93700000D01*
X101400000Y-93446000D02*
X101654000Y-93700000D01*
X98860000Y-93446000D02*
X99114000Y-93700000D01*
X101146000Y-93700000D02*
X101400000Y-93446000D01*
X98606000Y-93700000D02*
X98860000Y-93446000D01*
X101400000Y-93450000D02*
X101400000Y-88950000D01*
X98860000Y-93450000D02*
X98860000Y-88950000D01*
X98900000Y-80000000D02*
X96475000Y-80000000D01*
X99150000Y-77740000D02*
X103650000Y-77740000D01*
X103900000Y-70120000D02*
X103900000Y-70400000D01*
X103900000Y-70120000D02*
X98900000Y-70120000D01*
X98900000Y-70120000D02*
X98900000Y-70400000D01*
X98900000Y-80280000D02*
X98900000Y-80000000D01*
X103900000Y-80280000D02*
X98900000Y-80280000D01*
X103900000Y-78121000D02*
X103900000Y-77994000D01*
X103900000Y-77994000D02*
X103646000Y-77740000D01*
X103646000Y-77740000D02*
X103900000Y-77486000D01*
X103900000Y-77486000D02*
X103900000Y-77359000D01*
X103900000Y-80280000D02*
X103900000Y-80000000D01*
X103900000Y-75581000D02*
X103900000Y-75454000D01*
X103900000Y-73041000D02*
X103900000Y-72914000D01*
X98900000Y-77359000D02*
X98900000Y-77486000D01*
X103646000Y-75200000D02*
X103900000Y-74946000D01*
X103646000Y-72660000D02*
X103900000Y-72406000D01*
X99154000Y-77740000D02*
X98900000Y-77994000D01*
X103900000Y-74946000D02*
X103900000Y-74819000D01*
X103900000Y-72406000D02*
X103900000Y-72279000D01*
X98900000Y-77994000D02*
X98900000Y-78121000D01*
X103900000Y-75454000D02*
X103646000Y-75200000D01*
X103900000Y-72914000D02*
X103646000Y-72660000D01*
X98900000Y-77486000D02*
X99154000Y-77740000D01*
X98900000Y-74819000D02*
X98900000Y-74946000D01*
X98900000Y-72279000D02*
X98900000Y-72406000D01*
X98900000Y-75454000D02*
X98900000Y-75581000D01*
X98900000Y-72914000D02*
X98900000Y-73041000D01*
X99154000Y-75200000D02*
X98900000Y-75454000D01*
X99154000Y-72660000D02*
X98900000Y-72914000D01*
X98900000Y-74946000D02*
X99154000Y-75200000D01*
X98900000Y-72406000D02*
X99154000Y-72660000D01*
X99150000Y-75200000D02*
X103650000Y-75200000D01*
X99150000Y-72660000D02*
X103650000Y-72660000D01*
D15*
X81500000Y-118500000D02*
X81500000Y-113500000D01*
X70000000Y-118500000D02*
X70000000Y-113500000D01*
X67500000Y-116000000D02*
X72500000Y-116000000D01*
D18*
X58000000Y-111500000D02*
X61000000Y-111500000D01*
X59500000Y-113000000D02*
X59500000Y-110000000D01*
X58000000Y-120500000D02*
X61000000Y-120500000D01*
X59500000Y-122000000D02*
X59500000Y-119000000D01*
D12*
X89000000Y-116000000D02*
G75*
G03X89000000Y-116000000I-1500000J0D01*
G01*
X65000000Y-116000000D02*
G75*
G03X65000000Y-116000000I-1500000J0D01*
G01*
X67500000Y-118000000D02*
X67500000Y-120500000D01*
X67500000Y-120500000D02*
X84500000Y-120500000D01*
X84500000Y-120500000D02*
X84500000Y-111500000D01*
X84500000Y-111500000D02*
X67500000Y-111500000D01*
X67500000Y-111500000D02*
X67500000Y-114000000D01*
X67500000Y-114000000D02*
X66500000Y-114000000D01*
X66500000Y-114000000D02*
X66500000Y-118000000D01*
X66500000Y-118000000D02*
X67500000Y-118000000D01*
X57600000Y-124200000D02*
G75*
G03X57600000Y-124200000I-1100000J0D01*
G01*
X97000000Y-125000000D02*
X54000000Y-125000000D01*
X54000000Y-125000000D02*
X54000000Y-107000000D01*
X54000000Y-107000000D02*
X97000000Y-107000000D01*
X97000000Y-107000000D02*
X97000000Y-125000000D01*
D17*
X124500760Y-33500000D02*
G75*
G03X124500760Y-33500000I-1000760J0D01*
G01*
X129700140Y-33500000D02*
G75*
G03X129700140Y-33500000I-6200140J0D01*
G01*
X86050000Y-44550000D02*
X86050000Y-50500000D01*
X86050000Y-50500000D02*
X70950000Y-50500000D01*
X70950000Y-50500000D02*
X70950000Y-44550000D01*
X70950000Y-44550000D02*
X86050000Y-44550000D01*
X82750000Y-44550000D02*
X82750000Y-45300000D01*
X82750000Y-45300000D02*
X74250000Y-45300000D01*
X74250000Y-45300000D02*
X74250000Y-44550000D01*
X74250000Y-44550000D02*
X82750000Y-44550000D01*
X86050000Y-44550000D02*
X86050000Y-45300000D01*
X86050000Y-45300000D02*
X84250000Y-45300000D01*
X84250000Y-45300000D02*
X84250000Y-44550000D01*
X84250000Y-44550000D02*
X86050000Y-44550000D01*
X72750000Y-44550000D02*
X72750000Y-45300000D01*
X72750000Y-45300000D02*
X70950000Y-45300000D01*
X70950000Y-45300000D02*
X70950000Y-44550000D01*
X70950000Y-44550000D02*
X72750000Y-44550000D01*
X86050000Y-46800000D02*
X85300000Y-46800000D01*
X85300000Y-46800000D02*
X85300000Y-49750000D01*
X85300000Y-49750000D02*
X78500000Y-49750000D01*
X70950000Y-46800000D02*
X71700000Y-46800000D01*
X71700000Y-46800000D02*
X71700000Y-49750000D01*
X71700000Y-49750000D02*
X78500000Y-49750000D01*
X83500000Y-44250000D02*
X83800000Y-43650000D01*
X83800000Y-43650000D02*
X83200000Y-43650000D01*
X83200000Y-43650000D02*
X83500000Y-44250000D01*
X131050000Y-44550000D02*
X131050000Y-50500000D01*
X131050000Y-50500000D02*
X115950000Y-50500000D01*
X115950000Y-50500000D02*
X115950000Y-44550000D01*
X115950000Y-44550000D02*
X131050000Y-44550000D01*
X127750000Y-44550000D02*
X127750000Y-45300000D01*
X127750000Y-45300000D02*
X119250000Y-45300000D01*
X119250000Y-45300000D02*
X119250000Y-44550000D01*
X119250000Y-44550000D02*
X127750000Y-44550000D01*
X131050000Y-44550000D02*
X131050000Y-45300000D01*
X131050000Y-45300000D02*
X129250000Y-45300000D01*
X129250000Y-45300000D02*
X129250000Y-44550000D01*
X129250000Y-44550000D02*
X131050000Y-44550000D01*
X117750000Y-44550000D02*
X117750000Y-45300000D01*
X117750000Y-45300000D02*
X115950000Y-45300000D01*
X115950000Y-45300000D02*
X115950000Y-44550000D01*
X115950000Y-44550000D02*
X117750000Y-44550000D01*
X131050000Y-46800000D02*
X130300000Y-46800000D01*
X130300000Y-46800000D02*
X130300000Y-49750000D01*
X130300000Y-49750000D02*
X123500000Y-49750000D01*
X115950000Y-46800000D02*
X116700000Y-46800000D01*
X116700000Y-46800000D02*
X116700000Y-49750000D01*
X116700000Y-49750000D02*
X123500000Y-49750000D01*
X128500000Y-44250000D02*
X128800000Y-43650000D01*
X128800000Y-43650000D02*
X128200000Y-43650000D01*
X128200000Y-43650000D02*
X128500000Y-44250000D01*
D12*
X110390000Y-69590000D02*
X92610000Y-69590000D01*
X92610000Y-69590000D02*
X92610000Y-26410000D01*
X92610000Y-26410000D02*
X110390000Y-26410000D01*
X110390000Y-26410000D02*
X110390000Y-69590000D01*
D15*
X132500000Y-118500000D02*
X132500000Y-113500000D01*
X121000000Y-118500000D02*
X121000000Y-113500000D01*
X118500000Y-116000000D02*
X123500000Y-116000000D01*
D18*
X109000000Y-111500000D02*
X112000000Y-111500000D01*
X110500000Y-113000000D02*
X110500000Y-110000000D01*
X109000000Y-120500000D02*
X112000000Y-120500000D01*
X110500000Y-122000000D02*
X110500000Y-119000000D01*
D12*
X140000000Y-116000000D02*
G75*
G03X140000000Y-116000000I-1500000J0D01*
G01*
X116000000Y-116000000D02*
G75*
G03X116000000Y-116000000I-1500000J0D01*
G01*
X118500000Y-118000000D02*
X118500000Y-120500000D01*
X118500000Y-120500000D02*
X135500000Y-120500000D01*
X135500000Y-120500000D02*
X135500000Y-111500000D01*
X135500000Y-111500000D02*
X118500000Y-111500000D01*
X118500000Y-111500000D02*
X118500000Y-114000000D01*
X118500000Y-114000000D02*
X117500000Y-114000000D01*
X117500000Y-114000000D02*
X117500000Y-118000000D01*
X117500000Y-118000000D02*
X118500000Y-118000000D01*
X108600000Y-124200000D02*
G75*
G03X108600000Y-124200000I-1100000J0D01*
G01*
X148000000Y-125000000D02*
X105000000Y-125000000D01*
X105000000Y-125000000D02*
X105000000Y-107000000D01*
X105000000Y-107000000D02*
X148000000Y-107000000D01*
X148000000Y-107000000D02*
X148000000Y-125000000D01*
D19*
X114590000Y-44470000D02*
X114590000Y-52210000D01*
X114590000Y-52210000D02*
X111810000Y-52210000D01*
X111810000Y-52210000D02*
X111810000Y-44470000D01*
X111810000Y-44470000D02*
X114590000Y-44470000D01*
X114590000Y-43200000D02*
X114590000Y-41810000D01*
X114590000Y-41810000D02*
X113200000Y-41810000D01*
D17*
X77238095Y-111952381D02*
X77238095Y-112761905D01*
X77190476Y-112857143D01*
X77142857Y-112904762D01*
X77047619Y-112952381D01*
X76857142Y-112952381D01*
X76761904Y-112904762D01*
X76714285Y-112857143D01*
X76666666Y-112761905D01*
X76666666Y-111952381D01*
X75666666Y-112952381D02*
X76238095Y-112952381D01*
X75952381Y-112952381D02*
X75952381Y-111952381D01*
X76047619Y-112095238D01*
X76142857Y-112190476D01*
X76238095Y-112238095D01*
X74809523Y-112285714D02*
X74809523Y-112952381D01*
X75047619Y-111904762D02*
X75285714Y-112619048D01*
X74666666Y-112619048D01*
X124380952Y-25427571D02*
X124238095Y-25475190D01*
X124190476Y-25522810D01*
X124142857Y-25618048D01*
X124142857Y-25760905D01*
X124190476Y-25856143D01*
X124238095Y-25903762D01*
X124333333Y-25951381D01*
X124714286Y-25951381D01*
X124714286Y-24951381D01*
X124380952Y-24951381D01*
X124285714Y-24999000D01*
X124238095Y-25046619D01*
X124190476Y-25141857D01*
X124190476Y-25237095D01*
X124238095Y-25332333D01*
X124285714Y-25379952D01*
X124380952Y-25427571D01*
X124714286Y-25427571D01*
X123809524Y-24951381D02*
X123142857Y-24951381D01*
X123809524Y-25951381D01*
X123142857Y-25951381D01*
X122238095Y-25951381D02*
X122809524Y-25951381D01*
X122523810Y-25951381D02*
X122523810Y-24951381D01*
X122619048Y-25094238D01*
X122714286Y-25189476D01*
X122809524Y-25237095D01*
X127690952Y-31031429D02*
X126929047Y-31031429D01*
X127309999Y-31412381D02*
X127309999Y-30650476D01*
X79238095Y-43952381D02*
X79238095Y-42952381D01*
X78857142Y-42952381D01*
X78761904Y-43000000D01*
X78714285Y-43047619D01*
X78666666Y-43142857D01*
X78666666Y-43285714D01*
X78714285Y-43380952D01*
X78761904Y-43428571D01*
X78857142Y-43476190D01*
X79238095Y-43476190D01*
X77714285Y-43952381D02*
X78285714Y-43952381D01*
X78000000Y-43952381D02*
X78000000Y-42952381D01*
X78095238Y-43095238D01*
X78190476Y-43190476D01*
X78285714Y-43238095D01*
X124238095Y-43952381D02*
X124238095Y-42952381D01*
X123857142Y-42952381D01*
X123761904Y-43000000D01*
X123714285Y-43047619D01*
X123666666Y-43142857D01*
X123666666Y-43285714D01*
X123714285Y-43380952D01*
X123761904Y-43428571D01*
X123857142Y-43476190D01*
X124238095Y-43476190D01*
X123285714Y-43047619D02*
X123238095Y-43000000D01*
X123142857Y-42952381D01*
X122904761Y-42952381D01*
X122809523Y-43000000D01*
X122761904Y-43047619D01*
X122714285Y-43142857D01*
X122714285Y-43238095D01*
X122761904Y-43380952D01*
X123333333Y-43952381D01*
X122714285Y-43952381D01*
X106361905Y-65852381D02*
X106361905Y-66661905D01*
X106314286Y-66757143D01*
X106266667Y-66804762D01*
X106171429Y-66852381D01*
X105980952Y-66852381D01*
X105885714Y-66804762D01*
X105838095Y-66757143D01*
X105790476Y-66661905D01*
X105790476Y-65852381D01*
X104885714Y-65852381D02*
X105076191Y-65852381D01*
X105171429Y-65900000D01*
X105219048Y-65947619D01*
X105314286Y-66090476D01*
X105361905Y-66280952D01*
X105361905Y-66661905D01*
X105314286Y-66757143D01*
X105266667Y-66804762D01*
X105171429Y-66852381D01*
X104980952Y-66852381D01*
X104885714Y-66804762D01*
X104838095Y-66757143D01*
X104790476Y-66661905D01*
X104790476Y-66423810D01*
X104838095Y-66328571D01*
X104885714Y-66280952D01*
X104980952Y-66233333D01*
X105171429Y-66233333D01*
X105266667Y-66280952D01*
X105314286Y-66328571D01*
X105361905Y-66423810D01*
X128238095Y-111952381D02*
X128238095Y-112761905D01*
X128190476Y-112857143D01*
X128142857Y-112904762D01*
X128047619Y-112952381D01*
X127857142Y-112952381D01*
X127761904Y-112904762D01*
X127714285Y-112857143D01*
X127666666Y-112761905D01*
X127666666Y-111952381D01*
X126666666Y-112952381D02*
X127238095Y-112952381D01*
X126952381Y-112952381D02*
X126952381Y-111952381D01*
X127047619Y-112095238D01*
X127142857Y-112190476D01*
X127238095Y-112238095D01*
X125761904Y-111952381D02*
X126238095Y-111952381D01*
X126285714Y-112428571D01*
X126238095Y-112380952D01*
X126142857Y-112333333D01*
X125904761Y-112333333D01*
X125809523Y-112380952D01*
X125761904Y-112428571D01*
X125714285Y-112523810D01*
X125714285Y-112761905D01*
X125761904Y-112857143D01*
X125809523Y-112904762D01*
X125904761Y-112952381D01*
X126142857Y-112952381D01*
X126238095Y-112904762D01*
X126285714Y-112857143D01*
%LPC*%
D20*
X105210000Y-94400000D03*
X102670000Y-94400000D03*
X100130000Y-94400000D03*
X97590000Y-94400000D03*
X97590000Y-88000000D03*
X100130000Y-88000000D03*
X102670000Y-88000000D03*
X105210000Y-88000000D03*
D21*
X98200000Y-79010000D03*
X98200000Y-76470000D03*
X98200000Y-73930000D03*
X98200000Y-71390000D03*
X104600000Y-71390000D03*
X104600000Y-73930000D03*
X104600000Y-76470000D03*
X104600000Y-79010000D03*
D22*
X56500000Y-116000000D03*
X94500000Y-116000000D03*
D23*
X56500000Y-124200000D03*
X127299840Y-33500000D03*
X119700160Y-33500000D03*
D24*
X83500000Y-47000000D03*
D25*
X81000000Y-47000000D03*
X78500000Y-47000000D03*
X76000000Y-47000000D03*
X73500000Y-47000000D03*
D24*
X128500000Y-47000000D03*
D25*
X126000000Y-47000000D03*
X123500000Y-47000000D03*
X121000000Y-47000000D03*
X118500000Y-47000000D03*
D26*
X109120000Y-30220000D03*
X109120000Y-32760000D03*
X109120000Y-35300000D03*
X109120000Y-37840000D03*
X109120000Y-40380000D03*
X109120000Y-42920000D03*
X109120000Y-45460000D03*
X109120000Y-48000000D03*
X109120000Y-50540000D03*
X109120000Y-53080000D03*
X109120000Y-55620000D03*
X109120000Y-58160000D03*
X109120000Y-60700000D03*
X109120000Y-63240000D03*
X109120000Y-65780000D03*
X93880000Y-65780000D03*
X93880000Y-63240000D03*
X93880000Y-60700000D03*
X93880000Y-58160000D03*
X93880000Y-55620000D03*
X93880000Y-53080000D03*
X93880000Y-50540000D03*
X93880000Y-48000000D03*
X93880000Y-45460000D03*
X93880000Y-42920000D03*
X93880000Y-40380000D03*
X93880000Y-37840000D03*
X93880000Y-35300000D03*
X93880000Y-32760000D03*
X93880000Y-30220000D03*
D27*
X97690000Y-26300000D03*
X100230000Y-26300000D03*
X102770000Y-26300000D03*
X105310000Y-26300000D03*
D22*
X107500000Y-116000000D03*
X145500000Y-116000000D03*
D23*
X107500000Y-124200000D03*
D28*
X113200000Y-43200000D03*
D29*
X113200000Y-45740000D03*
X113200000Y-48280000D03*
X113200000Y-50820000D03*
M02*
