M48
;DRILL file {KiCad 4.0.5-e0-6337~49~ubuntu16.04.1} date Sun Jan 22 16:00:28 2017
;FORMAT={-:-/ absolute / metric / decimal}
FMAT,2
METRIC,TZ
T1C0.400
T2C0.762
T3C0.800
T4C0.900
T5C1.000
T6C1.001
T7C1.200
T8C2.000
%
G90
G05
M71
T1
X80.75Y-95.25
X81.Y-105.
X85.25Y-64.
X85.25Y-77.
X86.Y-96.75
X87.25Y-74.5
X87.75Y-66.75
X88.6Y-79.
X93.5Y-95.5
X93.75Y-97.75
X94.6Y-105.
X95.Y-80.2
X95.8Y-90.8
X100.2Y-60.4
X100.75Y-97.75
X101.4Y-61.2
X101.6Y-82.4
X102.2Y-51.8
X103.6Y-64.4
X104.6Y-58.2
X105.4Y-59.6
X105.4Y-63.4
X105.5Y-84.75
X106.4Y-51.8
X107.4Y-96.8
X111.Y-65.2
X111.75Y-100.
X111.75Y-102.5
X112.5Y-62.75
X114.75Y-91.75
X118.5Y-96.75
X118.75Y-100.75
X119.25Y-113.75
X119.75Y-82.25
X121.25Y-112.5
T2
X97.69Y-26.3
X100.23Y-26.3
X102.77Y-26.3
X105.31Y-26.3
T3
X93.88Y-30.22
X93.88Y-32.76
X93.88Y-35.3
X93.88Y-37.84
X93.88Y-40.38
X93.88Y-42.92
X93.88Y-45.46
X93.88Y-48.
X93.88Y-50.54
X93.88Y-53.08
X93.88Y-55.62
X93.88Y-58.16
X93.88Y-60.7
X93.88Y-63.24
X93.88Y-65.78
X109.12Y-30.22
X109.12Y-32.76
X109.12Y-35.3
X109.12Y-37.84
X109.12Y-40.38
X109.12Y-42.92
X109.12Y-45.46
X109.12Y-48.
X109.12Y-50.54
X109.12Y-53.08
X109.12Y-55.62
X109.12Y-58.16
X109.12Y-60.7
X109.12Y-63.24
X109.12Y-65.78
T4
X73.5Y-47.
X76.Y-47.
X78.5Y-47.
X81.Y-47.
X83.5Y-47.
X118.5Y-47.
X121.Y-47.
X123.5Y-47.
X126.Y-47.
X128.5Y-47.
T5
X113.2Y-43.2
X113.2Y-45.74
X113.2Y-48.28
X113.2Y-50.82
T6
X119.7Y-33.5
X127.3Y-33.5
T7
X56.5Y-116.
X94.5Y-116.
X107.5Y-116.
X145.5Y-116.
T8
X56.5Y-124.2
X107.5Y-124.2
T0
M30
