G04 #@! TF.FileFunction,Legend,Top*
%FSLAX46Y46*%
G04 Gerber Fmt 4.6, Leading zero omitted, Abs format (unit mm)*
G04 Created by KiCad (PCBNEW 4.0.5-e0-6337~49~ubuntu16.04.1) date Sun Jan 22 15:59:59 2017*
%MOMM*%
%LPD*%
G01*
G04 APERTURE LIST*
%ADD10C,0.100000*%
%ADD11C,0.300000*%
%ADD12C,0.375000*%
%ADD13C,0.600000*%
%ADD14C,0.200000*%
%ADD15C,1.000000*%
%ADD16C,0.150000*%
%ADD17C,0.120000*%
%ADD18R,1.550000X1.300000*%
%ADD19O,2.500000X3.000000*%
%ADD20C,2.000000*%
%ADD21R,1.500000X1.250000*%
%ADD22R,1.250000X1.500000*%
%ADD23R,1.750000X1.750000*%
%ADD24C,1.750000*%
%ADD25R,1.500000X1.300000*%
%ADD26R,1.500000X0.900000*%
%ADD27O,2.000000X1.500000*%
%ADD28R,2.000000X0.700000*%
%ADD29C,1.524000*%
%ADD30R,2.000000X1.200000*%
%ADD31R,1.700000X1.700000*%
%ADD32O,1.700000X1.700000*%
G04 APERTURE END LIST*
D10*
D11*
X115766666Y-25678571D02*
X116033333Y-26678571D01*
X116299999Y-25964286D01*
X116566666Y-26678571D01*
X116833333Y-25678571D01*
X117233333Y-25678571D02*
X117500000Y-26678571D01*
X117766666Y-25964286D01*
X118033333Y-26678571D01*
X118300000Y-25678571D01*
X118700000Y-25678571D02*
X118966667Y-26678571D01*
X119233333Y-25964286D01*
X119500000Y-26678571D01*
X119766667Y-25678571D01*
X120300000Y-26535714D02*
X120366667Y-26607143D01*
X120300000Y-26678571D01*
X120233334Y-26607143D01*
X120300000Y-26535714D01*
X120300000Y-26678571D01*
X121166667Y-26678571D02*
X121033334Y-26607143D01*
X120966667Y-26464286D01*
X120966667Y-25178571D01*
X122300000Y-26678571D02*
X122300000Y-25892857D01*
X122233334Y-25750000D01*
X122100000Y-25678571D01*
X121833334Y-25678571D01*
X121700000Y-25750000D01*
X122300000Y-26607143D02*
X122166667Y-26678571D01*
X121833334Y-26678571D01*
X121700000Y-26607143D01*
X121633334Y-26464286D01*
X121633334Y-26321429D01*
X121700000Y-26178571D01*
X121833334Y-26107143D01*
X122166667Y-26107143D01*
X122300000Y-26035714D01*
X123166667Y-26678571D02*
X123033334Y-26607143D01*
X122966667Y-26464286D01*
X122966667Y-25178571D01*
X124233334Y-26607143D02*
X124100000Y-26678571D01*
X123833334Y-26678571D01*
X123700000Y-26607143D01*
X123633334Y-26464286D01*
X123633334Y-25892857D01*
X123700000Y-25750000D01*
X123833334Y-25678571D01*
X124100000Y-25678571D01*
X124233334Y-25750000D01*
X124300000Y-25892857D01*
X124300000Y-26035714D01*
X123633334Y-26178571D01*
X124900000Y-26678571D02*
X124900000Y-25178571D01*
X124900000Y-25750000D02*
X125033334Y-25678571D01*
X125300000Y-25678571D01*
X125433334Y-25750000D01*
X125500000Y-25821429D01*
X125566667Y-25964286D01*
X125566667Y-26392857D01*
X125500000Y-26535714D01*
X125433334Y-26607143D01*
X125300000Y-26678571D01*
X125033334Y-26678571D01*
X124900000Y-26607143D01*
X126366667Y-26678571D02*
X126233334Y-26607143D01*
X126166667Y-26535714D01*
X126100001Y-26392857D01*
X126100001Y-25964286D01*
X126166667Y-25821429D01*
X126233334Y-25750000D01*
X126366667Y-25678571D01*
X126566667Y-25678571D01*
X126700001Y-25750000D01*
X126766667Y-25821429D01*
X126833334Y-25964286D01*
X126833334Y-26392857D01*
X126766667Y-26535714D01*
X126700001Y-26607143D01*
X126566667Y-26678571D01*
X126366667Y-26678571D01*
X127233334Y-25678571D02*
X127766668Y-25678571D01*
X127433334Y-25178571D02*
X127433334Y-26464286D01*
X127500001Y-26607143D01*
X127633334Y-26678571D01*
X127766668Y-26678571D01*
X128166668Y-26607143D02*
X128300001Y-26678571D01*
X128566668Y-26678571D01*
X128700001Y-26607143D01*
X128766668Y-26464286D01*
X128766668Y-26392857D01*
X128700001Y-26250000D01*
X128566668Y-26178571D01*
X128366668Y-26178571D01*
X128233334Y-26107143D01*
X128166668Y-25964286D01*
X128166668Y-25892857D01*
X128233334Y-25750000D01*
X128366668Y-25678571D01*
X128566668Y-25678571D01*
X128700001Y-25750000D01*
X129366667Y-26535714D02*
X129433334Y-26607143D01*
X129366667Y-26678571D01*
X129300001Y-26607143D01*
X129366667Y-26535714D01*
X129366667Y-26678571D01*
X130633334Y-26607143D02*
X130500001Y-26678571D01*
X130233334Y-26678571D01*
X130100001Y-26607143D01*
X130033334Y-26535714D01*
X129966668Y-26392857D01*
X129966668Y-25964286D01*
X130033334Y-25821429D01*
X130100001Y-25750000D01*
X130233334Y-25678571D01*
X130500001Y-25678571D01*
X130633334Y-25750000D01*
X131433334Y-26678571D02*
X131300001Y-26607143D01*
X131233334Y-26535714D01*
X131166668Y-26392857D01*
X131166668Y-25964286D01*
X131233334Y-25821429D01*
X131300001Y-25750000D01*
X131433334Y-25678571D01*
X131633334Y-25678571D01*
X131766668Y-25750000D01*
X131833334Y-25821429D01*
X131900001Y-25964286D01*
X131900001Y-26392857D01*
X131833334Y-26535714D01*
X131766668Y-26607143D01*
X131633334Y-26678571D01*
X131433334Y-26678571D01*
X132500001Y-26678571D02*
X132500001Y-25678571D01*
X132500001Y-25821429D02*
X132566668Y-25750000D01*
X132700001Y-25678571D01*
X132900001Y-25678571D01*
X133033335Y-25750000D01*
X133100001Y-25892857D01*
X133100001Y-26678571D01*
X133100001Y-25892857D02*
X133166668Y-25750000D01*
X133300001Y-25678571D01*
X133500001Y-25678571D01*
X133633335Y-25750000D01*
X133700001Y-25892857D01*
X133700001Y-26678571D01*
D12*
X70421429Y-26050000D02*
X70278572Y-25978571D01*
X70064286Y-25978571D01*
X69850001Y-26050000D01*
X69707143Y-26192857D01*
X69635715Y-26335714D01*
X69564286Y-26621429D01*
X69564286Y-26835714D01*
X69635715Y-27121429D01*
X69707143Y-27264286D01*
X69850001Y-27407143D01*
X70064286Y-27478571D01*
X70207143Y-27478571D01*
X70421429Y-27407143D01*
X70492858Y-27335714D01*
X70492858Y-26835714D01*
X70207143Y-26835714D01*
X71064286Y-27050000D02*
X71778572Y-27050000D01*
X70921429Y-27478571D02*
X71421429Y-25978571D01*
X71921429Y-27478571D01*
X73278572Y-27478571D02*
X72778572Y-26764286D01*
X72421429Y-27478571D02*
X72421429Y-25978571D01*
X72992857Y-25978571D01*
X73135715Y-26050000D01*
X73207143Y-26121429D01*
X73278572Y-26264286D01*
X73278572Y-26478571D01*
X73207143Y-26621429D01*
X73135715Y-26692857D01*
X72992857Y-26764286D01*
X72421429Y-26764286D01*
X73850000Y-27050000D02*
X74564286Y-27050000D01*
X73707143Y-27478571D02*
X74207143Y-25978571D01*
X74707143Y-27478571D01*
X75707143Y-26692857D02*
X75921429Y-26764286D01*
X75992857Y-26835714D01*
X76064286Y-26978571D01*
X76064286Y-27192857D01*
X75992857Y-27335714D01*
X75921429Y-27407143D01*
X75778571Y-27478571D01*
X75207143Y-27478571D01*
X75207143Y-25978571D01*
X75707143Y-25978571D01*
X75850000Y-26050000D01*
X75921429Y-26121429D01*
X75992857Y-26264286D01*
X75992857Y-26407143D01*
X75921429Y-26550000D01*
X75850000Y-26621429D01*
X75707143Y-26692857D01*
X75207143Y-26692857D01*
X76707143Y-25978571D02*
X76707143Y-27192857D01*
X76778571Y-27335714D01*
X76850000Y-27407143D01*
X76992857Y-27478571D01*
X77278571Y-27478571D01*
X77421429Y-27407143D01*
X77492857Y-27335714D01*
X77564286Y-27192857D01*
X77564286Y-25978571D01*
X78992858Y-27478571D02*
X78278572Y-27478571D01*
X78278572Y-25978571D01*
X80207144Y-27478571D02*
X79492858Y-27478571D01*
X79492858Y-25978571D01*
X80992858Y-25978571D02*
X81278572Y-25978571D01*
X81421430Y-26050000D01*
X81564287Y-26192857D01*
X81635715Y-26478571D01*
X81635715Y-26978571D01*
X81564287Y-27264286D01*
X81421430Y-27407143D01*
X81278572Y-27478571D01*
X80992858Y-27478571D01*
X80850001Y-27407143D01*
X80707144Y-27264286D01*
X80635715Y-26978571D01*
X80635715Y-26478571D01*
X80707144Y-26192857D01*
X80850001Y-26050000D01*
X80992858Y-25978571D01*
X83207144Y-25978571D02*
X83707144Y-27478571D01*
X84207144Y-25978571D01*
X85492858Y-27478571D02*
X84635715Y-27478571D01*
X85064287Y-27478571D02*
X85064287Y-25978571D01*
X84921430Y-26192857D01*
X84778572Y-26335714D01*
X84635715Y-26407143D01*
X86135715Y-27335714D02*
X86207143Y-27407143D01*
X86135715Y-27478571D01*
X86064286Y-27407143D01*
X86135715Y-27335714D01*
X86135715Y-27478571D01*
X87135715Y-25978571D02*
X87278572Y-25978571D01*
X87421429Y-26050000D01*
X87492858Y-26121429D01*
X87564287Y-26264286D01*
X87635715Y-26550000D01*
X87635715Y-26907143D01*
X87564287Y-27192857D01*
X87492858Y-27335714D01*
X87421429Y-27407143D01*
X87278572Y-27478571D01*
X87135715Y-27478571D01*
X86992858Y-27407143D01*
X86921429Y-27335714D01*
X86850001Y-27192857D01*
X86778572Y-26907143D01*
X86778572Y-26550000D01*
X86850001Y-26264286D01*
X86921429Y-26121429D01*
X86992858Y-26050000D01*
X87135715Y-25978571D01*
D13*
X139923810Y-109409524D02*
X140685714Y-109409524D01*
X141066667Y-109600000D01*
X141447619Y-109980952D01*
X141638095Y-110742857D01*
X141638095Y-112076190D01*
X141447619Y-112838095D01*
X141066667Y-113219048D01*
X140685714Y-113409524D01*
X139923810Y-113409524D01*
X139542857Y-113219048D01*
X139161905Y-112838095D01*
X138971429Y-112076190D01*
X138971429Y-110742857D01*
X139161905Y-109980952D01*
X139542857Y-109600000D01*
X139923810Y-109409524D01*
X143352381Y-113409524D02*
X143352381Y-109409524D01*
X145638095Y-113409524D01*
X145638095Y-109409524D01*
D14*
X117200000Y-101000000D02*
G75*
G03X117200000Y-101000000I-1200000J0D01*
G01*
X87200000Y-101000000D02*
G75*
G03X87200000Y-101000000I-1200000J0D01*
G01*
X112200000Y-81000000D02*
G75*
G03X112200000Y-81000000I-1200000J0D01*
G01*
X92200000Y-81000000D02*
G75*
G03X92200000Y-81000000I-1200000J0D01*
G01*
X146250000Y-27500000D02*
G75*
G03X146250000Y-27500000I-1250000J0D01*
G01*
X136250000Y-27500000D02*
G75*
G03X136250000Y-27500000I-1250000J0D01*
G01*
X69250000Y-27500000D02*
G75*
G03X69250000Y-27500000I-1250000J0D01*
G01*
X59250000Y-27500000D02*
G75*
G03X59250000Y-27500000I-1250000J0D01*
G01*
D15*
X70750000Y-68500000D02*
X73250000Y-71000000D01*
X70750000Y-68500000D02*
X73250000Y-66000000D01*
X128500000Y-71250000D02*
X131250000Y-68500000D01*
X131250000Y-68500000D02*
X128500000Y-65750000D01*
X130250000Y-68500000D02*
X126750000Y-68500000D01*
X71000000Y-68500000D02*
X75250000Y-68500000D01*
X127250000Y-55000000D02*
G75*
G03X127250000Y-55000000I-2250000J0D01*
G01*
D14*
X128000000Y-55000000D02*
G75*
G03X128000000Y-55000000I-3000000J0D01*
G01*
X80000000Y-55000000D02*
G75*
G03X80000000Y-55000000I-3000000J0D01*
G01*
D15*
X79250000Y-55000000D02*
G75*
G03X79250000Y-55000000I-2250000J0D01*
G01*
X103263846Y-103000000D02*
G75*
G03X103263846Y-103000000I-2263846J0D01*
G01*
X79250000Y-103000000D02*
G75*
G03X79250000Y-103000000I-2250000J0D01*
G01*
D14*
X104000000Y-103000000D02*
G75*
G03X104000000Y-103000000I-3000000J0D01*
G01*
D15*
X103263846Y-123000000D02*
G75*
G03X103263846Y-123000000I-2263846J0D01*
G01*
X127250000Y-103000000D02*
G75*
G03X127250000Y-103000000I-2250000J0D01*
G01*
D14*
X128000000Y-103000000D02*
G75*
G03X128000000Y-103000000I-3000000J0D01*
G01*
X80000000Y-103000000D02*
G75*
G03X80000000Y-103000000I-3000000J0D01*
G01*
X104000000Y-123000000D02*
G75*
G03X104000000Y-123000000I-3000000J0D01*
G01*
D16*
X102750714Y-71000000D02*
G75*
G03X102750714Y-71000000I-1750714J0D01*
G01*
X97775000Y-74225000D02*
X97775000Y-74200000D01*
X97775000Y-67775000D02*
X97775000Y-67800000D01*
X104225000Y-67775000D02*
X104225000Y-67800000D01*
X104225000Y-74200000D02*
X104225000Y-74225000D01*
X97775000Y-72300000D02*
X97775000Y-69700000D01*
X104225000Y-74225000D02*
X97775000Y-74225000D01*
X104225000Y-72300000D02*
X104225000Y-69700000D01*
X104225000Y-67775000D02*
X97775000Y-67775000D01*
X102750714Y-91000000D02*
G75*
G03X102750714Y-91000000I-1750714J0D01*
G01*
X104225000Y-87775000D02*
X104225000Y-87800000D01*
X104225000Y-94225000D02*
X104225000Y-94200000D01*
X97775000Y-94225000D02*
X97775000Y-94200000D01*
X97775000Y-87800000D02*
X97775000Y-87775000D01*
X104225000Y-89700000D02*
X104225000Y-92300000D01*
X97775000Y-87775000D02*
X104225000Y-87775000D01*
X97775000Y-89700000D02*
X97775000Y-92300000D01*
X97775000Y-94225000D02*
X104225000Y-94225000D01*
D11*
X57600000Y-124200000D02*
G75*
G03X57600000Y-124200000I-1100000J0D01*
G01*
D13*
X59500000Y-113000000D02*
X59500000Y-110000000D01*
X58000000Y-111500000D02*
X61000000Y-111500000D01*
X58000000Y-120500000D02*
X61000000Y-120500000D01*
X59500000Y-122000000D02*
X59500000Y-119000000D01*
D17*
X81500000Y-79750000D02*
X80500000Y-79750000D01*
X80500000Y-81450000D02*
X81500000Y-81450000D01*
X101500000Y-79750000D02*
X100500000Y-79750000D01*
X100500000Y-81450000D02*
X101500000Y-81450000D01*
X121500000Y-79750000D02*
X120500000Y-79750000D01*
X120500000Y-81450000D02*
X121500000Y-81450000D01*
X116350000Y-97500000D02*
X116350000Y-96500000D01*
X114650000Y-96500000D02*
X114650000Y-97500000D01*
X121500000Y-119750000D02*
X120500000Y-119750000D01*
X120500000Y-121450000D02*
X121500000Y-121450000D01*
X96650000Y-121500000D02*
X96650000Y-120500000D01*
X94950000Y-120500000D02*
X94950000Y-121500000D01*
X81500000Y-119650000D02*
X80500000Y-119650000D01*
X80500000Y-121350000D02*
X81500000Y-121350000D01*
X76350000Y-97500000D02*
X76350000Y-96500000D01*
X74650000Y-96500000D02*
X74650000Y-97500000D01*
X96350000Y-97500000D02*
X96350000Y-96500000D01*
X94650000Y-96500000D02*
X94650000Y-97500000D01*
D16*
X111600000Y-71875000D02*
X110400000Y-71875000D01*
X110400000Y-70125000D02*
X111600000Y-70125000D01*
X110400000Y-74625000D02*
X111600000Y-74625000D01*
X111600000Y-76375000D02*
X110400000Y-76375000D01*
X90400000Y-74625000D02*
X91600000Y-74625000D01*
X91600000Y-76375000D02*
X90400000Y-76375000D01*
X87900000Y-84125000D02*
X89100000Y-84125000D01*
X89100000Y-85875000D02*
X87900000Y-85875000D01*
X91100000Y-91375000D02*
X89900000Y-91375000D01*
X89900000Y-89625000D02*
X91100000Y-89625000D01*
X93850000Y-94125000D02*
X92650000Y-94125000D01*
X92650000Y-92375000D02*
X93850000Y-92375000D01*
X100900000Y-37375000D02*
X102100000Y-37375000D01*
X102100000Y-39125000D02*
X100900000Y-39125000D01*
X119100000Y-64875000D02*
X117900000Y-64875000D01*
X117900000Y-63125000D02*
X119100000Y-63125000D01*
X129100000Y-81375000D02*
X127900000Y-81375000D01*
X127900000Y-79625000D02*
X129100000Y-79625000D01*
X127900000Y-97625000D02*
X129100000Y-97625000D01*
X129100000Y-99375000D02*
X127900000Y-99375000D01*
X110400000Y-107625000D02*
X111600000Y-107625000D01*
X111600000Y-109375000D02*
X110400000Y-109375000D01*
X111600000Y-106375000D02*
X110400000Y-106375000D01*
X110400000Y-104625000D02*
X111600000Y-104625000D01*
X116850000Y-106375000D02*
X115650000Y-106375000D01*
X115650000Y-104625000D02*
X116850000Y-104625000D01*
X100900000Y-39625000D02*
X102100000Y-39625000D01*
X102100000Y-41375000D02*
X100900000Y-41375000D01*
X82750714Y-71000000D02*
G75*
G03X82750714Y-71000000I-1750714J0D01*
G01*
X77775000Y-74225000D02*
X77775000Y-74200000D01*
X77775000Y-67775000D02*
X77775000Y-67800000D01*
X84225000Y-67775000D02*
X84225000Y-67800000D01*
X84225000Y-74200000D02*
X84225000Y-74225000D01*
X77775000Y-72300000D02*
X77775000Y-69700000D01*
X84225000Y-74225000D02*
X77775000Y-74225000D01*
X84225000Y-72300000D02*
X84225000Y-69700000D01*
X84225000Y-67775000D02*
X77775000Y-67775000D01*
X82750714Y-91000000D02*
G75*
G03X82750714Y-91000000I-1750714J0D01*
G01*
X77775000Y-94225000D02*
X77775000Y-94200000D01*
X77775000Y-87775000D02*
X77775000Y-87800000D01*
X84225000Y-87775000D02*
X84225000Y-87800000D01*
X84225000Y-94200000D02*
X84225000Y-94225000D01*
X77775000Y-92300000D02*
X77775000Y-89700000D01*
X84225000Y-94225000D02*
X77775000Y-94225000D01*
X84225000Y-92300000D02*
X84225000Y-89700000D01*
X84225000Y-87775000D02*
X77775000Y-87775000D01*
X82750714Y-111000000D02*
G75*
G03X82750714Y-111000000I-1750714J0D01*
G01*
X84225000Y-107775000D02*
X84225000Y-107800000D01*
X84225000Y-114225000D02*
X84225000Y-114200000D01*
X77775000Y-114225000D02*
X77775000Y-114200000D01*
X77775000Y-107800000D02*
X77775000Y-107775000D01*
X84225000Y-109700000D02*
X84225000Y-112300000D01*
X77775000Y-107775000D02*
X84225000Y-107775000D01*
X77775000Y-109700000D02*
X77775000Y-112300000D01*
X77775000Y-114225000D02*
X84225000Y-114225000D01*
X122750714Y-71000000D02*
G75*
G03X122750714Y-71000000I-1750714J0D01*
G01*
X124225000Y-67775000D02*
X124225000Y-67800000D01*
X124225000Y-74225000D02*
X124225000Y-74200000D01*
X117775000Y-74225000D02*
X117775000Y-74200000D01*
X117775000Y-67800000D02*
X117775000Y-67775000D01*
X124225000Y-69700000D02*
X124225000Y-72300000D01*
X117775000Y-67775000D02*
X124225000Y-67775000D01*
X117775000Y-69700000D02*
X117775000Y-72300000D01*
X117775000Y-74225000D02*
X124225000Y-74225000D01*
X122750714Y-91000000D02*
G75*
G03X122750714Y-91000000I-1750714J0D01*
G01*
X124225000Y-87775000D02*
X124225000Y-87800000D01*
X124225000Y-94225000D02*
X124225000Y-94200000D01*
X117775000Y-94225000D02*
X117775000Y-94200000D01*
X117775000Y-87800000D02*
X117775000Y-87775000D01*
X124225000Y-89700000D02*
X124225000Y-92300000D01*
X117775000Y-87775000D02*
X124225000Y-87775000D01*
X117775000Y-89700000D02*
X117775000Y-92300000D01*
X117775000Y-94225000D02*
X124225000Y-94225000D01*
X122750714Y-111000000D02*
G75*
G03X122750714Y-111000000I-1750714J0D01*
G01*
X124225000Y-107775000D02*
X124225000Y-107800000D01*
X124225000Y-114225000D02*
X124225000Y-114200000D01*
X117775000Y-114225000D02*
X117775000Y-114200000D01*
X117775000Y-107800000D02*
X117775000Y-107775000D01*
X124225000Y-109700000D02*
X124225000Y-112300000D01*
X117775000Y-107775000D02*
X124225000Y-107775000D01*
X117775000Y-109700000D02*
X117775000Y-112300000D01*
X117775000Y-114225000D02*
X124225000Y-114225000D01*
X102750714Y-111000000D02*
G75*
G03X102750714Y-111000000I-1750714J0D01*
G01*
X104225000Y-107775000D02*
X104225000Y-107800000D01*
X104225000Y-114225000D02*
X104225000Y-114200000D01*
X97775000Y-114225000D02*
X97775000Y-114200000D01*
X97775000Y-107800000D02*
X97775000Y-107775000D01*
X104225000Y-109700000D02*
X104225000Y-112300000D01*
X97775000Y-107775000D02*
X104225000Y-107775000D01*
X97775000Y-109700000D02*
X97775000Y-112300000D01*
X97775000Y-114225000D02*
X104225000Y-114225000D01*
X118250714Y-56500000D02*
G75*
G03X118250714Y-56500000I-1750714J0D01*
G01*
X119725000Y-53275000D02*
X119725000Y-53300000D01*
X119725000Y-59725000D02*
X119725000Y-59700000D01*
X113275000Y-59725000D02*
X113275000Y-59700000D01*
X113275000Y-53300000D02*
X113275000Y-53275000D01*
X119725000Y-55200000D02*
X119725000Y-57800000D01*
X113275000Y-53275000D02*
X119725000Y-53275000D01*
X113275000Y-55200000D02*
X113275000Y-57800000D01*
X113275000Y-59725000D02*
X119725000Y-59725000D01*
X83500000Y-77300000D02*
X81300000Y-79500000D01*
X83500000Y-74800000D02*
X83500000Y-74500000D01*
X83500000Y-78100000D02*
X83500000Y-75900000D01*
X83500000Y-79500000D02*
X83500000Y-79200000D01*
X78500000Y-79200000D02*
X78500000Y-79500000D01*
X78500000Y-75900000D02*
X78500000Y-78100000D01*
X78500000Y-74500000D02*
X78500000Y-74800000D01*
X78500000Y-79500000D02*
X83500000Y-79500000D01*
X78500000Y-74500000D02*
X83500000Y-74500000D01*
X103500000Y-77300000D02*
X101300000Y-79500000D01*
X103500000Y-74800000D02*
X103500000Y-74500000D01*
X103500000Y-78100000D02*
X103500000Y-75900000D01*
X103500000Y-79500000D02*
X103500000Y-79200000D01*
X98500000Y-79200000D02*
X98500000Y-79500000D01*
X98500000Y-75900000D02*
X98500000Y-78100000D01*
X98500000Y-74500000D02*
X98500000Y-74800000D01*
X98500000Y-79500000D02*
X103500000Y-79500000D01*
X98500000Y-74500000D02*
X103500000Y-74500000D01*
X123500000Y-77300000D02*
X121300000Y-79500000D01*
X123500000Y-74800000D02*
X123500000Y-74500000D01*
X123500000Y-78100000D02*
X123500000Y-75900000D01*
X123500000Y-79500000D02*
X123500000Y-79200000D01*
X118500000Y-79200000D02*
X118500000Y-79500000D01*
X118500000Y-75900000D02*
X118500000Y-78100000D01*
X118500000Y-74500000D02*
X118500000Y-74800000D01*
X118500000Y-79500000D02*
X123500000Y-79500000D01*
X118500000Y-74500000D02*
X123500000Y-74500000D01*
X123500000Y-97300000D02*
X121300000Y-99500000D01*
X123500000Y-94800000D02*
X123500000Y-94500000D01*
X123500000Y-98100000D02*
X123500000Y-95900000D01*
X123500000Y-99500000D02*
X123500000Y-99200000D01*
X118500000Y-99200000D02*
X118500000Y-99500000D01*
X118500000Y-95900000D02*
X118500000Y-98100000D01*
X118500000Y-94500000D02*
X118500000Y-94800000D01*
X118500000Y-99500000D02*
X123500000Y-99500000D01*
X118500000Y-94500000D02*
X123500000Y-94500000D01*
X123500000Y-117300000D02*
X121300000Y-119500000D01*
X123500000Y-114800000D02*
X123500000Y-114500000D01*
X123500000Y-118100000D02*
X123500000Y-115900000D01*
X123500000Y-119500000D02*
X123500000Y-119200000D01*
X118500000Y-119200000D02*
X118500000Y-119500000D01*
X118500000Y-115900000D02*
X118500000Y-118100000D01*
X118500000Y-114500000D02*
X118500000Y-114800000D01*
X118500000Y-119500000D02*
X123500000Y-119500000D01*
X118500000Y-114500000D02*
X123500000Y-114500000D01*
X103500000Y-117300000D02*
X101300000Y-119500000D01*
X103500000Y-114800000D02*
X103500000Y-114500000D01*
X103500000Y-118100000D02*
X103500000Y-115900000D01*
X103500000Y-119500000D02*
X103500000Y-119200000D01*
X98500000Y-119200000D02*
X98500000Y-119500000D01*
X98500000Y-115900000D02*
X98500000Y-118100000D01*
X98500000Y-114500000D02*
X98500000Y-114800000D01*
X98500000Y-119500000D02*
X103500000Y-119500000D01*
X98500000Y-114500000D02*
X103500000Y-114500000D01*
X83500000Y-117300000D02*
X81300000Y-119500000D01*
X83500000Y-114800000D02*
X83500000Y-114500000D01*
X83500000Y-118100000D02*
X83500000Y-115900000D01*
X83500000Y-119500000D02*
X83500000Y-119200000D01*
X78500000Y-119200000D02*
X78500000Y-119500000D01*
X78500000Y-115900000D02*
X78500000Y-118100000D01*
X78500000Y-114500000D02*
X78500000Y-114800000D01*
X78500000Y-119500000D02*
X83500000Y-119500000D01*
X78500000Y-114500000D02*
X83500000Y-114500000D01*
X83500000Y-97300000D02*
X81300000Y-99500000D01*
X83500000Y-94800000D02*
X83500000Y-94500000D01*
X83500000Y-98100000D02*
X83500000Y-95900000D01*
X83500000Y-99500000D02*
X83500000Y-99200000D01*
X78500000Y-99200000D02*
X78500000Y-99500000D01*
X78500000Y-95900000D02*
X78500000Y-98100000D01*
X78500000Y-94500000D02*
X78500000Y-94800000D01*
X78500000Y-99500000D02*
X83500000Y-99500000D01*
X78500000Y-94500000D02*
X83500000Y-94500000D01*
X103500000Y-97300000D02*
X101300000Y-99500000D01*
X103500000Y-94800000D02*
X103500000Y-94500000D01*
X103500000Y-98100000D02*
X103500000Y-95900000D01*
X103500000Y-99500000D02*
X103500000Y-99200000D01*
X98500000Y-99200000D02*
X98500000Y-99500000D01*
X98500000Y-95900000D02*
X98500000Y-98100000D01*
X98500000Y-94500000D02*
X98500000Y-94800000D01*
X98500000Y-99500000D02*
X103500000Y-99500000D01*
X98500000Y-94500000D02*
X103500000Y-94500000D01*
D11*
X84675000Y-39945000D02*
G75*
G03X84675000Y-39945000I-635000J0D01*
G01*
X85250000Y-41275000D02*
X85250000Y-29725000D01*
X85250000Y-29725000D02*
X77750000Y-29725000D01*
X77750000Y-29725000D02*
X77750000Y-41275000D01*
X77750000Y-41275000D02*
X85250000Y-41275000D01*
D16*
X114150000Y-50850000D02*
G75*
G03X114150000Y-50850000I-1000000J0D01*
G01*
X90850000Y-50850000D02*
G75*
G03X90850000Y-50850000I-1000000J0D01*
G01*
X90850000Y-27150000D02*
G75*
G03X90850000Y-27150000I-1000000J0D01*
G01*
X114150000Y-27150000D02*
G75*
G03X114150000Y-27150000I-1000000J0D01*
G01*
X87500000Y-25000000D02*
X115500000Y-25000000D01*
X115500000Y-25000000D02*
X115500000Y-53000000D01*
X115500000Y-53000000D02*
X87500000Y-53000000D01*
X87500000Y-53000000D02*
X87500000Y-25000000D01*
D11*
X108600000Y-124200000D02*
G75*
G03X108600000Y-124200000I-1100000J0D01*
G01*
D13*
X110500000Y-113000000D02*
X110500000Y-110000000D01*
X109000000Y-111500000D02*
X112000000Y-111500000D01*
X109000000Y-120500000D02*
X112000000Y-120500000D01*
X110500000Y-122000000D02*
X110500000Y-119000000D01*
D16*
X140700000Y-116000000D02*
X140700000Y-125000000D01*
X140700000Y-125000000D02*
X144300000Y-125000000D01*
X144300000Y-125000000D02*
X144300000Y-116000000D01*
X144300000Y-116000000D02*
X140700000Y-116000000D01*
X88250714Y-56500000D02*
G75*
G03X88250714Y-56500000I-1750714J0D01*
G01*
X89725000Y-53275000D02*
X89725000Y-53300000D01*
X89725000Y-59725000D02*
X89725000Y-59700000D01*
X83275000Y-59725000D02*
X83275000Y-59700000D01*
X83275000Y-53300000D02*
X83275000Y-53275000D01*
X89725000Y-55200000D02*
X89725000Y-57800000D01*
X83275000Y-53275000D02*
X89725000Y-53275000D01*
X83275000Y-55200000D02*
X83275000Y-57800000D01*
X83275000Y-59725000D02*
X89725000Y-59725000D01*
X99666667Y-67404762D02*
X99809524Y-67452381D01*
X100047620Y-67452381D01*
X100142858Y-67404762D01*
X100190477Y-67357143D01*
X100238096Y-67261905D01*
X100238096Y-67166667D01*
X100190477Y-67071429D01*
X100142858Y-67023810D01*
X100047620Y-66976190D01*
X99857143Y-66928571D01*
X99761905Y-66880952D01*
X99714286Y-66833333D01*
X99666667Y-66738095D01*
X99666667Y-66642857D01*
X99714286Y-66547619D01*
X99761905Y-66500000D01*
X99857143Y-66452381D01*
X100095239Y-66452381D01*
X100238096Y-66500000D01*
X100571429Y-66452381D02*
X100809524Y-67452381D01*
X101000001Y-66738095D01*
X101190477Y-67452381D01*
X101428572Y-66452381D01*
X102333334Y-67452381D02*
X101761905Y-67452381D01*
X102047619Y-67452381D02*
X102047619Y-66452381D01*
X101952381Y-66595238D01*
X101857143Y-66690476D01*
X101761905Y-66738095D01*
X99666667Y-87354762D02*
X99809524Y-87402381D01*
X100047620Y-87402381D01*
X100142858Y-87354762D01*
X100190477Y-87307143D01*
X100238096Y-87211905D01*
X100238096Y-87116667D01*
X100190477Y-87021429D01*
X100142858Y-86973810D01*
X100047620Y-86926190D01*
X99857143Y-86878571D01*
X99761905Y-86830952D01*
X99714286Y-86783333D01*
X99666667Y-86688095D01*
X99666667Y-86592857D01*
X99714286Y-86497619D01*
X99761905Y-86450000D01*
X99857143Y-86402381D01*
X100095239Y-86402381D01*
X100238096Y-86450000D01*
X100571429Y-86402381D02*
X100809524Y-87402381D01*
X101000001Y-86688095D01*
X101190477Y-87402381D01*
X101428572Y-86402381D01*
X102238096Y-86735714D02*
X102238096Y-87402381D01*
X102000000Y-86354762D02*
X101761905Y-87069048D01*
X102380953Y-87069048D01*
X80833334Y-78857143D02*
X80785715Y-78904762D01*
X80642858Y-78952381D01*
X80547620Y-78952381D01*
X80404762Y-78904762D01*
X80309524Y-78809524D01*
X80261905Y-78714286D01*
X80214286Y-78523810D01*
X80214286Y-78380952D01*
X80261905Y-78190476D01*
X80309524Y-78095238D01*
X80404762Y-78000000D01*
X80547620Y-77952381D01*
X80642858Y-77952381D01*
X80785715Y-78000000D01*
X80833334Y-78047619D01*
X81785715Y-78952381D02*
X81214286Y-78952381D01*
X81500000Y-78952381D02*
X81500000Y-77952381D01*
X81404762Y-78095238D01*
X81309524Y-78190476D01*
X81214286Y-78238095D01*
X100833334Y-78857143D02*
X100785715Y-78904762D01*
X100642858Y-78952381D01*
X100547620Y-78952381D01*
X100404762Y-78904762D01*
X100309524Y-78809524D01*
X100261905Y-78714286D01*
X100214286Y-78523810D01*
X100214286Y-78380952D01*
X100261905Y-78190476D01*
X100309524Y-78095238D01*
X100404762Y-78000000D01*
X100547620Y-77952381D01*
X100642858Y-77952381D01*
X100785715Y-78000000D01*
X100833334Y-78047619D01*
X101214286Y-78047619D02*
X101261905Y-78000000D01*
X101357143Y-77952381D01*
X101595239Y-77952381D01*
X101690477Y-78000000D01*
X101738096Y-78047619D01*
X101785715Y-78142857D01*
X101785715Y-78238095D01*
X101738096Y-78380952D01*
X101166667Y-78952381D01*
X101785715Y-78952381D01*
X120833334Y-78857143D02*
X120785715Y-78904762D01*
X120642858Y-78952381D01*
X120547620Y-78952381D01*
X120404762Y-78904762D01*
X120309524Y-78809524D01*
X120261905Y-78714286D01*
X120214286Y-78523810D01*
X120214286Y-78380952D01*
X120261905Y-78190476D01*
X120309524Y-78095238D01*
X120404762Y-78000000D01*
X120547620Y-77952381D01*
X120642858Y-77952381D01*
X120785715Y-78000000D01*
X120833334Y-78047619D01*
X121166667Y-77952381D02*
X121785715Y-77952381D01*
X121452381Y-78333333D01*
X121595239Y-78333333D01*
X121690477Y-78380952D01*
X121738096Y-78428571D01*
X121785715Y-78523810D01*
X121785715Y-78761905D01*
X121738096Y-78857143D01*
X121690477Y-78904762D01*
X121595239Y-78952381D01*
X121309524Y-78952381D01*
X121214286Y-78904762D01*
X121166667Y-78857143D01*
X117957143Y-97166666D02*
X118004762Y-97214285D01*
X118052381Y-97357142D01*
X118052381Y-97452380D01*
X118004762Y-97595238D01*
X117909524Y-97690476D01*
X117814286Y-97738095D01*
X117623810Y-97785714D01*
X117480952Y-97785714D01*
X117290476Y-97738095D01*
X117195238Y-97690476D01*
X117100000Y-97595238D01*
X117052381Y-97452380D01*
X117052381Y-97357142D01*
X117100000Y-97214285D01*
X117147619Y-97166666D01*
X117385714Y-96309523D02*
X118052381Y-96309523D01*
X117004762Y-96547619D02*
X117719048Y-96785714D01*
X117719048Y-96166666D01*
X120833334Y-118857143D02*
X120785715Y-118904762D01*
X120642858Y-118952381D01*
X120547620Y-118952381D01*
X120404762Y-118904762D01*
X120309524Y-118809524D01*
X120261905Y-118714286D01*
X120214286Y-118523810D01*
X120214286Y-118380952D01*
X120261905Y-118190476D01*
X120309524Y-118095238D01*
X120404762Y-118000000D01*
X120547620Y-117952381D01*
X120642858Y-117952381D01*
X120785715Y-118000000D01*
X120833334Y-118047619D01*
X121738096Y-117952381D02*
X121261905Y-117952381D01*
X121214286Y-118428571D01*
X121261905Y-118380952D01*
X121357143Y-118333333D01*
X121595239Y-118333333D01*
X121690477Y-118380952D01*
X121738096Y-118428571D01*
X121785715Y-118523810D01*
X121785715Y-118761905D01*
X121738096Y-118857143D01*
X121690477Y-118904762D01*
X121595239Y-118952381D01*
X121357143Y-118952381D01*
X121261905Y-118904762D01*
X121214286Y-118857143D01*
X98257143Y-121166666D02*
X98304762Y-121214285D01*
X98352381Y-121357142D01*
X98352381Y-121452380D01*
X98304762Y-121595238D01*
X98209524Y-121690476D01*
X98114286Y-121738095D01*
X97923810Y-121785714D01*
X97780952Y-121785714D01*
X97590476Y-121738095D01*
X97495238Y-121690476D01*
X97400000Y-121595238D01*
X97352381Y-121452380D01*
X97352381Y-121357142D01*
X97400000Y-121214285D01*
X97447619Y-121166666D01*
X97352381Y-120309523D02*
X97352381Y-120500000D01*
X97400000Y-120595238D01*
X97447619Y-120642857D01*
X97590476Y-120738095D01*
X97780952Y-120785714D01*
X98161905Y-120785714D01*
X98257143Y-120738095D01*
X98304762Y-120690476D01*
X98352381Y-120595238D01*
X98352381Y-120404761D01*
X98304762Y-120309523D01*
X98257143Y-120261904D01*
X98161905Y-120214285D01*
X97923810Y-120214285D01*
X97828571Y-120261904D01*
X97780952Y-120309523D01*
X97733333Y-120404761D01*
X97733333Y-120595238D01*
X97780952Y-120690476D01*
X97828571Y-120738095D01*
X97923810Y-120785714D01*
X80833334Y-118757143D02*
X80785715Y-118804762D01*
X80642858Y-118852381D01*
X80547620Y-118852381D01*
X80404762Y-118804762D01*
X80309524Y-118709524D01*
X80261905Y-118614286D01*
X80214286Y-118423810D01*
X80214286Y-118280952D01*
X80261905Y-118090476D01*
X80309524Y-117995238D01*
X80404762Y-117900000D01*
X80547620Y-117852381D01*
X80642858Y-117852381D01*
X80785715Y-117900000D01*
X80833334Y-117947619D01*
X81166667Y-117852381D02*
X81833334Y-117852381D01*
X81404762Y-118852381D01*
X77957143Y-97166666D02*
X78004762Y-97214285D01*
X78052381Y-97357142D01*
X78052381Y-97452380D01*
X78004762Y-97595238D01*
X77909524Y-97690476D01*
X77814286Y-97738095D01*
X77623810Y-97785714D01*
X77480952Y-97785714D01*
X77290476Y-97738095D01*
X77195238Y-97690476D01*
X77100000Y-97595238D01*
X77052381Y-97452380D01*
X77052381Y-97357142D01*
X77100000Y-97214285D01*
X77147619Y-97166666D01*
X77480952Y-96595238D02*
X77433333Y-96690476D01*
X77385714Y-96738095D01*
X77290476Y-96785714D01*
X77242857Y-96785714D01*
X77147619Y-96738095D01*
X77100000Y-96690476D01*
X77052381Y-96595238D01*
X77052381Y-96404761D01*
X77100000Y-96309523D01*
X77147619Y-96261904D01*
X77242857Y-96214285D01*
X77290476Y-96214285D01*
X77385714Y-96261904D01*
X77433333Y-96309523D01*
X77480952Y-96404761D01*
X77480952Y-96595238D01*
X77528571Y-96690476D01*
X77576190Y-96738095D01*
X77671429Y-96785714D01*
X77861905Y-96785714D01*
X77957143Y-96738095D01*
X78004762Y-96690476D01*
X78052381Y-96595238D01*
X78052381Y-96404761D01*
X78004762Y-96309523D01*
X77957143Y-96261904D01*
X77861905Y-96214285D01*
X77671429Y-96214285D01*
X77576190Y-96261904D01*
X77528571Y-96309523D01*
X77480952Y-96404761D01*
X97957143Y-97166666D02*
X98004762Y-97214285D01*
X98052381Y-97357142D01*
X98052381Y-97452380D01*
X98004762Y-97595238D01*
X97909524Y-97690476D01*
X97814286Y-97738095D01*
X97623810Y-97785714D01*
X97480952Y-97785714D01*
X97290476Y-97738095D01*
X97195238Y-97690476D01*
X97100000Y-97595238D01*
X97052381Y-97452380D01*
X97052381Y-97357142D01*
X97100000Y-97214285D01*
X97147619Y-97166666D01*
X98052381Y-96690476D02*
X98052381Y-96500000D01*
X98004762Y-96404761D01*
X97957143Y-96357142D01*
X97814286Y-96261904D01*
X97623810Y-96214285D01*
X97242857Y-96214285D01*
X97147619Y-96261904D01*
X97100000Y-96309523D01*
X97052381Y-96404761D01*
X97052381Y-96595238D01*
X97100000Y-96690476D01*
X97147619Y-96738095D01*
X97242857Y-96785714D01*
X97480952Y-96785714D01*
X97576190Y-96738095D01*
X97623810Y-96690476D01*
X97671429Y-96595238D01*
X97671429Y-96404761D01*
X97623810Y-96309523D01*
X97576190Y-96261904D01*
X97480952Y-96214285D01*
X110833334Y-69352381D02*
X110500000Y-68876190D01*
X110261905Y-69352381D02*
X110261905Y-68352381D01*
X110642858Y-68352381D01*
X110738096Y-68400000D01*
X110785715Y-68447619D01*
X110833334Y-68542857D01*
X110833334Y-68685714D01*
X110785715Y-68780952D01*
X110738096Y-68828571D01*
X110642858Y-68876190D01*
X110261905Y-68876190D01*
X111785715Y-69352381D02*
X111214286Y-69352381D01*
X111500000Y-69352381D02*
X111500000Y-68352381D01*
X111404762Y-68495238D01*
X111309524Y-68590476D01*
X111214286Y-68638095D01*
X110833334Y-78052381D02*
X110500000Y-77576190D01*
X110261905Y-78052381D02*
X110261905Y-77052381D01*
X110642858Y-77052381D01*
X110738096Y-77100000D01*
X110785715Y-77147619D01*
X110833334Y-77242857D01*
X110833334Y-77385714D01*
X110785715Y-77480952D01*
X110738096Y-77528571D01*
X110642858Y-77576190D01*
X110261905Y-77576190D01*
X111214286Y-77147619D02*
X111261905Y-77100000D01*
X111357143Y-77052381D01*
X111595239Y-77052381D01*
X111690477Y-77100000D01*
X111738096Y-77147619D01*
X111785715Y-77242857D01*
X111785715Y-77338095D01*
X111738096Y-77480952D01*
X111166667Y-78052381D01*
X111785715Y-78052381D01*
X90833334Y-78052381D02*
X90500000Y-77576190D01*
X90261905Y-78052381D02*
X90261905Y-77052381D01*
X90642858Y-77052381D01*
X90738096Y-77100000D01*
X90785715Y-77147619D01*
X90833334Y-77242857D01*
X90833334Y-77385714D01*
X90785715Y-77480952D01*
X90738096Y-77528571D01*
X90642858Y-77576190D01*
X90261905Y-77576190D01*
X91166667Y-77052381D02*
X91785715Y-77052381D01*
X91452381Y-77433333D01*
X91595239Y-77433333D01*
X91690477Y-77480952D01*
X91738096Y-77528571D01*
X91785715Y-77623810D01*
X91785715Y-77861905D01*
X91738096Y-77957143D01*
X91690477Y-78004762D01*
X91595239Y-78052381D01*
X91309524Y-78052381D01*
X91214286Y-78004762D01*
X91166667Y-77957143D01*
X88333334Y-87552381D02*
X88000000Y-87076190D01*
X87761905Y-87552381D02*
X87761905Y-86552381D01*
X88142858Y-86552381D01*
X88238096Y-86600000D01*
X88285715Y-86647619D01*
X88333334Y-86742857D01*
X88333334Y-86885714D01*
X88285715Y-86980952D01*
X88238096Y-87028571D01*
X88142858Y-87076190D01*
X87761905Y-87076190D01*
X89190477Y-86885714D02*
X89190477Y-87552381D01*
X88952381Y-86504762D02*
X88714286Y-87219048D01*
X89333334Y-87219048D01*
X90333334Y-88852381D02*
X90000000Y-88376190D01*
X89761905Y-88852381D02*
X89761905Y-87852381D01*
X90142858Y-87852381D01*
X90238096Y-87900000D01*
X90285715Y-87947619D01*
X90333334Y-88042857D01*
X90333334Y-88185714D01*
X90285715Y-88280952D01*
X90238096Y-88328571D01*
X90142858Y-88376190D01*
X89761905Y-88376190D01*
X91238096Y-87852381D02*
X90761905Y-87852381D01*
X90714286Y-88328571D01*
X90761905Y-88280952D01*
X90857143Y-88233333D01*
X91095239Y-88233333D01*
X91190477Y-88280952D01*
X91238096Y-88328571D01*
X91285715Y-88423810D01*
X91285715Y-88661905D01*
X91238096Y-88757143D01*
X91190477Y-88804762D01*
X91095239Y-88852381D01*
X90857143Y-88852381D01*
X90761905Y-88804762D01*
X90714286Y-88757143D01*
X93083334Y-91602381D02*
X92750000Y-91126190D01*
X92511905Y-91602381D02*
X92511905Y-90602381D01*
X92892858Y-90602381D01*
X92988096Y-90650000D01*
X93035715Y-90697619D01*
X93083334Y-90792857D01*
X93083334Y-90935714D01*
X93035715Y-91030952D01*
X92988096Y-91078571D01*
X92892858Y-91126190D01*
X92511905Y-91126190D01*
X93940477Y-90602381D02*
X93750000Y-90602381D01*
X93654762Y-90650000D01*
X93607143Y-90697619D01*
X93511905Y-90840476D01*
X93464286Y-91030952D01*
X93464286Y-91411905D01*
X93511905Y-91507143D01*
X93559524Y-91554762D01*
X93654762Y-91602381D01*
X93845239Y-91602381D01*
X93940477Y-91554762D01*
X93988096Y-91507143D01*
X94035715Y-91411905D01*
X94035715Y-91173810D01*
X93988096Y-91078571D01*
X93940477Y-91030952D01*
X93845239Y-90983333D01*
X93654762Y-90983333D01*
X93559524Y-91030952D01*
X93511905Y-91078571D01*
X93464286Y-91173810D01*
X101333334Y-36952381D02*
X101000000Y-36476190D01*
X100761905Y-36952381D02*
X100761905Y-35952381D01*
X101142858Y-35952381D01*
X101238096Y-36000000D01*
X101285715Y-36047619D01*
X101333334Y-36142857D01*
X101333334Y-36285714D01*
X101285715Y-36380952D01*
X101238096Y-36428571D01*
X101142858Y-36476190D01*
X100761905Y-36476190D01*
X101666667Y-35952381D02*
X102333334Y-35952381D01*
X101904762Y-36952381D01*
X118333334Y-62352381D02*
X118000000Y-61876190D01*
X117761905Y-62352381D02*
X117761905Y-61352381D01*
X118142858Y-61352381D01*
X118238096Y-61400000D01*
X118285715Y-61447619D01*
X118333334Y-61542857D01*
X118333334Y-61685714D01*
X118285715Y-61780952D01*
X118238096Y-61828571D01*
X118142858Y-61876190D01*
X117761905Y-61876190D01*
X118904762Y-61780952D02*
X118809524Y-61733333D01*
X118761905Y-61685714D01*
X118714286Y-61590476D01*
X118714286Y-61542857D01*
X118761905Y-61447619D01*
X118809524Y-61400000D01*
X118904762Y-61352381D01*
X119095239Y-61352381D01*
X119190477Y-61400000D01*
X119238096Y-61447619D01*
X119285715Y-61542857D01*
X119285715Y-61590476D01*
X119238096Y-61685714D01*
X119190477Y-61733333D01*
X119095239Y-61780952D01*
X118904762Y-61780952D01*
X118809524Y-61828571D01*
X118761905Y-61876190D01*
X118714286Y-61971429D01*
X118714286Y-62161905D01*
X118761905Y-62257143D01*
X118809524Y-62304762D01*
X118904762Y-62352381D01*
X119095239Y-62352381D01*
X119190477Y-62304762D01*
X119238096Y-62257143D01*
X119285715Y-62161905D01*
X119285715Y-61971429D01*
X119238096Y-61876190D01*
X119190477Y-61828571D01*
X119095239Y-61780952D01*
X128333334Y-78852381D02*
X128000000Y-78376190D01*
X127761905Y-78852381D02*
X127761905Y-77852381D01*
X128142858Y-77852381D01*
X128238096Y-77900000D01*
X128285715Y-77947619D01*
X128333334Y-78042857D01*
X128333334Y-78185714D01*
X128285715Y-78280952D01*
X128238096Y-78328571D01*
X128142858Y-78376190D01*
X127761905Y-78376190D01*
X128809524Y-78852381D02*
X129000000Y-78852381D01*
X129095239Y-78804762D01*
X129142858Y-78757143D01*
X129238096Y-78614286D01*
X129285715Y-78423810D01*
X129285715Y-78042857D01*
X129238096Y-77947619D01*
X129190477Y-77900000D01*
X129095239Y-77852381D01*
X128904762Y-77852381D01*
X128809524Y-77900000D01*
X128761905Y-77947619D01*
X128714286Y-78042857D01*
X128714286Y-78280952D01*
X128761905Y-78376190D01*
X128809524Y-78423810D01*
X128904762Y-78471429D01*
X129095239Y-78471429D01*
X129190477Y-78423810D01*
X129238096Y-78376190D01*
X129285715Y-78280952D01*
X127857143Y-101052381D02*
X127523809Y-100576190D01*
X127285714Y-101052381D02*
X127285714Y-100052381D01*
X127666667Y-100052381D01*
X127761905Y-100100000D01*
X127809524Y-100147619D01*
X127857143Y-100242857D01*
X127857143Y-100385714D01*
X127809524Y-100480952D01*
X127761905Y-100528571D01*
X127666667Y-100576190D01*
X127285714Y-100576190D01*
X128809524Y-101052381D02*
X128238095Y-101052381D01*
X128523809Y-101052381D02*
X128523809Y-100052381D01*
X128428571Y-100195238D01*
X128333333Y-100290476D01*
X128238095Y-100338095D01*
X129428571Y-100052381D02*
X129523810Y-100052381D01*
X129619048Y-100100000D01*
X129666667Y-100147619D01*
X129714286Y-100242857D01*
X129761905Y-100433333D01*
X129761905Y-100671429D01*
X129714286Y-100861905D01*
X129666667Y-100957143D01*
X129619048Y-101004762D01*
X129523810Y-101052381D01*
X129428571Y-101052381D01*
X129333333Y-101004762D01*
X129285714Y-100957143D01*
X129238095Y-100861905D01*
X129190476Y-100671429D01*
X129190476Y-100433333D01*
X129238095Y-100242857D01*
X129285714Y-100147619D01*
X129333333Y-100100000D01*
X129428571Y-100052381D01*
X110357143Y-111052381D02*
X110023809Y-110576190D01*
X109785714Y-111052381D02*
X109785714Y-110052381D01*
X110166667Y-110052381D01*
X110261905Y-110100000D01*
X110309524Y-110147619D01*
X110357143Y-110242857D01*
X110357143Y-110385714D01*
X110309524Y-110480952D01*
X110261905Y-110528571D01*
X110166667Y-110576190D01*
X109785714Y-110576190D01*
X111309524Y-111052381D02*
X110738095Y-111052381D01*
X111023809Y-111052381D02*
X111023809Y-110052381D01*
X110928571Y-110195238D01*
X110833333Y-110290476D01*
X110738095Y-110338095D01*
X112261905Y-111052381D02*
X111690476Y-111052381D01*
X111976190Y-111052381D02*
X111976190Y-110052381D01*
X111880952Y-110195238D01*
X111785714Y-110290476D01*
X111690476Y-110338095D01*
X110357143Y-103852381D02*
X110023809Y-103376190D01*
X109785714Y-103852381D02*
X109785714Y-102852381D01*
X110166667Y-102852381D01*
X110261905Y-102900000D01*
X110309524Y-102947619D01*
X110357143Y-103042857D01*
X110357143Y-103185714D01*
X110309524Y-103280952D01*
X110261905Y-103328571D01*
X110166667Y-103376190D01*
X109785714Y-103376190D01*
X111309524Y-103852381D02*
X110738095Y-103852381D01*
X111023809Y-103852381D02*
X111023809Y-102852381D01*
X110928571Y-102995238D01*
X110833333Y-103090476D01*
X110738095Y-103138095D01*
X111690476Y-102947619D02*
X111738095Y-102900000D01*
X111833333Y-102852381D01*
X112071429Y-102852381D01*
X112166667Y-102900000D01*
X112214286Y-102947619D01*
X112261905Y-103042857D01*
X112261905Y-103138095D01*
X112214286Y-103280952D01*
X111642857Y-103852381D01*
X112261905Y-103852381D01*
X115607143Y-103852381D02*
X115273809Y-103376190D01*
X115035714Y-103852381D02*
X115035714Y-102852381D01*
X115416667Y-102852381D01*
X115511905Y-102900000D01*
X115559524Y-102947619D01*
X115607143Y-103042857D01*
X115607143Y-103185714D01*
X115559524Y-103280952D01*
X115511905Y-103328571D01*
X115416667Y-103376190D01*
X115035714Y-103376190D01*
X116559524Y-103852381D02*
X115988095Y-103852381D01*
X116273809Y-103852381D02*
X116273809Y-102852381D01*
X116178571Y-102995238D01*
X116083333Y-103090476D01*
X115988095Y-103138095D01*
X116892857Y-102852381D02*
X117511905Y-102852381D01*
X117178571Y-103233333D01*
X117321429Y-103233333D01*
X117416667Y-103280952D01*
X117464286Y-103328571D01*
X117511905Y-103423810D01*
X117511905Y-103661905D01*
X117464286Y-103757143D01*
X117416667Y-103804762D01*
X117321429Y-103852381D01*
X117035714Y-103852381D01*
X116940476Y-103804762D01*
X116892857Y-103757143D01*
X100857143Y-43052381D02*
X100523809Y-42576190D01*
X100285714Y-43052381D02*
X100285714Y-42052381D01*
X100666667Y-42052381D01*
X100761905Y-42100000D01*
X100809524Y-42147619D01*
X100857143Y-42242857D01*
X100857143Y-42385714D01*
X100809524Y-42480952D01*
X100761905Y-42528571D01*
X100666667Y-42576190D01*
X100285714Y-42576190D01*
X101809524Y-43052381D02*
X101238095Y-43052381D01*
X101523809Y-43052381D02*
X101523809Y-42052381D01*
X101428571Y-42195238D01*
X101333333Y-42290476D01*
X101238095Y-42338095D01*
X102666667Y-42385714D02*
X102666667Y-43052381D01*
X102428571Y-42004762D02*
X102190476Y-42719048D01*
X102809524Y-42719048D01*
X79666667Y-67404762D02*
X79809524Y-67452381D01*
X80047620Y-67452381D01*
X80142858Y-67404762D01*
X80190477Y-67357143D01*
X80238096Y-67261905D01*
X80238096Y-67166667D01*
X80190477Y-67071429D01*
X80142858Y-67023810D01*
X80047620Y-66976190D01*
X79857143Y-66928571D01*
X79761905Y-66880952D01*
X79714286Y-66833333D01*
X79666667Y-66738095D01*
X79666667Y-66642857D01*
X79714286Y-66547619D01*
X79761905Y-66500000D01*
X79857143Y-66452381D01*
X80095239Y-66452381D01*
X80238096Y-66500000D01*
X80571429Y-66452381D02*
X80809524Y-67452381D01*
X81000001Y-66738095D01*
X81190477Y-67452381D01*
X81428572Y-66452381D01*
X81761905Y-66547619D02*
X81809524Y-66500000D01*
X81904762Y-66452381D01*
X82142858Y-66452381D01*
X82238096Y-66500000D01*
X82285715Y-66547619D01*
X82333334Y-66642857D01*
X82333334Y-66738095D01*
X82285715Y-66880952D01*
X81714286Y-67452381D01*
X82333334Y-67452381D01*
X79466667Y-87404762D02*
X79609524Y-87452381D01*
X79847620Y-87452381D01*
X79942858Y-87404762D01*
X79990477Y-87357143D01*
X80038096Y-87261905D01*
X80038096Y-87166667D01*
X79990477Y-87071429D01*
X79942858Y-87023810D01*
X79847620Y-86976190D01*
X79657143Y-86928571D01*
X79561905Y-86880952D01*
X79514286Y-86833333D01*
X79466667Y-86738095D01*
X79466667Y-86642857D01*
X79514286Y-86547619D01*
X79561905Y-86500000D01*
X79657143Y-86452381D01*
X79895239Y-86452381D01*
X80038096Y-86500000D01*
X80371429Y-86452381D02*
X80609524Y-87452381D01*
X80800001Y-86738095D01*
X80990477Y-87452381D01*
X81228572Y-86452381D01*
X81514286Y-86452381D02*
X82133334Y-86452381D01*
X81800000Y-86833333D01*
X81942858Y-86833333D01*
X82038096Y-86880952D01*
X82085715Y-86928571D01*
X82133334Y-87023810D01*
X82133334Y-87261905D01*
X82085715Y-87357143D01*
X82038096Y-87404762D01*
X81942858Y-87452381D01*
X81657143Y-87452381D01*
X81561905Y-87404762D01*
X81514286Y-87357143D01*
X79666667Y-107354762D02*
X79809524Y-107402381D01*
X80047620Y-107402381D01*
X80142858Y-107354762D01*
X80190477Y-107307143D01*
X80238096Y-107211905D01*
X80238096Y-107116667D01*
X80190477Y-107021429D01*
X80142858Y-106973810D01*
X80047620Y-106926190D01*
X79857143Y-106878571D01*
X79761905Y-106830952D01*
X79714286Y-106783333D01*
X79666667Y-106688095D01*
X79666667Y-106592857D01*
X79714286Y-106497619D01*
X79761905Y-106450000D01*
X79857143Y-106402381D01*
X80095239Y-106402381D01*
X80238096Y-106450000D01*
X80571429Y-106402381D02*
X80809524Y-107402381D01*
X81000001Y-106688095D01*
X81190477Y-107402381D01*
X81428572Y-106402381D01*
X82285715Y-106402381D02*
X81809524Y-106402381D01*
X81761905Y-106878571D01*
X81809524Y-106830952D01*
X81904762Y-106783333D01*
X82142858Y-106783333D01*
X82238096Y-106830952D01*
X82285715Y-106878571D01*
X82333334Y-106973810D01*
X82333334Y-107211905D01*
X82285715Y-107307143D01*
X82238096Y-107354762D01*
X82142858Y-107402381D01*
X81904762Y-107402381D01*
X81809524Y-107354762D01*
X81761905Y-107307143D01*
X119666667Y-67354762D02*
X119809524Y-67402381D01*
X120047620Y-67402381D01*
X120142858Y-67354762D01*
X120190477Y-67307143D01*
X120238096Y-67211905D01*
X120238096Y-67116667D01*
X120190477Y-67021429D01*
X120142858Y-66973810D01*
X120047620Y-66926190D01*
X119857143Y-66878571D01*
X119761905Y-66830952D01*
X119714286Y-66783333D01*
X119666667Y-66688095D01*
X119666667Y-66592857D01*
X119714286Y-66497619D01*
X119761905Y-66450000D01*
X119857143Y-66402381D01*
X120095239Y-66402381D01*
X120238096Y-66450000D01*
X120571429Y-66402381D02*
X120809524Y-67402381D01*
X121000001Y-66688095D01*
X121190477Y-67402381D01*
X121428572Y-66402381D01*
X122238096Y-66402381D02*
X122047619Y-66402381D01*
X121952381Y-66450000D01*
X121904762Y-66497619D01*
X121809524Y-66640476D01*
X121761905Y-66830952D01*
X121761905Y-67211905D01*
X121809524Y-67307143D01*
X121857143Y-67354762D01*
X121952381Y-67402381D01*
X122142858Y-67402381D01*
X122238096Y-67354762D01*
X122285715Y-67307143D01*
X122333334Y-67211905D01*
X122333334Y-66973810D01*
X122285715Y-66878571D01*
X122238096Y-66830952D01*
X122142858Y-66783333D01*
X121952381Y-66783333D01*
X121857143Y-66830952D01*
X121809524Y-66878571D01*
X121761905Y-66973810D01*
X119666667Y-87354762D02*
X119809524Y-87402381D01*
X120047620Y-87402381D01*
X120142858Y-87354762D01*
X120190477Y-87307143D01*
X120238096Y-87211905D01*
X120238096Y-87116667D01*
X120190477Y-87021429D01*
X120142858Y-86973810D01*
X120047620Y-86926190D01*
X119857143Y-86878571D01*
X119761905Y-86830952D01*
X119714286Y-86783333D01*
X119666667Y-86688095D01*
X119666667Y-86592857D01*
X119714286Y-86497619D01*
X119761905Y-86450000D01*
X119857143Y-86402381D01*
X120095239Y-86402381D01*
X120238096Y-86450000D01*
X120571429Y-86402381D02*
X120809524Y-87402381D01*
X121000001Y-86688095D01*
X121190477Y-87402381D01*
X121428572Y-86402381D01*
X121714286Y-86402381D02*
X122380953Y-86402381D01*
X121952381Y-87402381D01*
X119666667Y-107354762D02*
X119809524Y-107402381D01*
X120047620Y-107402381D01*
X120142858Y-107354762D01*
X120190477Y-107307143D01*
X120238096Y-107211905D01*
X120238096Y-107116667D01*
X120190477Y-107021429D01*
X120142858Y-106973810D01*
X120047620Y-106926190D01*
X119857143Y-106878571D01*
X119761905Y-106830952D01*
X119714286Y-106783333D01*
X119666667Y-106688095D01*
X119666667Y-106592857D01*
X119714286Y-106497619D01*
X119761905Y-106450000D01*
X119857143Y-106402381D01*
X120095239Y-106402381D01*
X120238096Y-106450000D01*
X120571429Y-106402381D02*
X120809524Y-107402381D01*
X121000001Y-106688095D01*
X121190477Y-107402381D01*
X121428572Y-106402381D01*
X121952381Y-106830952D02*
X121857143Y-106783333D01*
X121809524Y-106735714D01*
X121761905Y-106640476D01*
X121761905Y-106592857D01*
X121809524Y-106497619D01*
X121857143Y-106450000D01*
X121952381Y-106402381D01*
X122142858Y-106402381D01*
X122238096Y-106450000D01*
X122285715Y-106497619D01*
X122333334Y-106592857D01*
X122333334Y-106640476D01*
X122285715Y-106735714D01*
X122238096Y-106783333D01*
X122142858Y-106830952D01*
X121952381Y-106830952D01*
X121857143Y-106878571D01*
X121809524Y-106926190D01*
X121761905Y-107021429D01*
X121761905Y-107211905D01*
X121809524Y-107307143D01*
X121857143Y-107354762D01*
X121952381Y-107402381D01*
X122142858Y-107402381D01*
X122238096Y-107354762D01*
X122285715Y-107307143D01*
X122333334Y-107211905D01*
X122333334Y-107021429D01*
X122285715Y-106926190D01*
X122238096Y-106878571D01*
X122142858Y-106830952D01*
X99666667Y-107354762D02*
X99809524Y-107402381D01*
X100047620Y-107402381D01*
X100142858Y-107354762D01*
X100190477Y-107307143D01*
X100238096Y-107211905D01*
X100238096Y-107116667D01*
X100190477Y-107021429D01*
X100142858Y-106973810D01*
X100047620Y-106926190D01*
X99857143Y-106878571D01*
X99761905Y-106830952D01*
X99714286Y-106783333D01*
X99666667Y-106688095D01*
X99666667Y-106592857D01*
X99714286Y-106497619D01*
X99761905Y-106450000D01*
X99857143Y-106402381D01*
X100095239Y-106402381D01*
X100238096Y-106450000D01*
X100571429Y-106402381D02*
X100809524Y-107402381D01*
X101000001Y-106688095D01*
X101190477Y-107402381D01*
X101428572Y-106402381D01*
X101857143Y-107402381D02*
X102047619Y-107402381D01*
X102142858Y-107354762D01*
X102190477Y-107307143D01*
X102285715Y-107164286D01*
X102333334Y-106973810D01*
X102333334Y-106592857D01*
X102285715Y-106497619D01*
X102238096Y-106450000D01*
X102142858Y-106402381D01*
X101952381Y-106402381D01*
X101857143Y-106450000D01*
X101809524Y-106497619D01*
X101761905Y-106592857D01*
X101761905Y-106830952D01*
X101809524Y-106926190D01*
X101857143Y-106973810D01*
X101952381Y-107021429D01*
X102142858Y-107021429D01*
X102238096Y-106973810D01*
X102285715Y-106926190D01*
X102333334Y-106830952D01*
X114690476Y-52854762D02*
X114833333Y-52902381D01*
X115071429Y-52902381D01*
X115166667Y-52854762D01*
X115214286Y-52807143D01*
X115261905Y-52711905D01*
X115261905Y-52616667D01*
X115214286Y-52521429D01*
X115166667Y-52473810D01*
X115071429Y-52426190D01*
X114880952Y-52378571D01*
X114785714Y-52330952D01*
X114738095Y-52283333D01*
X114690476Y-52188095D01*
X114690476Y-52092857D01*
X114738095Y-51997619D01*
X114785714Y-51950000D01*
X114880952Y-51902381D01*
X115119048Y-51902381D01*
X115261905Y-51950000D01*
X115595238Y-51902381D02*
X115833333Y-52902381D01*
X116023810Y-52188095D01*
X116214286Y-52902381D01*
X116452381Y-51902381D01*
X117357143Y-52902381D02*
X116785714Y-52902381D01*
X117071428Y-52902381D02*
X117071428Y-51902381D01*
X116976190Y-52045238D01*
X116880952Y-52140476D01*
X116785714Y-52188095D01*
X117976190Y-51902381D02*
X118071429Y-51902381D01*
X118166667Y-51950000D01*
X118214286Y-51997619D01*
X118261905Y-52092857D01*
X118309524Y-52283333D01*
X118309524Y-52521429D01*
X118261905Y-52711905D01*
X118214286Y-52807143D01*
X118166667Y-52854762D01*
X118071429Y-52902381D01*
X117976190Y-52902381D01*
X117880952Y-52854762D01*
X117833333Y-52807143D01*
X117785714Y-52711905D01*
X117738095Y-52521429D01*
X117738095Y-52283333D01*
X117785714Y-52092857D01*
X117833333Y-51997619D01*
X117880952Y-51950000D01*
X117976190Y-51902381D01*
X79638095Y-79752381D02*
X79638095Y-80561905D01*
X79685714Y-80657143D01*
X79733333Y-80704762D01*
X79828571Y-80752381D01*
X80019048Y-80752381D01*
X80114286Y-80704762D01*
X80161905Y-80657143D01*
X80209524Y-80561905D01*
X80209524Y-79752381D01*
X81209524Y-80752381D02*
X80638095Y-80752381D01*
X80923809Y-80752381D02*
X80923809Y-79752381D01*
X80828571Y-79895238D01*
X80733333Y-79990476D01*
X80638095Y-80038095D01*
X99638095Y-79752381D02*
X99638095Y-80561905D01*
X99685714Y-80657143D01*
X99733333Y-80704762D01*
X99828571Y-80752381D01*
X100019048Y-80752381D01*
X100114286Y-80704762D01*
X100161905Y-80657143D01*
X100209524Y-80561905D01*
X100209524Y-79752381D01*
X100638095Y-79847619D02*
X100685714Y-79800000D01*
X100780952Y-79752381D01*
X101019048Y-79752381D01*
X101114286Y-79800000D01*
X101161905Y-79847619D01*
X101209524Y-79942857D01*
X101209524Y-80038095D01*
X101161905Y-80180952D01*
X100590476Y-80752381D01*
X101209524Y-80752381D01*
X119638095Y-79752381D02*
X119638095Y-80561905D01*
X119685714Y-80657143D01*
X119733333Y-80704762D01*
X119828571Y-80752381D01*
X120019048Y-80752381D01*
X120114286Y-80704762D01*
X120161905Y-80657143D01*
X120209524Y-80561905D01*
X120209524Y-79752381D01*
X120590476Y-79752381D02*
X121209524Y-79752381D01*
X120876190Y-80133333D01*
X121019048Y-80133333D01*
X121114286Y-80180952D01*
X121161905Y-80228571D01*
X121209524Y-80323810D01*
X121209524Y-80561905D01*
X121161905Y-80657143D01*
X121114286Y-80704762D01*
X121019048Y-80752381D01*
X120733333Y-80752381D01*
X120638095Y-80704762D01*
X120590476Y-80657143D01*
X119638095Y-99752381D02*
X119638095Y-100561905D01*
X119685714Y-100657143D01*
X119733333Y-100704762D01*
X119828571Y-100752381D01*
X120019048Y-100752381D01*
X120114286Y-100704762D01*
X120161905Y-100657143D01*
X120209524Y-100561905D01*
X120209524Y-99752381D01*
X121114286Y-100085714D02*
X121114286Y-100752381D01*
X120876190Y-99704762D02*
X120638095Y-100419048D01*
X121257143Y-100419048D01*
X119638095Y-119752381D02*
X119638095Y-120561905D01*
X119685714Y-120657143D01*
X119733333Y-120704762D01*
X119828571Y-120752381D01*
X120019048Y-120752381D01*
X120114286Y-120704762D01*
X120161905Y-120657143D01*
X120209524Y-120561905D01*
X120209524Y-119752381D01*
X121161905Y-119752381D02*
X120685714Y-119752381D01*
X120638095Y-120228571D01*
X120685714Y-120180952D01*
X120780952Y-120133333D01*
X121019048Y-120133333D01*
X121114286Y-120180952D01*
X121161905Y-120228571D01*
X121209524Y-120323810D01*
X121209524Y-120561905D01*
X121161905Y-120657143D01*
X121114286Y-120704762D01*
X121019048Y-120752381D01*
X120780952Y-120752381D01*
X120685714Y-120704762D01*
X120638095Y-120657143D01*
X99638095Y-119752381D02*
X99638095Y-120561905D01*
X99685714Y-120657143D01*
X99733333Y-120704762D01*
X99828571Y-120752381D01*
X100019048Y-120752381D01*
X100114286Y-120704762D01*
X100161905Y-120657143D01*
X100209524Y-120561905D01*
X100209524Y-119752381D01*
X100590476Y-119752381D02*
X101257143Y-119752381D01*
X100828571Y-120752381D01*
X79638095Y-119752381D02*
X79638095Y-120561905D01*
X79685714Y-120657143D01*
X79733333Y-120704762D01*
X79828571Y-120752381D01*
X80019048Y-120752381D01*
X80114286Y-120704762D01*
X80161905Y-120657143D01*
X80209524Y-120561905D01*
X80209524Y-119752381D01*
X80828571Y-120180952D02*
X80733333Y-120133333D01*
X80685714Y-120085714D01*
X80638095Y-119990476D01*
X80638095Y-119942857D01*
X80685714Y-119847619D01*
X80733333Y-119800000D01*
X80828571Y-119752381D01*
X81019048Y-119752381D01*
X81114286Y-119800000D01*
X81161905Y-119847619D01*
X81209524Y-119942857D01*
X81209524Y-119990476D01*
X81161905Y-120085714D01*
X81114286Y-120133333D01*
X81019048Y-120180952D01*
X80828571Y-120180952D01*
X80733333Y-120228571D01*
X80685714Y-120276190D01*
X80638095Y-120371429D01*
X80638095Y-120561905D01*
X80685714Y-120657143D01*
X80733333Y-120704762D01*
X80828571Y-120752381D01*
X81019048Y-120752381D01*
X81114286Y-120704762D01*
X81161905Y-120657143D01*
X81209524Y-120561905D01*
X81209524Y-120371429D01*
X81161905Y-120276190D01*
X81114286Y-120228571D01*
X81019048Y-120180952D01*
X79638095Y-99752381D02*
X79638095Y-100561905D01*
X79685714Y-100657143D01*
X79733333Y-100704762D01*
X79828571Y-100752381D01*
X80019048Y-100752381D01*
X80114286Y-100704762D01*
X80161905Y-100657143D01*
X80209524Y-100561905D01*
X80209524Y-99752381D01*
X80733333Y-100752381D02*
X80923809Y-100752381D01*
X81019048Y-100704762D01*
X81066667Y-100657143D01*
X81161905Y-100514286D01*
X81209524Y-100323810D01*
X81209524Y-99942857D01*
X81161905Y-99847619D01*
X81114286Y-99800000D01*
X81019048Y-99752381D01*
X80828571Y-99752381D01*
X80733333Y-99800000D01*
X80685714Y-99847619D01*
X80638095Y-99942857D01*
X80638095Y-100180952D01*
X80685714Y-100276190D01*
X80733333Y-100323810D01*
X80828571Y-100371429D01*
X81019048Y-100371429D01*
X81114286Y-100323810D01*
X81161905Y-100276190D01*
X81209524Y-100180952D01*
X99161905Y-99752381D02*
X99161905Y-100561905D01*
X99209524Y-100657143D01*
X99257143Y-100704762D01*
X99352381Y-100752381D01*
X99542858Y-100752381D01*
X99638096Y-100704762D01*
X99685715Y-100657143D01*
X99733334Y-100561905D01*
X99733334Y-99752381D01*
X100733334Y-100752381D02*
X100161905Y-100752381D01*
X100447619Y-100752381D02*
X100447619Y-99752381D01*
X100352381Y-99895238D01*
X100257143Y-99990476D01*
X100161905Y-100038095D01*
X101352381Y-99752381D02*
X101447620Y-99752381D01*
X101542858Y-99800000D01*
X101590477Y-99847619D01*
X101638096Y-99942857D01*
X101685715Y-100133333D01*
X101685715Y-100371429D01*
X101638096Y-100561905D01*
X101590477Y-100657143D01*
X101542858Y-100704762D01*
X101447620Y-100752381D01*
X101352381Y-100752381D01*
X101257143Y-100704762D01*
X101209524Y-100657143D01*
X101161905Y-100561905D01*
X101114286Y-100371429D01*
X101114286Y-100133333D01*
X101161905Y-99942857D01*
X101209524Y-99847619D01*
X101257143Y-99800000D01*
X101352381Y-99752381D01*
X81531905Y-30507381D02*
X81531905Y-31316905D01*
X81579524Y-31412143D01*
X81627143Y-31459762D01*
X81722381Y-31507381D01*
X81912858Y-31507381D01*
X82008096Y-31459762D01*
X82055715Y-31412143D01*
X82103334Y-31316905D01*
X82103334Y-30507381D01*
X83103334Y-31507381D02*
X82531905Y-31507381D01*
X82817619Y-31507381D02*
X82817619Y-30507381D01*
X82722381Y-30650238D01*
X82627143Y-30745476D01*
X82531905Y-30793095D01*
X83484286Y-30602619D02*
X83531905Y-30555000D01*
X83627143Y-30507381D01*
X83865239Y-30507381D01*
X83960477Y-30555000D01*
X84008096Y-30602619D01*
X84055715Y-30697857D01*
X84055715Y-30793095D01*
X84008096Y-30935952D01*
X83436667Y-31507381D01*
X84055715Y-31507381D01*
X109151905Y-33372381D02*
X109151905Y-34181905D01*
X109199524Y-34277143D01*
X109247143Y-34324762D01*
X109342381Y-34372381D01*
X109532858Y-34372381D01*
X109628096Y-34324762D01*
X109675715Y-34277143D01*
X109723334Y-34181905D01*
X109723334Y-33372381D01*
X110723334Y-34372381D02*
X110151905Y-34372381D01*
X110437619Y-34372381D02*
X110437619Y-33372381D01*
X110342381Y-33515238D01*
X110247143Y-33610476D01*
X110151905Y-33658095D01*
X111056667Y-33372381D02*
X111675715Y-33372381D01*
X111342381Y-33753333D01*
X111485239Y-33753333D01*
X111580477Y-33800952D01*
X111628096Y-33848571D01*
X111675715Y-33943810D01*
X111675715Y-34181905D01*
X111628096Y-34277143D01*
X111580477Y-34324762D01*
X111485239Y-34372381D01*
X111199524Y-34372381D01*
X111104286Y-34324762D01*
X111056667Y-34277143D01*
X103174762Y-30030476D02*
X103222381Y-29887619D01*
X103222381Y-29649523D01*
X103174762Y-29554285D01*
X103127143Y-29506666D01*
X103031905Y-29459047D01*
X102936667Y-29459047D01*
X102841429Y-29506666D01*
X102793810Y-29554285D01*
X102746190Y-29649523D01*
X102698571Y-29840000D01*
X102650952Y-29935238D01*
X102603333Y-29982857D01*
X102508095Y-30030476D01*
X102412857Y-30030476D01*
X102317619Y-29982857D01*
X102270000Y-29935238D01*
X102222381Y-29840000D01*
X102222381Y-29601904D01*
X102270000Y-29459047D01*
X103127143Y-28459047D02*
X103174762Y-28506666D01*
X103222381Y-28649523D01*
X103222381Y-28744761D01*
X103174762Y-28887619D01*
X103079524Y-28982857D01*
X102984286Y-29030476D01*
X102793810Y-29078095D01*
X102650952Y-29078095D01*
X102460476Y-29030476D01*
X102365238Y-28982857D01*
X102270000Y-28887619D01*
X102222381Y-28744761D01*
X102222381Y-28649523D01*
X102270000Y-28506666D01*
X102317619Y-28459047D01*
X103222381Y-27554285D02*
X103222381Y-28030476D01*
X102222381Y-28030476D01*
X105714762Y-30054286D02*
X105762381Y-29911429D01*
X105762381Y-29673333D01*
X105714762Y-29578095D01*
X105667143Y-29530476D01*
X105571905Y-29482857D01*
X105476667Y-29482857D01*
X105381429Y-29530476D01*
X105333810Y-29578095D01*
X105286190Y-29673333D01*
X105238571Y-29863810D01*
X105190952Y-29959048D01*
X105143333Y-30006667D01*
X105048095Y-30054286D01*
X104952857Y-30054286D01*
X104857619Y-30006667D01*
X104810000Y-29959048D01*
X104762381Y-29863810D01*
X104762381Y-29625714D01*
X104810000Y-29482857D01*
X105762381Y-29054286D02*
X104762381Y-29054286D01*
X104762381Y-28816191D01*
X104810000Y-28673333D01*
X104905238Y-28578095D01*
X105000476Y-28530476D01*
X105190952Y-28482857D01*
X105333810Y-28482857D01*
X105524286Y-28530476D01*
X105619524Y-28578095D01*
X105714762Y-28673333D01*
X105762381Y-28816191D01*
X105762381Y-29054286D01*
X105476667Y-28101905D02*
X105476667Y-27625714D01*
X105762381Y-28197143D02*
X104762381Y-27863810D01*
X105762381Y-27530476D01*
X99682381Y-30173333D02*
X100682381Y-29840000D01*
X99682381Y-29506666D01*
X100587143Y-28601904D02*
X100634762Y-28649523D01*
X100682381Y-28792380D01*
X100682381Y-28887618D01*
X100634762Y-29030476D01*
X100539524Y-29125714D01*
X100444286Y-29173333D01*
X100253810Y-29220952D01*
X100110952Y-29220952D01*
X99920476Y-29173333D01*
X99825238Y-29125714D01*
X99730000Y-29030476D01*
X99682381Y-28887618D01*
X99682381Y-28792380D01*
X99730000Y-28649523D01*
X99777619Y-28601904D01*
X100587143Y-27601904D02*
X100634762Y-27649523D01*
X100682381Y-27792380D01*
X100682381Y-27887618D01*
X100634762Y-28030476D01*
X100539524Y-28125714D01*
X100444286Y-28173333D01*
X100253810Y-28220952D01*
X100110952Y-28220952D01*
X99920476Y-28173333D01*
X99825238Y-28125714D01*
X99730000Y-28030476D01*
X99682381Y-27887618D01*
X99682381Y-27792380D01*
X99730000Y-27649523D01*
X99777619Y-27601904D01*
X97190000Y-29601904D02*
X97142381Y-29697142D01*
X97142381Y-29839999D01*
X97190000Y-29982857D01*
X97285238Y-30078095D01*
X97380476Y-30125714D01*
X97570952Y-30173333D01*
X97713810Y-30173333D01*
X97904286Y-30125714D01*
X97999524Y-30078095D01*
X98094762Y-29982857D01*
X98142381Y-29839999D01*
X98142381Y-29744761D01*
X98094762Y-29601904D01*
X98047143Y-29554285D01*
X97713810Y-29554285D01*
X97713810Y-29744761D01*
X98142381Y-29125714D02*
X97142381Y-29125714D01*
X98142381Y-28554285D01*
X97142381Y-28554285D01*
X98142381Y-28078095D02*
X97142381Y-28078095D01*
X97142381Y-27840000D01*
X97190000Y-27697142D01*
X97285238Y-27601904D01*
X97380476Y-27554285D01*
X97570952Y-27506666D01*
X97713810Y-27506666D01*
X97904286Y-27554285D01*
X97999524Y-27601904D01*
X98094762Y-27697142D01*
X98142381Y-27840000D01*
X98142381Y-28078095D01*
X140590476Y-126404762D02*
X140733333Y-126452381D01*
X140971429Y-126452381D01*
X141066667Y-126404762D01*
X141114286Y-126357143D01*
X141161905Y-126261905D01*
X141161905Y-126166667D01*
X141114286Y-126071429D01*
X141066667Y-126023810D01*
X140971429Y-125976190D01*
X140780952Y-125928571D01*
X140685714Y-125880952D01*
X140638095Y-125833333D01*
X140590476Y-125738095D01*
X140590476Y-125642857D01*
X140638095Y-125547619D01*
X140685714Y-125500000D01*
X140780952Y-125452381D01*
X141019048Y-125452381D01*
X141161905Y-125500000D01*
X141495238Y-125452381D02*
X141733333Y-126452381D01*
X141923810Y-125738095D01*
X142114286Y-126452381D01*
X142352381Y-125452381D01*
X143257143Y-126452381D02*
X142685714Y-126452381D01*
X142971428Y-126452381D02*
X142971428Y-125452381D01*
X142876190Y-125595238D01*
X142780952Y-125690476D01*
X142685714Y-125738095D01*
X143638095Y-125547619D02*
X143685714Y-125500000D01*
X143780952Y-125452381D01*
X144019048Y-125452381D01*
X144114286Y-125500000D01*
X144161905Y-125547619D01*
X144209524Y-125642857D01*
X144209524Y-125738095D01*
X144161905Y-125880952D01*
X143590476Y-126452381D01*
X144209524Y-126452381D01*
X84690476Y-52854762D02*
X84833333Y-52902381D01*
X85071429Y-52902381D01*
X85166667Y-52854762D01*
X85214286Y-52807143D01*
X85261905Y-52711905D01*
X85261905Y-52616667D01*
X85214286Y-52521429D01*
X85166667Y-52473810D01*
X85071429Y-52426190D01*
X84880952Y-52378571D01*
X84785714Y-52330952D01*
X84738095Y-52283333D01*
X84690476Y-52188095D01*
X84690476Y-52092857D01*
X84738095Y-51997619D01*
X84785714Y-51950000D01*
X84880952Y-51902381D01*
X85119048Y-51902381D01*
X85261905Y-51950000D01*
X85595238Y-51902381D02*
X85833333Y-52902381D01*
X86023810Y-52188095D01*
X86214286Y-52902381D01*
X86452381Y-51902381D01*
X87357143Y-52902381D02*
X86785714Y-52902381D01*
X87071428Y-52902381D02*
X87071428Y-51902381D01*
X86976190Y-52045238D01*
X86880952Y-52140476D01*
X86785714Y-52188095D01*
X88309524Y-52902381D02*
X87738095Y-52902381D01*
X88023809Y-52902381D02*
X88023809Y-51902381D01*
X87928571Y-52045238D01*
X87833333Y-52140476D01*
X87738095Y-52188095D01*
%LPC*%
D18*
X104975000Y-68750000D03*
X104975000Y-73250000D03*
X97025000Y-73250000D03*
X97025000Y-68750000D03*
X97025000Y-93250000D03*
X97025000Y-88750000D03*
X104975000Y-88750000D03*
X104975000Y-93250000D03*
D19*
X56500000Y-116000000D03*
X94500000Y-116000000D03*
D20*
X56500000Y-124200000D03*
X127299840Y-33500000D03*
X119700160Y-33500000D03*
D21*
X79750000Y-80600000D03*
X82250000Y-80600000D03*
X99750000Y-80600000D03*
X102250000Y-80600000D03*
X119750000Y-80600000D03*
X122250000Y-80600000D03*
D22*
X115500000Y-95750000D03*
X115500000Y-98250000D03*
D21*
X119750000Y-120600000D03*
X122250000Y-120600000D03*
D22*
X95800000Y-119750000D03*
X95800000Y-122250000D03*
D21*
X79750000Y-120500000D03*
X82250000Y-120500000D03*
D22*
X75500000Y-95750000D03*
X75500000Y-98250000D03*
X95500000Y-95750000D03*
X95500000Y-98250000D03*
D23*
X83500000Y-47000000D03*
D24*
X81000000Y-47000000D03*
X78500000Y-47000000D03*
X76000000Y-47000000D03*
X73500000Y-47000000D03*
D23*
X128500000Y-47000000D03*
D24*
X126000000Y-47000000D03*
X123500000Y-47000000D03*
X121000000Y-47000000D03*
X118500000Y-47000000D03*
D25*
X109650000Y-71000000D03*
X112350000Y-71000000D03*
X112350000Y-75500000D03*
X109650000Y-75500000D03*
X92350000Y-75500000D03*
X89650000Y-75500000D03*
X89850000Y-85000000D03*
X87150000Y-85000000D03*
X89150000Y-90500000D03*
X91850000Y-90500000D03*
X91900000Y-93250000D03*
X94600000Y-93250000D03*
X102850000Y-38250000D03*
X100150000Y-38250000D03*
X117150000Y-64000000D03*
X119850000Y-64000000D03*
X127150000Y-80500000D03*
X129850000Y-80500000D03*
X129850000Y-98500000D03*
X127150000Y-98500000D03*
X112350000Y-108500000D03*
X109650000Y-108500000D03*
X109650000Y-105500000D03*
X112350000Y-105500000D03*
X114900000Y-105500000D03*
X117600000Y-105500000D03*
X102850000Y-40500000D03*
X100150000Y-40500000D03*
D18*
X84975000Y-68750000D03*
X84975000Y-73250000D03*
X77025000Y-73250000D03*
X77025000Y-68750000D03*
X84975000Y-88750000D03*
X84975000Y-93250000D03*
X77025000Y-93250000D03*
X77025000Y-88750000D03*
X77025000Y-113250000D03*
X77025000Y-108750000D03*
X84975000Y-108750000D03*
X84975000Y-113250000D03*
X117025000Y-73250000D03*
X117025000Y-68750000D03*
X124975000Y-68750000D03*
X124975000Y-73250000D03*
X117025000Y-93250000D03*
X117025000Y-88750000D03*
X124975000Y-88750000D03*
X124975000Y-93250000D03*
X117025000Y-113250000D03*
X117025000Y-108750000D03*
X124975000Y-108750000D03*
X124975000Y-113250000D03*
X97025000Y-113250000D03*
X97025000Y-108750000D03*
X104975000Y-108750000D03*
X104975000Y-113250000D03*
X112525000Y-58750000D03*
X112525000Y-54250000D03*
X120475000Y-54250000D03*
X120475000Y-58750000D03*
D26*
X78550000Y-75350000D03*
X78550000Y-78650000D03*
X83450000Y-78650000D03*
X83450000Y-75350000D03*
X98550000Y-75350000D03*
X98550000Y-78650000D03*
X103450000Y-78650000D03*
X103450000Y-75350000D03*
X118550000Y-75350000D03*
X118550000Y-78650000D03*
X123450000Y-78650000D03*
X123450000Y-75350000D03*
X118550000Y-95350000D03*
X118550000Y-98650000D03*
X123450000Y-98650000D03*
X123450000Y-95350000D03*
X118550000Y-115350000D03*
X118550000Y-118650000D03*
X123450000Y-118650000D03*
X123450000Y-115350000D03*
D27*
X109120000Y-30220000D03*
X109120000Y-32760000D03*
X109120000Y-35300000D03*
X109120000Y-37840000D03*
X109120000Y-40380000D03*
X109120000Y-42920000D03*
X109120000Y-45460000D03*
X109120000Y-48000000D03*
X109120000Y-50540000D03*
X109120000Y-53080000D03*
X109120000Y-55620000D03*
X109120000Y-58160000D03*
X109120000Y-60700000D03*
X109120000Y-63240000D03*
X109120000Y-65780000D03*
X93880000Y-65780000D03*
X93880000Y-63240000D03*
X93880000Y-60700000D03*
X93880000Y-58160000D03*
X93880000Y-55620000D03*
X93880000Y-53080000D03*
X93880000Y-50540000D03*
X93880000Y-48000000D03*
X93880000Y-45460000D03*
X93880000Y-42920000D03*
X93880000Y-40380000D03*
X93880000Y-37840000D03*
X93880000Y-35300000D03*
X93880000Y-32760000D03*
X93880000Y-30220000D03*
D26*
X98550000Y-115350000D03*
X98550000Y-118650000D03*
X103450000Y-118650000D03*
X103450000Y-115350000D03*
X78550000Y-115350000D03*
X78550000Y-118650000D03*
X83450000Y-118650000D03*
X83450000Y-115350000D03*
X78550000Y-95350000D03*
X78550000Y-98650000D03*
X83450000Y-98650000D03*
X83450000Y-95350000D03*
X98550000Y-95350000D03*
X98550000Y-98650000D03*
X103450000Y-98650000D03*
X103450000Y-95350000D03*
D28*
X86580000Y-40580000D03*
X86580000Y-39310000D03*
X86580000Y-38040000D03*
X86580000Y-36770000D03*
X86580000Y-35500000D03*
X86580000Y-34230000D03*
X86580000Y-32960000D03*
X86580000Y-31690000D03*
X86580000Y-30420000D03*
X76420000Y-30420000D03*
X76420000Y-31690000D03*
X76420000Y-32960000D03*
X76420000Y-34230000D03*
X76420000Y-35500000D03*
X76420000Y-36770000D03*
X76420000Y-38040000D03*
X76420000Y-39310000D03*
X76420000Y-40580000D03*
D29*
X97690000Y-26300000D03*
X100230000Y-26300000D03*
X102770000Y-26300000D03*
X105310000Y-26300000D03*
D19*
X107500000Y-116000000D03*
X145500000Y-116000000D03*
D20*
X107500000Y-124200000D03*
D30*
X139300000Y-118000000D03*
X139300000Y-120500000D03*
X139300000Y-123000000D03*
X145700000Y-118000000D03*
X145700000Y-120500000D03*
X145700000Y-123000000D03*
D31*
X113200000Y-43200000D03*
D32*
X113200000Y-45740000D03*
X113200000Y-48280000D03*
X113200000Y-50820000D03*
D18*
X82525000Y-58750000D03*
X82525000Y-54250000D03*
X90475000Y-54250000D03*
X90475000Y-58750000D03*
M02*
