999
dxfrw 0.6.3
  0
SECTION
  2
HEADER
  9
$ACADVER
  1
AC1021
  9
$DWGCODEPAGE
  3
ANSI_1252
  9
$INSBASE
 10
0
 20
0
 30
0
  9
$EXTMIN
 10
10000000000
 20
10000000000
 30
0
  9
$EXTMAX
 10
-10000000000
 20
-10000000000
 30
0
  9
$LIMMIN
 10
0
 20
0
  9
$LIMMAX
 10
420
 20
297
  9
$ORTHOMODE
 70
    0
  9
$REGENMODE
 70
    1
  9
$FILLMODE
 70
    1
  9
$QTEXTMODE
 70
    0
  9
$MIRRTEXT
 70
    0
  9
$LTSCALE
 40
1
  9
$ATTMODE
 70
    0
  9
$TEXTSIZE
 40
2.5
  9
$TRACEWID
 40
15.68
  9
$TEXTSTYLE
  7
STANDARD
  9
$CLAYER
  8
0
  9
$CELTYPE
  6
BYLAYER
  9
$CECOLOR
 62
  256
  9
$CELTSCALE
 40
1
  9
$DISPSILH
 70
    0
  9
$DIMSCALE
 40
2.5
  9
$DIMASZ
 40
2.5
  9
$DIMEXO
 40
0.625
  9
$DIMDLI
 40
3.75
  9
$DIMRND
 40
0
  9
$DIMDLE
 40
0
  9
$DIMEXE
 40
1.25
  9
$DIMTP
 40
0
  9
$DIMTM
 40
0
  9
$DIMTXT
 40
2.5
  9
$DIMCEN
 40
2.5
  9
$DIMTSZ
 40
0
  9
$DIMTOL
 70
    0
  9
$DIMLIM
 70
    0
  9
$DIMTIH
 70
    0
  9
$DIMTOH
 70
    0
  9
$DIMSE1
 70
    0
  9
$DIMSE2
 70
    0
  9
$DIMTAD
 70
    1
  9
$DIMZIN
 70
    8
  9
$DIMBLK
  1

  9
$DIMASO
 70
    1
  9
$DIMSHO
 70
    1
  9
$DIMPOST
  1

  9
$DIMAPOST
  1

  9
$DIMALT
 70
    0
  9
$DIMALTD
 70
    3
  9
$DIMALTF
 40
0.03937
  9
$DIMLFAC
 40
1
  9
$DIMTOFL
 70
    1
  9
$DIMTVP
 40
0
  9
$DIMTIX
 70
    0
  9
$DIMSOXD
 70
    0
  9
$DIMSAH
 70
    0
  9
$DIMBLK1
  1

  9
$DIMBLK2
  1

  9
$DIMSTYLE
  2
STANDARD
  9
$DIMCLRD
 70
    0
  9
$DIMCLRE
 70
    0
  9
$DIMCLRT
 70
    0
  9
$DIMTFAC
 40
1
  9
$DIMGAP
 40
0.625
  9
$DIMJUST
 70
    0
  9
$DIMSD1
 70
    0
  9
$DIMSD2
 70
    0
  9
$DIMTOLJ
 70
    0
  9
$DIMTZIN
 70
    8
  9
$DIMALTZ
 70
    0
  9
$DIMALTTZ
 70
    0
  9
$DIMUPT
 70
    0
  9
$DIMDEC
 70
    2
  9
$DIMTDEC
 70
    2
  9
$DIMALTU
 70
    2
  9
$DIMALTTD
 70
    3
  9
$DIMTXSTY
  7
STANDARD
  9
$DIMAUNIT
 70
    0
  9
$DIMADEC
 70
    0
  9
$DIMALTRND
 40
0
  9
$DIMAZIN
 70
    0
  9
$DIMDSEP
 70
   44
  9
$DIMATFIT
 70
    3
  9
$DIMFRAC
 70
    0
  9
$DIMLDRBLK
  1
STANDARD
  9
$DIMLUNIT
 70
    2
  9
$DIMLWD
 70
   -2
  9
$DIMLWE
 70
   -2
  9
$DIMTMOVE
 70
    0
  9
$DIMFXL
 40
1
  9
$DIMFXLON
 70
    0
  9
$DIMJOGANG
 40
0.7854
  9
$DIMTFILL
 70
    0
  9
$DIMTFILLCLR
 70
    0
  9
$DIMARCSYM
 70
    0
  9
$DIMLTYPE
  6

  9
$DIMLTEX1
  6

  9
$DIMLTEX2
  6

  9
$LUNITS
 70
    2
  9
$LUPREC
 70
    4
  9
$SKETCHINC
 40
1
  9
$FILLETRAD
 40
0
  9
$AUNITS
 70
    0
  9
$AUPREC
 70
    2
  9
$MENU
  1
.
  9
$ELEVATION
 40
0
  9
$PELEVATION
 40
0
  9
$THICKNESS
 40
0
  9
$LIMCHECK
 70
    0
  9
$CHAMFERA
 40
0
  9
$CHAMFERB
 40
0
  9
$CHAMFERC
 40
0
  9
$CHAMFERD
 40
0
  9
$SKPOLY
 70
    0
  9
$USRTIMER
 70
    1
  9
$ANGBASE
 50
0
  9
$ANGDIR
 70
    0
  9
$PDMODE
 70
   34
  9
$PDSIZE
 40
0
  9
$PLINEWID
 40
0
  9
$SPLFRAME
 70
    0
  9
$SPLINETYPE
 70
    2
  9
$SPLINESEGS
 70
    8
  9
$HANDSEED
  5
20000
  9
$SURFTAB1
 70
    6
  9
$SURFTAB2
 70
    6
  9
$SURFTYPE
 70
    6
  9
$SURFU
 70
    6
  9
$SURFV
 70
    6
  9
$UCSBASE
  2

  9
$UCSNAME
  2

  9
$UCSORG
 10
0
 20
0
 30
0
  9
$UCSXDIR
 10
1
 20
0
 30
0
  9
$UCSYDIR
 10
0
 20
1
 30
0
  9
$UCSORTHOREF
  2

  9
$UCSORTHOVIEW
 70
    0
  9
$UCSORGTOP
 10
0
 20
0
 30
0
  9
$UCSORGBOTTOM
 10
0
 20
0
 30
0
  9
$UCSORGLEFT
 10
0
 20
0
 30
0
  9
$UCSORGRIGHT
 10
0
 20
0
 30
0
  9
$UCSORGFRONT
 10
0
 20
0
 30
0
  9
$UCSORGBACK
 10
0
 20
0
 30
0
  9
$PUCSBASE
  2

  9
$PUCSNAME
  2

  9
$PUCSORG
 10
0
 20
0
 30
0
  9
$PUCSXDIR
 10
1
 20
0
 30
0
  9
$PUCSYDIR
 10
0
 20
1
 30
0
  9
$PUCSORTHOREF
  2

  9
$PUCSORTHOVIEW
 70
    0
  9
$PUCSORGTOP
 10
0
 20
0
 30
0
  9
$PUCSORGBOTTOM
 10
0
 20
0
 30
0
  9
$PUCSORGLEFT
 10
0
 20
0
 30
0
  9
$PUCSORGRIGHT
 10
0
 20
0
 30
0
  9
$PUCSORGFRONT
 10
0
 20
0
 30
0
  9
$PUCSORGBACK
 10
0
 20
0
 30
0
  9
$USERI1
 70
    0
  9
$USERI2
 70
    0
  9
$USERI3
 70
    0
  9
$USERI4
 70
    0
  9
$USERI5
 70
    0
  9
$USERR1
 40
0
  9
$USERR2
 40
0
  9
$USERR3
 40
0
  9
$USERR4
 40
0
  9
$USERR5
 40
0
  9
$WORLDVIEW
 70
    1
  9
$SHADEDGE
 70
    3
  9
$SHADEDIF
 70
   70
  9
$TILEMODE
 70
    1
  9
$MAXACTVP
 70
   64
  9
$PINSBASE
 10
0
 20
0
 30
0
  9
$PLIMCHECK
 70
    0
  9
$PEXTMIN
 10
0
 20
0
 30
0
  9
$PEXTMAX
 10
0
 20
0
 30
0
  9
$SNAPSTYLE
 70
    0
  9
$PLIMMIN
 10
0
 20
0
  9
$PLIMMAX
 10
210
 20
297
  9
$UNITMODE
 70
    0
  9
$VISRETAIN
 70
    1
  9
$PLINEGEN
 70
    0
  9
$PSLTSCALE
 70
    1
  9
$TREEDEPTH
 70
 3020
  9
$CMLSTYLE
  2
Standard
  9
$CMLJUST
 70
    0
  9
$CMLSCALE
 40
20
  9
$PROXYGRAPHICS
 70
    1
  9
$MEASUREMENT
 70
    1
  9
$CELWEIGHT
370
   -1
  9
$ENDCAPS
280
    0
  9
$JOINSTYLE
280
    0
  9
$LWDISPLAY
290
    0
  9
$INSUNITS
 70
    0
  9
$HYPERLINKBASE
  1

  9
$STYLESHEET
  1

  9
$XEDIT
290
    1
  9
$CEPSNTYPE
380
    0
  9
$PSTYLEMODE
290
    1
  9
$EXTNAMES
290
    1
  9
$PSVPSCALE
 40
1
  9
$OLESTARTUP
290
    0
  9
$SORTENTS
280
  127
  9
$INDEXCTL
280
    0
  9
$HIDETEXT
280
    1
  9
$XCLIPFRAME
290
    0
  9
$HALOGAP
280
    0
  9
$OBSCOLOR
 70
  257
  9
$OBSLTYPE
280
    0
  9
$INTERSECTIONDISPLAY
280
    0
  9
$INTERSECTIONCOLOR
 70
  257
  9
$DIMASSOC
280
    1
  9
$PROJECTNAME
  1

  9
$CAMERADISPLAY
290
    0
  9
$LENSLENGTH
 40
50
  9
$CAMERAHEIGHT
 40
0
  9
$STEPSPERSEC
 40
2
  9
$STEPSIZE
 40
50
  9
$3DDWFPREC
 40
2
  9
$PSOLWIDTH
 40
5
  9
$PSOLHEIGHT
 40
80
  9
$LOFTANG1
 40
1.570796326794897
  9
$LOFTANG2
 40
1.570796326794897
  9
$LOFTMAG1
 40
0
  9
$LOFTMAG2
 40
0
  9
$LOFTPARAM
 70
    7
  9
$LOFTNORMALS
280
    1
  9
$LATITUDE
 40
1
  9
$LONGITUDE
 40
1
  9
$NORTHDIRECTION
 40
0
  9
$TIMEZONE
 70
-8000
  9
$LIGHTGLYPHDISPLAY
280
    1
  9
$TILEMODELIGHTSYNCH
280
    1
  9
$SOLIDHIST
280
    1
  9
$SHOWHIST
280
    1
  9
$DWFFRAME
280
    2
  9
$DGNFRAME
280
    0
  9
$REALWORLDSCALE
290
    1
  9
$INTERFERECOLOR
 62
    1
  9
$CSHADOW
280
    0
  9
$SHADOWPLANELOCATION
 40
0
  0
ENDSEC
  0
SECTION
  2
CLASSES
  0
ENDSEC
  0
SECTION
  2
TABLES
  0
TABLE
  2
VPORT
  5
8
330
0
100
AcDbSymbolTable
 70
    1
  0
VPORT
  5
31
330
2
100
AcDbSymbolTableRecord
100
AcDbViewportTableRecord
  2
*ACTIVE
 70
    0
 10
0
 20
0
 11
1
 21
1
 12
95.53649956024626
 22
45.07475813544415
 13
0
 23
0
 14
10
 24
10
 15
10
 25
10
 16
0
 26
0
 36
1
 17
0
 27
0
 37
0
 40
180.51890941073
 41
1.802679658952497
 42
50
 43
0
 44
0
 50
0
 51
0
 71
    0
 72
  100
 73
    1
 74
    3
 75
    0
 76
    1
 77
    0
 78
    0
281
    0
 65
    1
110
0
120
0
130
0
111
1
121
0
131
0
112
0
122
1
132
0
 79
    0
146
0
348
10020
 60
    7
 61
    5
292
1
282
    1
141
0
142
0
 63
  250
421
3358443
  0
ENDTAB
  0
TABLE
  2
LTYPE
  5
5
330
0
100
AcDbSymbolTable
 70
    4
  0
LTYPE
  5
14
330
5
100
AcDbSymbolTableRecord
100
AcDbLinetypeTableRecord
  2
ByBlock
 70
    0
  3

 72
   65
 73
    0
 40
0
  0
LTYPE
  5
15
330
5
100
AcDbSymbolTableRecord
100
AcDbLinetypeTableRecord
  2
ByLayer
 70
    0
  3

 72
   65
 73
    0
 40
0
  0
LTYPE
  5
16
330
5
100
AcDbSymbolTableRecord
100
AcDbLinetypeTableRecord
  2
Continuous
 70
    0
  3
Solid line
 72
   65
 73
    0
 40
0
  0
LTYPE
  5
32
330
5
100
AcDbSymbolTableRecord
100
AcDbLinetypeTableRecord
  2
DOT
 70
    0
  3
Dot . . . . . . . . . . . . . . . . . . . . . .
 72
   65
 73
    2
 40
6.35
 49
0
 74
    0
 49
-6.35
 74
    0
  0
LTYPE
  5
33
330
5
100
AcDbSymbolTableRecord
100
AcDbLinetypeTableRecord
  2
DOTTINY
 70
    0
  3
Dot (.15x) .....................................
 72
   65
 73
    2
 40
0.9525
 49
0
 74
    0
 49
-0.9525
 74
    0
  0
LTYPE
  5
34
330
5
100
AcDbSymbolTableRecord
100
AcDbLinetypeTableRecord
  2
DOT2
 70
    0
  3
Dot (.5x) .....................................
 72
   65
 73
    2
 40
3.175
 49
0
 74
    0
 49
-3.175
 74
    0
  0
LTYPE
  5
35
330
5
100
AcDbSymbolTableRecord
100
AcDbLinetypeTableRecord
  2
DOTX2
 70
    0
  3
Dot (2x) .  .  .  .  .  .  .  .  .  .  .  .  .
 72
   65
 73
    2
 40
12.7
 49
0
 74
    0
 49
-12.7
 74
    0
  0
LTYPE
  5
36
330
5
100
AcDbSymbolTableRecord
100
AcDbLinetypeTableRecord
  2
DASHED
 70
    0
  3
Dashed _ _ _ _ _ _ _ _ _ _ _ _ _ _ _ _ _
 72
   65
 73
    2
 40
19.05
 49
12.7
 74
    0
 49
-6.35
 74
    0
  0
LTYPE
  5
37
330
5
100
AcDbSymbolTableRecord
100
AcDbLinetypeTableRecord
  2
DASHEDTINY
 70
    0
  3
Dashed (.15x) _ _ _ _ _ _ _ _ _ _ _ _ _ _ _ _ _
 72
   65
 73
    2
 40
2.8575
 49
1.905
 74
    0
 49
-0.9525
 74
    0
  0
LTYPE
  5
38
330
5
100
AcDbSymbolTableRecord
100
AcDbLinetypeTableRecord
  2
DASHED2
 70
    0
  3
Dashed (.5x) _ _ _ _ _ _ _ _ _ _ _ _ _ _ _ _ _
 72
   65
 73
    2
 40
9.524999999999999
 49
6.35
 74
    0
 49
-3.175
 74
    0
  0
LTYPE
  5
39
330
5
100
AcDbSymbolTableRecord
100
AcDbLinetypeTableRecord
  2
DASHEDX2
 70
    0
  3
Dashed (2x) ____  ____  ____  ____  ____  ___
 72
   65
 73
    2
 40
38.09999999999999
 49
25.4
 74
    0
 49
-12.7
 74
    0
  0
LTYPE
  5
3A
330
5
100
AcDbSymbolTableRecord
100
AcDbLinetypeTableRecord
  2
DASHDOT
 70
    0
  3
Dash dot __ . __ . __ . __ . __ . __ . __ . __
 72
   65
 73
    4
 40
25.4
 49
12.7
 74
    0
 49
-6.35
 74
    0
 49
0
 74
    0
 49
-6.35
 74
    0
  0
LTYPE
  5
3B
330
5
100
AcDbSymbolTableRecord
100
AcDbLinetypeTableRecord
  2
DASHDOTTINY
 70
    0
  3
Dash dot (.15x) _._._._._._._._._._._._._._._.
 72
   65
 73
    4
 40
3.81
 49
1.905
 74
    0
 49
-0.9525
 74
    0
 49
0
 74
    0
 49
-0.9525
 74
    0
  0
LTYPE
  5
3C
330
5
100
AcDbSymbolTableRecord
100
AcDbLinetypeTableRecord
  2
DASHDOT2
 70
    0
  3
Dash dot (.5x) _._._._._._._._._._._._._._._.
 72
   65
 73
    4
 40
12.7
 49
6.35
 74
    0
 49
-3.175
 74
    0
 49
0
 74
    0
 49
-3.175
 74
    0
  0
LTYPE
  5
3D
330
5
100
AcDbSymbolTableRecord
100
AcDbLinetypeTableRecord
  2
DASHDOTX2
 70
    0
  3
Dash dot (2x) ____  .  ____  .  ____  .  ___
 72
   65
 73
    4
 40
50.8
 49
25.4
 74
    0
 49
-12.7
 74
    0
 49
0
 74
    0
 49
-12.7
 74
    0
  0
LTYPE
  5
3E
330
5
100
AcDbSymbolTableRecord
100
AcDbLinetypeTableRecord
  2
DIVIDE
 70
    0
  3
Divide ____ . . ____ . . ____ . . ____ . . ____
 72
   65
 73
    6
 40
31.75
 49
12.7
 74
    0
 49
-6.35
 74
    0
 49
0
 74
    0
 49
-6.35
 74
    0
 49
0
 74
    0
 49
-6.35
 74
    0
  0
LTYPE
  5
3F
330
5
100
AcDbSymbolTableRecord
100
AcDbLinetypeTableRecord
  2
DIVIDETINY
 70
    0
  3
Divide (.15x) __..__..__..__..__..__..__..__.._
 72
   65
 73
    6
 40
4.7625
 49
1.905
 74
    0
 49
-0.9525
 74
    0
 49
0
 74
    0
 49
-0.9525
 74
    0
 49
0
 74
    0
 49
-0.9525
 74
    0
  0
LTYPE
  5
40
330
5
100
AcDbSymbolTableRecord
100
AcDbLinetypeTableRecord
  2
DIVIDE2
 70
    0
  3
Divide (.5x) __..__..__..__..__..__..__..__.._
 72
   65
 73
    6
 40
15.875
 49
6.35
 74
    0
 49
-3.175
 74
    0
 49
0
 74
    0
 49
-3.175
 74
    0
 49
0
 74
    0
 49
-3.175
 74
    0
  0
LTYPE
  5
41
330
5
100
AcDbSymbolTableRecord
100
AcDbLinetypeTableRecord
  2
DIVIDEX2
 70
    0
  3
Divide (2x) ________  .  .  ________  .  .  _
 72
   65
 73
    6
 40
63.5
 49
25.4
 74
    0
 49
-12.7
 74
    0
 49
0
 74
    0
 49
-12.7
 74
    0
 49
0
 74
    0
 49
-12.7
 74
    0
  0
LTYPE
  5
42
330
5
100
AcDbSymbolTableRecord
100
AcDbLinetypeTableRecord
  2
BORDER
 70
    0
  3
Border __ __ . __ __ . __ __ . __ __ . __ __ .
 72
   65
 73
    6
 40
44.45
 49
12.7
 74
    0
 49
-6.35
 74
    0
 49
12.7
 74
    0
 49
-6.35
 74
    0
 49
0
 74
    0
 49
-6.35
 74
    0
  0
LTYPE
  5
43
330
5
100
AcDbSymbolTableRecord
100
AcDbLinetypeTableRecord
  2
BORDERTINY
 70
    0
  3
Border (.15x) __.__.__.__.__.__.__.__.__.__.__.
 72
   65
 73
    6
 40
6.6675
 49
1.905
 74
    0
 49
-0.9525
 74
    0
 49
1.905
 74
    0
 49
-0.9525
 74
    0
 49
0
 74
    0
 49
-0.9525
 74
    0
  0
LTYPE
  5
44
330
5
100
AcDbSymbolTableRecord
100
AcDbLinetypeTableRecord
  2
BORDER2
 70
    0
  3
Border (.5x) __.__.__.__.__.__.__.__.__.__.__.
 72
   65
 73
    6
 40
22.225
 49
6.35
 74
    0
 49
-3.175
 74
    0
 49
6.35
 74
    0
 49
-3.175
 74
    0
 49
0
 74
    0
 49
-3.175
 74
    0
  0
LTYPE
  5
45
330
5
100
AcDbSymbolTableRecord
100
AcDbLinetypeTableRecord
  2
BORDERX2
 70
    0
  3
Border (2x) ____  ____  .  ____  ____  .  ___
 72
   65
 73
    6
 40
88.89999999999999
 49
25.4
 74
    0
 49
-12.7
 74
    0
 49
25.4
 74
    0
 49
-12.7
 74
    0
 49
0
 74
    0
 49
-12.7
 74
    0
  0
LTYPE
  5
46
330
5
100
AcDbSymbolTableRecord
100
AcDbLinetypeTableRecord
  2
CENTER
 70
    0
  3
Center ____ _ ____ _ ____ _ ____ _ ____ _ ____
 72
   65
 73
    4
 40
50.8
 49
31.75
 74
    0
 49
-6.35
 74
    0
 49
6.35
 74
    0
 49
-6.35
 74
    0
  0
LTYPE
  5
47
330
5
100
AcDbSymbolTableRecord
100
AcDbLinetypeTableRecord
  2
CENTERTINY
 70
    0
  3
Center (.15x) ___ _ ___ _ ___ _ ___ _ ___ _ ___
 72
   65
 73
    4
 40
7.619999999999999
 49
4.7625
 74
    0
 49
-0.9525
 74
    0
 49
0.9525
 74
    0
 49
-0.9525
 74
    0
  0
LTYPE
  5
48
330
5
100
AcDbSymbolTableRecord
100
AcDbLinetypeTableRecord
  2
CENTER2
 70
    0
  3
Center (.5x) ___ _ ___ _ ___ _ ___ _ ___ _ ___
 72
   65
 73
    4
 40
28.575
 49
19.05
 74
    0
 49
-3.175
 74
    0
 49
3.175
 74
    0
 49
-3.175
 74
    0
  0
LTYPE
  5
49
330
5
100
AcDbSymbolTableRecord
100
AcDbLinetypeTableRecord
  2
CENTERX2
 70
    0
  3
Center (2x) ________  __  ________  __  _____
 72
   65
 73
    4
 40
101.6
 49
63.5
 74
    0
 49
-12.7
 74
    0
 49
12.7
 74
    0
 49
-12.7
 74
    0
  0
ENDTAB
  0
TABLE
  2
LAYER
  5
2
330
0
100
AcDbSymbolTable
 70
    1
  0
LAYER
  5
10
330
2
100
AcDbSymbolTableRecord
100
AcDbLayerTableRecord
  2
0
 70
    0
 62
    7
  6
CONTINUOUS
370
   -3
390
F
  0
ENDTAB
  0
TABLE
  2
STYLE
  5
3
330
0
100
AcDbSymbolTable
 70
    3
  0
STYLE
  5
4A
330
2
100
AcDbSymbolTableRecord
100
AcDbTextStyleTableRecord
  2
Standard
 70
    0
 40
0
 41
1
 50
0
 71
    0
 42
1
  3
txt
  4

  0
ENDTAB
  0
TABLE
  2
VIEW
  5
6
330
0
100
AcDbSymbolTable
 70
    0
  0
ENDTAB
  0
TABLE
  2
UCS
  5
7
330
0
100
AcDbSymbolTable
 70
    0
  0
ENDTAB
  0
TABLE
  2
APPID
  5
9
330
0
100
AcDbSymbolTable
 70
    1
  0
APPID
  5
12
330
9
100
AcDbSymbolTableRecord
100
AcDbRegAppTableRecord
  2
ACAD
 70
    0
  0
APPID
  5
4B
330
9
100
AcDbSymbolTableRecord
100
AcDbRegAppTableRecord
  2
LibreCad
 70
    0
  0
ENDTAB
  0
TABLE
  2
DIMSTYLE
  5
A
330
0
100
AcDbSymbolTable
 70
    1
100
AcDbDimStyleTable
 71
    1
  0
DIMSTYLE
105
4C
330
A
100
AcDbSymbolTableRecord
100
AcDbDimStyleTableRecord
  2
Standard
 70
    0
 40
1
 41
2.5
 42
0.625
 43
0.38
 44
1.25
 45
0
 46
0
 47
0
 48
0
 49
1
140
2.5
141
0.09
142
2.5
143
25.4
144
1
145
0
146
1
147
0.625
148
0
 71
    0
 72
    0
 73
    0
 74
    1
 75
    0
 76
    0
 77
    0
 78
    1
 79
    0
170
    0
171
    2
172
    0
173
    0
174
    0
175
    0
176
    0
177
    0
178
    0
179
    0
271
    2
272
    4
273
    2
274
    2
275
    0
276
    0
277
    2
278
    0
279
    0
280
    0
281
    0
282
    0
283
    1
284
    0
285
    0
286
    0
288
    0
289
    3
340
standard
341

371
   -2
372
   -2
  0
ENDTAB
  0
TABLE
  2
BLOCK_RECORD
  5
1
330
0
100
AcDbSymbolTable
 70
    2
  0
BLOCK_RECORD
  5
1F
330
1
100
AcDbSymbolTableRecord
100
AcDbBlockTableRecord
  2
*Model_Space
 70
    0
280
    1
281
    0
  0
BLOCK_RECORD
  5
1E
330
1
100
AcDbSymbolTableRecord
100
AcDbBlockTableRecord
  2
*Paper_Space
 70
    0
280
    1
281
    0
  0
BLOCK_RECORD
  5
4D
330
1
100
AcDbSymbolTableRecord
100
AcDbBlockTableRecord
  2
FUSION
 70
    0
280
    1
281
    0
  0
ENDTAB
  0
ENDSEC
  0
SECTION
  2
BLOCKS
  0
BLOCK
  5
20
330
1F
100
AcDbEntity
  8
0
100
AcDbBlockBegin
  2
*Model_Space
 70
    0
 10
0
 20
0
 30
0
  3
*Model_Space
  1

  0
ENDBLK
  5
21
330
1F
100
AcDbEntity
  8
0
100
AcDbBlockEnd
  0
BLOCK
  5
1C
330
1B
100
AcDbEntity
  8
0
100
AcDbBlockBegin
  2
*Paper_Space
 70
    0
 10
0
 20
0
 30
0
  3
*Paper_Space
  1

  0
ENDBLK
  5
1D
330
1F
100
AcDbEntity
  8
0
100
AcDbBlockEnd
  0
BLOCK
  5
4E
330
4D
100
AcDbEntity
  8
0
100
AcDbBlockBegin
  2
FUSION
 70
    0
 10
0
 20
0
  3
FUSION
  1

  0
LWPOLYLINE
  5
50
100
AcDbEntity
  8
0
  6
ByLayer
 62
    0
370
   -1
100
AcDbPolyline
 90
   39
 70
    0
 43
0
 10
-49.8650595941
 20
72.759067438
 10
-49.9036143473
 20
72.7908952598
 10
-49.9405301835
 20
72.8246102454
 10
-49.9757148402
 20
72.86012811640001
 10
-50.0090803715
 20
72.8973600992
 10
-50.0405433806
 20
72.93621313360001
 10
-50.0700252256
 20
72.97659010770001
 10
-50.0974522166
 20
73.01839010019999
 10
-50.1227558008
 20
73.0615086323
 10
-50.145872736
 20
73.1058379282
 10
-50.1667452459
 20
73.1512671863
 10
-50.1853211543
 20
73.1976828607
 10
-50.2015540318
 20
73.24496893600001
 10
-50.2154032956
 20
73.29300722409999
 10
-50.2268343339
 20
73.3416776521
 10
-50.2358186054
 20
73.3908585639
 10
-50.2423335896
 20
73.4404270445
 10
-50.2463630618
 20
73.4902591885
 10
-50.2478969164
 20
73.54023044509999
 10
-50.2469313641
 20
73.5902159126
 10
-50.243468747
 20
73.64009065090001
 10
-50.2375177593
 20
73.68972999979999
 10
-50.2290932995
 20
73.73900989009999
 10
-50.2182164016
 20
73.787807147
 10
-50.2049142398
 20
73.83599979900001
 10
-50.1892200677
 20
73.8834673894
 10
-50.1711731253
 20
73.9300912784
 10
-50.1508185217
 20
73.97575493239999
 10
-50.1282071232
 20
74.0203442123
 10
-50.1033954428
 20
74.06374766570001
 10
-50.076445499
 20
74.10585680680001
 10
-50.0474246555
 20
74.1465663864
 10
-50.0164054508
 20
74.18577465280001
 10
-49.9834654162
 20
74.22338360569999
 10
-49.9486868839
 20
74.2592992415
 10
-49.9121567823
 20
74.2934317902
 10
-49.8739664174
 20
74.3256959381
 10
-49.8342112452
 20
74.3560110415
 10
-49.8326683187
 20
74.357125483
  0
LWPOLYLINE
  5
51
100
AcDbEntity
  8
0
  6
ByLayer
 62
    0
370
   -1
100
AcDbPolyline
 90
   39
 70
    0
 43
0
 10
-72.7590648959
 20
50.1349436388
 10
-72.79089261199999
 20
50.0963887986
 10
-72.82460749480001
 20
50.0594728684
 10
-72.8601252685
 20
50.0242881136
 10
-72.8973571591
 20
49.9909224795
 10
-72.9362101064
 20
49.9594593629
 10
-72.9765869985
 20
49.9299774057
 10
-73.01838691410001
 20
49.9025502976
 10
-73.06150537489999
 20
49.8772465916
 10
-73.10583460629999
 20
49.8541295322
 10
-73.15126380789999
 20
49.8332568986
 10
-73.1976794321
 20
49.8146808647
 10
-73.2449654639
 20
49.798447861
 10
-73.2930037137
 20
49.7845984652
 10
-73.3416741086
 20
49.7731672866
 10
-73.3908549966
 20
49.7641828848
 10
-73.44042345610001
 20
49.7576677392
 10
-73.49025559099999
 20
49.7536381489
 10
-73.5402268433
 20
49.7521041517
 10
-73.5902123131
 20
49.7530695767
 10
-73.6400870625
 20
49.7565320394
 10
-73.6897264274
 20
49.7624828922
 10
-73.73900634029999
 20
49.7709072219
 10
-73.787803627
 20
49.7817839858
 10
-73.8359963165
 20
49.7950860114
 10
-73.88346395249999
 20
49.8107800465
 10
-73.93008789149999
 20
49.8288268608
 10
-73.9757515997
 20
49.8491813432
 10
-74.0203409404
 20
49.8717926216
 10
-74.0637444621
 20
49.8966041821
 10
-74.1058536785
 20
49.9235540081
 10
-74.1465633391
 20
49.9525747378
 10
-74.1857716917
 20
49.9835938335
 10
-74.22338073580001
 20
50.0165337639
 10
-74.259296468
 20
50.0513121967
 10
-74.2934291178
 20
50.0878422039
 10
-74.32569337130001
 20
50.1260324795
 10
-74.35600858470001
 20
50.1657875678
 10
-74.3571230304
 20
50.1673304913
  0
LWPOLYLINE
  5
52
100
AcDbEntity
  8
0
  6
ByLayer
 62
    0
370
   -1
100
AcDbPolyline
 90
   39
 70
    0
 43
0
 10
-72.759064892
 20
24.8650563313
 10
-72.79089260720001
 20
24.9036111724
 10
-72.82460749080001
 20
24.9405271018
 10
-72.8601252645
 20
24.9757118567
 10
-72.89735715499999
 20
25.0090774909
 10
-72.9362101025
 20
25.0405406074
 10
-72.97658699510001
 20
25.0700225641
 10
-73.01838691179999
 20
25.0974496706
 10
-73.0615053739
 20
25.1227533741
 10
-73.1058346059
 20
25.1458704318
 10
-73.15126380629999
 20
25.1667430673
 10
-73.1976794293
 20
25.185319104
 10
-73.2449654598
 20
25.2015521122
 10
-73.2930037096
 20
25.2154015088
 10
-73.3416741059
 20
25.2268326816
 10
-73.3908549929
 20
25.2358170891
 10
-73.4404234555
 20
25.2423322104
 10
-73.4902555883
 20
25.2463618203
 10
-73.5402268408
 20
25.2478958131
 10
-73.5902123109
 20
25.246930399
 10
-73.64008705880001
 20
25.2434679197
 10
-73.6897264241
 20
25.2375170692
 10
-73.73900633780001
 20
25.2290927457
 10
-73.7878036247
 20
25.2182159827
 10
-73.8359963134
 20
25.2049139541
 10
-73.8834639473
 20
25.1892199132
 10
-73.9300878862
 20
25.1711730997
 10
-73.9757515964
 20
25.1508186224
 10
-74.0203409388
 20
25.1282073471
 10
-74.0637444608
 20
25.1033957867
 10
-74.1058536765
 20
25.0764459593
 10
-74.14656333630001
 20
25.0474252284
 10
-74.1857716884
 20
25.016406132
 10
-74.2233807323
 20
24.9834662015
 10
-74.25929646429999
 20
24.9486877685
 10
-74.29342911400001
 20
24.9121577611
 10
-74.32569336749999
 20
24.8739674855
 10
-74.35600858079999
 20
24.8342123971
 10
-74.35712302650001
 20
24.8326694736
  0
LWPOLYLINE
  5
53
100
AcDbEntity
  8
0
  6
ByLayer
 62
    0
370
   -1
100
AcDbPolyline
 90
   39
 70
    0
 43
0
 10
-72.759064892
 20
24.8650563313
 10
-72.79089260720001
 20
24.9036111724
 10
-72.82460749080001
 20
24.9405271018
 10
-72.8601252645
 20
24.9757118567
 10
-72.89735715499999
 20
25.0090774909
 10
-72.9362101025
 20
25.0405406074
 10
-72.97658699510001
 20
25.0700225641
 10
-73.01838691179999
 20
25.0974496706
 10
-73.0615053739
 20
25.1227533741
 10
-73.1058346059
 20
25.1458704318
 10
-73.15126380629999
 20
25.1667430673
 10
-73.1976794293
 20
25.185319104
 10
-73.2449654598
 20
25.2015521122
 10
-73.2930037096
 20
25.2154015088
 10
-73.3416741059
 20
25.2268326816
 10
-73.3908549929
 20
25.2358170891
 10
-73.4404234555
 20
25.2423322104
 10
-73.4902555883
 20
25.2463618203
 10
-73.5402268408
 20
25.2478958131
 10
-73.5902123109
 20
25.246930399
 10
-73.64008705880001
 20
25.2434679197
 10
-73.6897264241
 20
25.2375170692
 10
-73.73900633780001
 20
25.2290927457
 10
-73.7878036247
 20
25.2182159827
 10
-73.8359963134
 20
25.2049139541
 10
-73.8834639473
 20
25.1892199132
 10
-73.9300878862
 20
25.1711730997
 10
-73.9757515964
 20
25.1508186224
 10
-74.0203409388
 20
25.1282073471
 10
-74.0637444608
 20
25.1033957867
 10
-74.1058536765
 20
25.0764459593
 10
-74.14656333630001
 20
25.0474252284
 10
-74.1857716884
 20
25.016406132
 10
-74.2233807323
 20
24.9834662015
 10
-74.25929646429999
 20
24.9486877685
 10
-74.29342911400001
 20
24.9121577611
 10
-74.32569336749999
 20
24.8739674855
 10
-74.35600858079999
 20
24.8342123971
 10
-74.35712302650001
 20
24.8326694736
  0
LWPOLYLINE
  5
54
100
AcDbEntity
  8
0
  6
ByLayer
 62
    0
370
   -1
100
AcDbPolyline
 90
   39
 70
    0
 43
0
 10
-74.3571230152
 20
0.167330521088
 10
-74.326883526
 20
0.127517803059
 10
-74.29469201649999
 20
0.08926618956970001
 10
-74.2606289564
 20
0.052671283406
 10
-74.2247794832
 20
0.017824554814
 10
-74.1872332017
 20
-0.0151868972151
 10
-74.14808395750001
 20
-0.0462805606148
 10
-74.10742960330001
 20
-0.0753787167657
 10
-74.0653717543
 20
-0.102408635794
 10
-74.02201553490001
 20
-0.127302759809
 10
-73.9774693147
 20
-0.149998870517
 10
-73.9318444331
 20
-0.170440234734
 10
-73.88525492860001
 20
-0.188575760809
 10
-73.8378172484
 20
-0.204360112032
 10
-73.789649962
 20
-0.217753832406
 10
-73.74087346909999
 20
-0.228723470338
 10
-73.6916096815
 20
-0.237241600357
 10
-73.64198172579999
 20
-0.243286873024
 10
-73.59211365749999
 20
-0.246844255946
 10
-73.5421301164
 20
-0.247904822907
 10
-73.4921560339
 20
-0.24646595167
 10
-73.44231632260001
 20
-0.242531186797
 10
-73.3927355555
 20
-0.236110383971
 10
-73.3435376514
 20
-0.227219636893
 10
-73.2948455871
 20
-0.215881114667
 10
-73.2467810675
 20
-0.202123166045
 10
-73.19946422620001
 20
-0.185980189436
 10
-73.1530133272
 20
-0.167492540688
 10
-73.1075444765
 20
-0.14670641912
 10
-73.0631713257
 20
-0.12367377404
 10
-73.0200047844
 20
-0.09845217700559999
 10
-72.9781527449
 20
-0.0711046722595
 10
-72.9377198143
 20
-0.0416996159338
 10
-72.8988070538
 20
-0.0103105050364
 10
-72.8615117259
 20
0.0229842051109
 10
-72.8259270492
 20
0.0581012948586
 10
-72.7921419669
 20
0.0949529898236
 10
-72.7602409242
 20
0.133447180098
 10
-72.7590648804
 20
0.134943683653
  0
LWPOLYLINE
  5
55
100
AcDbEntity
  8
0
  6
ByLayer
 62
    0
370
   -1
100
AcDbPolyline
 90
   39
 70
    0
 43
0
 10
-72.7590648729
 20
-25.1349436763
 10
-72.79089258899999
 20
-25.096388836
 10
-72.8246074716
 20
-25.0594729057
 10
-72.8601252452
 20
-25.0242881508
 10
-72.89735713570001
 20
-24.9909225166
 10
-72.9362100829
 20
-24.9594593999
 10
-72.9765869749
 20
-24.9299774426
 10
-73.0183868905
 20
-24.9025503343
 10
-73.0615053512
 20
-24.8772466282
 10
-73.10583458240001
 20
-24.8541295686
 10
-73.15126378399999
 20
-24.8332569348
 10
-73.1976794082
 20
-24.8146809009
 10
-73.2449654399
 20
-24.7984478969
 10
-73.2930036896
 20
-24.784598501
 10
-73.3416740845
 20
-24.7731673222
 10
-73.39085497249999
 20
-24.7641829202
 10
-73.4404234319
 20
-24.7576677746
 10
-73.4902555669
 20
-24.7536381841
 10
-73.5402268192
 20
-24.7521041867
 10
-73.59021228890001
 20
-24.7530696116
 10
-73.6400870384
 20
-24.7565320741
 10
-73.6897264033
 20
-24.7624829268
 10
-73.7390063162
 20
-24.7709072563
 10
-73.7878036029
 20
-24.78178402
 10
-73.8359962925
 20
-24.7950860455
 10
-73.88346392850001
 20
-24.8107800804
 10
-73.93008786759999
 20
-24.8288268945
 10
-73.9757515758
 20
-24.8491813768
 10
-74.02034091660001
 20
-24.8717926551
 10
-74.06374443839999
 20
-24.8966042154
 10
-74.1058536549
 20
-24.9235540413
 10
-74.14656331560001
 20
-24.9525747708
 10
-74.18577166830001
 20
-24.9835938664
 10
-74.2233807125
 20
-25.0165337967
 10
-74.2592964448
 20
-25.0513122294
 10
-74.2934290947
 20
-25.0878422365
 10
-74.32569334839999
 20
-25.126032512
 10
-74.3560085619
 20
-25.1657876002
 10
-74.35712300759999
 20
-25.1673305237
  0
LWPOLYLINE
  5
56
100
AcDbEntity
  8
0
  6
ByLayer
 62
    0
370
   -1
100
AcDbPolyline
 90
   39
 70
    0
 43
0
 10
-72.759067438
 20
-49.8650595941
 10
-72.7908952598
 20
-49.9036143473
 10
-72.8246102454
 20
-49.9405301835
 10
-72.86012811640001
 20
-49.9757148402
 10
-72.8973600992
 20
-50.0090803715
 10
-72.93621313360001
 20
-50.0405433806
 10
-72.97659010770001
 20
-50.0700252256
 10
-73.01839010019999
 20
-50.0974522166
 10
-73.0615086323
 20
-50.1227558008
 10
-73.1058379282
 20
-50.145872736
 10
-73.1512671863
 20
-50.1667452459
 10
-73.1976828607
 20
-50.1853211543
 10
-73.24496893600001
 20
-50.2015540318
 10
-73.29300722409999
 20
-50.2154032956
 10
-73.3416776521
 20
-50.2268343339
 10
-73.3908585639
 20
-50.2358186054
 10
-73.4404270445
 20
-50.2423335896
 10
-73.4902591885
 20
-50.2463630618
 10
-73.54023044509999
 20
-50.2478969164
 10
-73.5902159126
 20
-50.2469313641
 10
-73.64009065090001
 20
-50.243468747
 10
-73.68972999979999
 20
-50.2375177593
 10
-73.73900989009999
 20
-50.2290932995
 10
-73.787807147
 20
-50.2182164016
 10
-73.83599979900001
 20
-50.2049142398
 10
-73.8834673894
 20
-50.1892200677
 10
-73.9300912784
 20
-50.1711731253
 10
-73.97575493239999
 20
-50.1508185217
 10
-74.0203442123
 20
-50.1282071232
 10
-74.06374766570001
 20
-50.1033954428
 10
-74.10585680680001
 20
-50.076445499
 10
-74.1465663864
 20
-50.0474246555
 10
-74.18577465280001
 20
-50.0164054508
 10
-74.22338360569999
 20
-49.9834654162
 10
-74.2592992415
 20
-49.9486868839
 10
-74.2934317902
 20
-49.9121567823
 10
-74.3256959381
 20
-49.8739664174
 10
-74.3560110415
 20
-49.8342112452
 10
-74.357125483
 20
-49.8326683187
  0
LWPOLYLINE
  5
57
100
AcDbEntity
  8
0
  6
ByLayer
 62
    0
370
   -1
100
AcDbPolyline
 90
   39
 70
    0
 43
0
 10
-72.759067438
 20
-49.8650595941
 10
-72.7908952598
 20
-49.9036143473
 10
-72.8246102454
 20
-49.9405301835
 10
-72.86012811640001
 20
-49.9757148402
 10
-72.8973600992
 20
-50.0090803715
 10
-72.93621313360001
 20
-50.0405433806
 10
-72.97659010770001
 20
-50.0700252256
 10
-73.01839010019999
 20
-50.0974522166
 10
-73.0615086323
 20
-50.1227558008
 10
-73.1058379282
 20
-50.145872736
 10
-73.1512671863
 20
-50.1667452459
 10
-73.1976828607
 20
-50.1853211543
 10
-73.24496893600001
 20
-50.2015540318
 10
-73.29300722409999
 20
-50.2154032956
 10
-73.3416776521
 20
-50.2268343339
 10
-73.3908585639
 20
-50.2358186054
 10
-73.4404270445
 20
-50.2423335896
 10
-73.4902591885
 20
-50.2463630618
 10
-73.54023044509999
 20
-50.2478969164
 10
-73.5902159126
 20
-50.2469313641
 10
-73.64009065090001
 20
-50.243468747
 10
-73.68972999979999
 20
-50.2375177593
 10
-73.73900989009999
 20
-50.2290932995
 10
-73.787807147
 20
-50.2182164016
 10
-73.83599979900001
 20
-50.2049142398
 10
-73.8834673894
 20
-50.1892200677
 10
-73.9300912784
 20
-50.1711731253
 10
-73.97575493239999
 20
-50.1508185217
 10
-74.0203442123
 20
-50.1282071232
 10
-74.06374766570001
 20
-50.1033954428
 10
-74.10585680680001
 20
-50.076445499
 10
-74.1465663864
 20
-50.0474246555
 10
-74.18577465280001
 20
-50.0164054508
 10
-74.22338360569999
 20
-49.9834654162
 10
-74.2592992415
 20
-49.9486868839
 10
-74.2934317902
 20
-49.9121567823
 10
-74.3256959381
 20
-49.8739664174
 10
-74.3560110415
 20
-49.8342112452
 10
-74.357125483
 20
-49.8326683187
  0
LWPOLYLINE
  5
58
100
AcDbEntity
  8
0
  6
ByLayer
 62
    0
370
   -1
100
AcDbPolyline
 90
   39
 70
    0
 43
0
 10
49.8650595941
 20
-72.759067438
 10
49.9036143473
 20
-72.7908952598
 10
49.9405301835
 20
-72.8246102454
 10
49.9757148402
 20
-72.86012811640001
 10
50.0090803715
 20
-72.8973600992
 10
50.0405433806
 20
-72.93621313360001
 10
50.0700252256
 20
-72.97659010770001
 10
50.0974522166
 20
-73.01839010019999
 10
50.1227558008
 20
-73.0615086323
 10
50.145872736
 20
-73.1058379282
 10
50.1667452459
 20
-73.1512671863
 10
50.1853211543
 20
-73.1976828607
 10
50.2015540318
 20
-73.24496893600001
 10
50.2154032956
 20
-73.29300722409999
 10
50.2268343339
 20
-73.3416776521
 10
50.2358186054
 20
-73.3908585639
 10
50.2423335896
 20
-73.4404270445
 10
50.2463630618
 20
-73.4902591885
 10
50.2478969164
 20
-73.54023044509999
 10
50.2469313641
 20
-73.5902159126
 10
50.243468747
 20
-73.64009065090001
 10
50.2375177593
 20
-73.68972999979999
 10
50.2290932995
 20
-73.73900989009999
 10
50.2182164016
 20
-73.787807147
 10
50.2049142398
 20
-73.83599979900001
 10
50.1892200677
 20
-73.8834673894
 10
50.1711731253
 20
-73.9300912784
 10
50.1508185217
 20
-73.97575493239999
 10
50.1282071232
 20
-74.0203442123
 10
50.1033954428
 20
-74.06374766570001
 10
50.076445499
 20
-74.10585680680001
 10
50.0474246555
 20
-74.1465663864
 10
50.0164054508
 20
-74.18577465280001
 10
49.9834654162
 20
-74.22338360569999
 10
49.9486868839
 20
-74.2592992415
 10
49.9121567823
 20
-74.2934317902
 10
49.8739664174
 20
-74.3256959381
 10
49.8342112452
 20
-74.3560110415
 10
49.8326683187
 20
-74.357125483
  0
LWPOLYLINE
  5
59
100
AcDbEntity
  8
0
  6
ByLayer
 62
    0
370
   -1
100
AcDbPolyline
 90
   39
 70
    0
 43
0
 10
25.1349436763
 20
-72.7590648729
 10
25.096388836
 20
-72.79089258899999
 10
25.0594729057
 20
-72.8246074716
 10
25.0242881508
 20
-72.8601252452
 10
24.9909225166
 20
-72.89735713570001
 10
24.9594593999
 20
-72.9362100829
 10
24.9299774426
 20
-72.9765869749
 10
24.9025503343
 20
-73.0183868905
 10
24.8772466282
 20
-73.0615053512
 10
24.8541295686
 20
-73.10583458240001
 10
24.8332569348
 20
-73.15126378399999
 10
24.8146809009
 20
-73.1976794082
 10
24.7984478969
 20
-73.2449654399
 10
24.784598501
 20
-73.2930036896
 10
24.7731673222
 20
-73.3416740845
 10
24.7641829202
 20
-73.39085497249999
 10
24.7576677746
 20
-73.4404234319
 10
24.7536381841
 20
-73.4902555669
 10
24.7521041867
 20
-73.5402268192
 10
24.7530696116
 20
-73.59021228890001
 10
24.7565320741
 20
-73.6400870384
 10
24.7624829268
 20
-73.6897264033
 10
24.7709072563
 20
-73.7390063162
 10
24.78178402
 20
-73.7878036029
 10
24.7950860455
 20
-73.8359962925
 10
24.8107800804
 20
-73.88346392850001
 10
24.8288268945
 20
-73.93008786759999
 10
24.8491813768
 20
-73.9757515758
 10
24.8717926551
 20
-74.02034091660001
 10
24.8966042154
 20
-74.06374443839999
 10
24.9235540413
 20
-74.1058536549
 10
24.9525747708
 20
-74.14656331560001
 10
24.9835938664
 20
-74.18577166830001
 10
25.0165337967
 20
-74.2233807125
 10
25.0513122294
 20
-74.2592964448
 10
25.0878422365
 20
-74.2934290947
 10
25.126032512
 20
-74.32569334839999
 10
25.1657876002
 20
-74.3560085619
 10
25.1673305237
 20
-74.35712300759999
  0
LWPOLYLINE
  5
5A
100
AcDbEntity
  8
0
  6
ByLayer
 62
    0
370
   -1
100
AcDbPolyline
 90
   39
 70
    0
 43
0
 10
-0.167330521088
 20
-74.3571230152
 10
-0.127517803059
 20
-74.326883526
 10
-0.08926618956970001
 20
-74.29469201649999
 10
-0.052671283406
 20
-74.2606289564
 10
-0.017824554814
 20
-74.2247794832
 10
0.0151868972151
 20
-74.1872332017
 10
0.0462805606148
 20
-74.14808395750001
 10
0.0753787167657
 20
-74.10742960330001
 10
0.102408635794
 20
-74.0653717543
 10
0.127302759809
 20
-74.02201553490001
 10
0.149998870517
 20
-73.9774693147
 10
0.170440234734
 20
-73.9318444331
 10
0.188575760809
 20
-73.88525492860001
 10
0.204360112032
 20
-73.8378172484
 10
0.217753832406
 20
-73.789649962
 10
0.228723470338
 20
-73.74087346909999
 10
0.237241600357
 20
-73.6916096815
 10
0.243286873024
 20
-73.64198172579999
 10
0.246844255946
 20
-73.59211365749999
 10
0.247904822907
 20
-73.5421301164
 10
0.24646595167
 20
-73.4921560339
 10
0.242531186797
 20
-73.44231632260001
 10
0.236110383971
 20
-73.3927355555
 10
0.227219636893
 20
-73.3435376514
 10
0.215881114667
 20
-73.2948455871
 10
0.202123166045
 20
-73.2467810675
 10
0.185980189436
 20
-73.19946422620001
 10
0.167492540688
 20
-73.1530133272
 10
0.14670641912
 20
-73.1075444765
 10
0.12367377404
 20
-73.0631713257
 10
0.09845217700559999
 20
-73.0200047844
 10
0.0711046722595
 20
-72.9781527449
 10
0.0416996159339
 20
-72.9377198143
 10
0.0103105050364
 20
-72.8988070538
 10
-0.0229842051109
 20
-72.8615117259
 10
-0.0581012948586
 20
-72.8259270492
 10
-0.0949529898236
 20
-72.7921419669
 10
-0.133447180098
 20
-72.7602409242
 10
-0.134943683653
 20
-72.7590648804
  0
LWPOLYLINE
  5
5B
100
AcDbEntity
  8
0
  6
ByLayer
 62
    0
370
   -1
100
AcDbPolyline
 90
   39
 70
    0
 43
0
 10
-24.8650563313
 20
-72.759064892
 10
-24.9036111724
 20
-72.79089260720001
 10
-24.9405271018
 20
-72.82460749080001
 10
-24.9757118567
 20
-72.8601252645
 10
-25.0090774909
 20
-72.89735715499999
 10
-25.0405406074
 20
-72.9362101025
 10
-25.0700225641
 20
-72.97658699510001
 10
-25.0974496706
 20
-73.01838691179999
 10
-25.1227533741
 20
-73.0615053739
 10
-25.1458704318
 20
-73.1058346059
 10
-25.1667430673
 20
-73.15126380629999
 10
-25.185319104
 20
-73.1976794293
 10
-25.2015521122
 20
-73.2449654598
 10
-25.2154015088
 20
-73.2930037096
 10
-25.2268326816
 20
-73.3416741059
 10
-25.2358170891
 20
-73.3908549929
 10
-25.2423322104
 20
-73.4404234555
 10
-25.2463618203
 20
-73.4902555883
 10
-25.2478958131
 20
-73.5402268408
 10
-25.246930399
 20
-73.5902123109
 10
-25.2434679197
 20
-73.64008705880001
 10
-25.2375170692
 20
-73.6897264241
 10
-25.2290927457
 20
-73.73900633780001
 10
-25.2182159827
 20
-73.7878036247
 10
-25.2049139541
 20
-73.8359963134
 10
-25.1892199132
 20
-73.8834639473
 10
-25.1711730997
 20
-73.9300878862
 10
-25.1508186224
 20
-73.9757515964
 10
-25.1282073471
 20
-74.0203409388
 10
-25.1033957867
 20
-74.0637444608
 10
-25.0764459593
 20
-74.1058536765
 10
-25.0474252284
 20
-74.14656333630001
 10
-25.016406132
 20
-74.1857716884
 10
-24.9834662015
 20
-74.2233807323
 10
-24.9486877685
 20
-74.25929646429999
 10
-24.9121577611
 20
-74.29342911400001
 10
-24.8739674855
 20
-74.32569336749999
 10
-24.8342123971
 20
-74.35600858079999
 10
-24.8326694736
 20
-74.35712302650001
  0
LWPOLYLINE
  5
5C
100
AcDbEntity
  8
0
  6
ByLayer
 62
    0
370
   -1
100
AcDbPolyline
 90
   39
 70
    0
 43
0
 10
-50.1349436388
 20
-72.7590648959
 10
-50.0963887986
 20
-72.79089261199999
 10
-50.0594728684
 20
-72.82460749480001
 10
-50.0242881136
 20
-72.8601252685
 10
-49.9909224795
 20
-72.8973571591
 10
-49.9594593629
 20
-72.9362101064
 10
-49.9299774057
 20
-72.9765869985
 10
-49.9025502976
 20
-73.01838691410001
 10
-49.8772465916
 20
-73.06150537489999
 10
-49.8541295322
 20
-73.10583460629999
 10
-49.8332568986
 20
-73.15126380789999
 10
-49.8146808647
 20
-73.1976794321
 10
-49.798447861
 20
-73.2449654639
 10
-49.7845984652
 20
-73.2930037137
 10
-49.7731672866
 20
-73.3416741086
 10
-49.7641828848
 20
-73.3908549966
 10
-49.7576677392
 20
-73.44042345610001
 10
-49.7536381489
 20
-73.49025559099999
 10
-49.7521041517
 20
-73.5402268433
 10
-49.7530695767
 20
-73.5902123131
 10
-49.7565320394
 20
-73.6400870625
 10
-49.7624828922
 20
-73.6897264274
 10
-49.7709072219
 20
-73.73900634029999
 10
-49.7817839858
 20
-73.787803627
 10
-49.7950860114
 20
-73.8359963165
 10
-49.8107800465
 20
-73.88346395249999
 10
-49.8288268608
 20
-73.93008789149999
 10
-49.8491813432
 20
-73.9757515997
 10
-49.8717926216
 20
-74.0203409404
 10
-49.8966041821
 20
-74.0637444621
 10
-49.9235540081
 20
-74.1058536785
 10
-49.9525747378
 20
-74.1465633391
 10
-49.9835938335
 20
-74.1857716917
 10
-50.0165337639
 20
-74.22338073580001
 10
-50.0513121967
 20
-74.259296468
 10
-50.0878422039
 20
-74.2934291178
 10
-50.1260324795
 20
-74.32569337130001
 10
-50.1657875678
 20
-74.35600858470001
 10
-50.1673304913
 20
-74.3571230304
  0
LWPOLYLINE
  5
5D
100
AcDbEntity
  8
0
  6
ByLayer
 62
    0
370
   -1
100
AcDbPolyline
 90
   39
 70
    0
 43
0
 10
72.7590648959
 20
-50.1349436388
 10
72.79089261199999
 20
-50.0963887986
 10
72.82460749480001
 20
-50.0594728684
 10
72.8601252685
 20
-50.0242881136
 10
72.8973571591
 20
-49.9909224795
 10
72.9362101064
 20
-49.9594593629
 10
72.9765869985
 20
-49.9299774057
 10
73.01838691410001
 20
-49.9025502976
 10
73.06150537489999
 20
-49.8772465916
 10
73.10583460629999
 20
-49.8541295322
 10
73.15126380789999
 20
-49.8332568986
 10
73.1976794321
 20
-49.8146808647
 10
73.2449654639
 20
-49.798447861
 10
73.2930037137
 20
-49.7845984652
 10
73.3416741086
 20
-49.7731672866
 10
73.3908549966
 20
-49.7641828848
 10
73.44042345610001
 20
-49.7576677392
 10
73.49025559099999
 20
-49.7536381489
 10
73.5402268433
 20
-49.7521041517
 10
73.5902123131
 20
-49.7530695767
 10
73.6400870625
 20
-49.7565320394
 10
73.6897264274
 20
-49.7624828922
 10
73.73900634029999
 20
-49.7709072219
 10
73.787803627
 20
-49.7817839858
 10
73.8359963165
 20
-49.7950860114
 10
73.88346395249999
 20
-49.8107800465
 10
73.93008789149999
 20
-49.8288268608
 10
73.9757515997
 20
-49.8491813432
 10
74.0203409404
 20
-49.8717926216
 10
74.0637444621
 20
-49.8966041821
 10
74.1058536785
 20
-49.9235540081
 10
74.1465633391
 20
-49.9525747378
 10
74.1857716917
 20
-49.9835938335
 10
74.22338073580001
 20
-50.0165337639
 10
74.259296468
 20
-50.0513121967
 10
74.2934291178
 20
-50.0878422039
 10
74.32569337130001
 20
-50.1260324795
 10
74.35600858470001
 20
-50.1657875678
 10
74.3571230304
 20
-50.1673304913
  0
LWPOLYLINE
  5
5E
100
AcDbEntity
  8
0
  6
ByLayer
 62
    0
370
   -1
100
AcDbPolyline
 90
   39
 70
    0
 43
0
 10
72.759064892
 20
-24.8650563313
 10
72.79089260720001
 20
-24.9036111724
 10
72.82460749080001
 20
-24.9405271018
 10
72.8601252645
 20
-24.9757118567
 10
72.89735715499999
 20
-25.0090774909
 10
72.9362101025
 20
-25.0405406074
 10
72.97658699510001
 20
-25.0700225641
 10
73.01838691179999
 20
-25.0974496706
 10
73.0615053739
 20
-25.1227533741
 10
73.1058346059
 20
-25.1458704318
 10
73.15126380629999
 20
-25.1667430673
 10
73.1976794293
 20
-25.185319104
 10
73.2449654598
 20
-25.2015521122
 10
73.2930037096
 20
-25.2154015088
 10
73.3416741059
 20
-25.2268326816
 10
73.3908549929
 20
-25.2358170891
 10
73.4404234555
 20
-25.2423322104
 10
73.4902555883
 20
-25.2463618203
 10
73.5402268408
 20
-25.2478958131
 10
73.5902123109
 20
-25.246930399
 10
73.64008705880001
 20
-25.2434679197
 10
73.6897264241
 20
-25.2375170692
 10
73.73900633780001
 20
-25.2290927457
 10
73.7878036247
 20
-25.2182159827
 10
73.8359963134
 20
-25.2049139541
 10
73.8834639473
 20
-25.1892199132
 10
73.9300878862
 20
-25.1711730997
 10
73.9757515964
 20
-25.1508186224
 10
74.0203409388
 20
-25.1282073471
 10
74.0637444608
 20
-25.1033957867
 10
74.1058536765
 20
-25.0764459593
 10
74.14656333630001
 20
-25.0474252284
 10
74.1857716884
 20
-25.016406132
 10
74.2233807323
 20
-24.9834662015
 10
74.25929646429999
 20
-24.9486877685
 10
74.29342911400001
 20
-24.9121577611
 10
74.32569336749999
 20
-24.8739674855
 10
74.35600858079999
 20
-24.8342123971
 10
74.35712302650001
 20
-24.8326694736
  0
LWPOLYLINE
  5
5F
100
AcDbEntity
  8
0
  6
ByLayer
 62
    0
370
   -1
100
AcDbPolyline
 90
   39
 70
    0
 43
0
 10
74.3571230152
 20
-0.167330521088
 10
74.326883526
 20
-0.127517803059
 10
74.29469201649999
 20
-0.08926618956970001
 10
74.2606289564
 20
-0.052671283406
 10
74.2247794832
 20
-0.017824554814
 10
74.1872332017
 20
0.0151868972151
 10
74.14808395750001
 20
0.0462805606148
 10
74.10742960330001
 20
0.0753787167657
 10
74.0653717543
 20
0.102408635794
 10
74.02201553490001
 20
0.127302759809
 10
73.9774693147
 20
0.149998870517
 10
73.9318444331
 20
0.170440234734
 10
73.88525492860001
 20
0.188575760809
 10
73.8378172484
 20
0.204360112032
 10
73.789649962
 20
0.217753832406
 10
73.74087346909999
 20
0.228723470338
 10
73.6916096815
 20
0.237241600357
 10
73.64198172579999
 20
0.243286873024
 10
73.59211365749999
 20
0.246844255946
 10
73.5421301164
 20
0.247904822907
 10
73.4921560339
 20
0.24646595167
 10
73.44231632260001
 20
0.242531186797
 10
73.3927355555
 20
0.236110383971
 10
73.3435376514
 20
0.227219636893
 10
73.2948455871
 20
0.215881114667
 10
73.2467810675
 20
0.202123166045
 10
73.19946422620001
 20
0.185980189436
 10
73.1530133272
 20
0.167492540688
 10
73.1075444765
 20
0.14670641912
 10
73.0631713257
 20
0.12367377404
 10
73.0200047844
 20
0.09845217700559999
 10
72.9781527449
 20
0.0711046722595
 10
72.9377198143
 20
0.0416996159338
 10
72.8988070538
 20
0.0103105050364
 10
72.8615117259
 20
-0.0229842051109
 10
72.8259270492
 20
-0.0581012948586
 10
72.7921419669
 20
-0.0949529898236
 10
72.7602409242
 20
-0.133447180098
 10
72.7590648804
 20
-0.134943683653
  0
LWPOLYLINE
  5
60
100
AcDbEntity
  8
0
  6
ByLayer
 62
    0
370
   -1
100
AcDbPolyline
 90
   39
 70
    0
 43
0
 10
72.7590648729
 20
25.1349436763
 10
72.79089258899999
 20
25.096388836
 10
72.8246074716
 20
25.0594729057
 10
72.8601252452
 20
25.0242881508
 10
72.89735713570001
 20
24.9909225166
 10
72.9362100829
 20
24.9594593999
 10
72.9765869749
 20
24.9299774426
 10
73.0183868905
 20
24.9025503343
 10
73.0615053512
 20
24.8772466282
 10
73.10583458240001
 20
24.8541295686
 10
73.15126378399999
 20
24.8332569348
 10
73.1976794082
 20
24.8146809009
 10
73.2449654399
 20
24.7984478969
 10
73.2930036896
 20
24.784598501
 10
73.3416740845
 20
24.7731673222
 10
73.39085497249999
 20
24.7641829202
 10
73.4404234319
 20
24.7576677746
 10
73.4902555669
 20
24.7536381841
 10
73.5402268192
 20
24.7521041867
 10
73.59021228890001
 20
24.7530696116
 10
73.6400870384
 20
24.7565320741
 10
73.6897264033
 20
24.7624829268
 10
73.7390063162
 20
24.7709072563
 10
73.7878036029
 20
24.78178402
 10
73.8359962925
 20
24.7950860455
 10
73.88346392850001
 20
24.8107800804
 10
73.93008786759999
 20
24.8288268945
 10
73.9757515758
 20
24.8491813768
 10
74.02034091660001
 20
24.8717926551
 10
74.06374443839999
 20
24.8966042154
 10
74.1058536549
 20
24.9235540413
 10
74.14656331560001
 20
24.9525747708
 10
74.18577166830001
 20
24.9835938664
 10
74.2233807125
 20
25.0165337967
 10
74.2592964448
 20
25.0513122294
 10
74.2934290947
 20
25.0878422365
 10
74.32569334839999
 20
25.126032512
 10
74.3560085619
 20
25.1657876002
 10
74.35712300759999
 20
25.1673305237
  0
LWPOLYLINE
  5
61
100
AcDbEntity
  8
0
  6
ByLayer
 62
    0
370
   -1
100
AcDbPolyline
 90
   39
 70
    0
 43
0
 10
72.759067438
 20
49.8650595941
 10
72.7908952598
 20
49.9036143473
 10
72.8246102454
 20
49.9405301835
 10
72.86012811640001
 20
49.9757148402
 10
72.8973600992
 20
50.0090803715
 10
72.93621313360001
 20
50.0405433806
 10
72.97659010770001
 20
50.0700252256
 10
73.01839010019999
 20
50.0974522166
 10
73.0615086323
 20
50.1227558008
 10
73.1058379282
 20
50.145872736
 10
73.1512671863
 20
50.1667452459
 10
73.1976828607
 20
50.1853211543
 10
73.24496893600001
 20
50.2015540318
 10
73.29300722409999
 20
50.2154032956
 10
73.3416776521
 20
50.2268343339
 10
73.3908585639
 20
50.2358186054
 10
73.4404270445
 20
50.2423335896
 10
73.4902591885
 20
50.2463630618
 10
73.54023044509999
 20
50.2478969164
 10
73.5902159126
 20
50.2469313641
 10
73.64009065090001
 20
50.243468747
 10
73.68972999979999
 20
50.2375177593
 10
73.73900989009999
 20
50.2290932995
 10
73.787807147
 20
50.2182164016
 10
73.83599979900001
 20
50.2049142398
 10
73.8834673894
 20
50.1892200677
 10
73.9300912784
 20
50.1711731253
 10
73.97575493239999
 20
50.1508185217
 10
74.0203442123
 20
50.1282071232
 10
74.06374766570001
 20
50.1033954428
 10
74.10585680680001
 20
50.076445499
 10
74.1465663864
 20
50.0474246555
 10
74.18577465280001
 20
50.0164054508
 10
74.22338360569999
 20
49.9834654162
 10
74.2592992415
 20
49.9486868839
 10
74.2934317902
 20
49.9121567823
 10
74.3256959381
 20
49.8739664174
 10
74.3560110415
 20
49.8342112452
 10
74.357125483
 20
49.8326683187
  0
LWPOLYLINE
  5
62
100
AcDbEntity
  8
0
  6
ByLayer
 62
    0
370
   -1
100
AcDbPolyline
 90
   39
 70
    0
 43
0
 10
-25.1349436763
 20
72.7590648729
 10
-25.096388836
 20
72.79089258899999
 10
-25.0594729057
 20
72.8246074716
 10
-25.0242881508
 20
72.8601252452
 10
-24.9909225166
 20
72.89735713570001
 10
-24.9594593999
 20
72.9362100829
 10
-24.9299774426
 20
72.9765869749
 10
-24.9025503343
 20
73.0183868905
 10
-24.8772466282
 20
73.0615053512
 10
-24.8541295686
 20
73.10583458240001
 10
-24.8332569348
 20
73.15126378399999
 10
-24.8146809009
 20
73.1976794082
 10
-24.7984478969
 20
73.2449654399
 10
-24.784598501
 20
73.2930036896
 10
-24.7731673222
 20
73.3416740845
 10
-24.7641829202
 20
73.39085497249999
 10
-24.7576677746
 20
73.4404234319
 10
-24.7536381841
 20
73.4902555669
 10
-24.7521041867
 20
73.5402268192
 10
-24.7530696116
 20
73.59021228890001
 10
-24.7565320741
 20
73.6400870384
 10
-24.7624829268
 20
73.6897264033
 10
-24.7709072563
 20
73.7390063162
 10
-24.78178402
 20
73.7878036029
 10
-24.7950860455
 20
73.8359962925
 10
-24.8107800804
 20
73.88346392850001
 10
-24.8288268945
 20
73.93008786759999
 10
-24.8491813768
 20
73.9757515758
 10
-24.8717926551
 20
74.02034091660001
 10
-24.8966042154
 20
74.06374443839999
 10
-24.9235540413
 20
74.1058536549
 10
-24.9525747708
 20
74.14656331560001
 10
-24.9835938664
 20
74.18577166830001
 10
-25.0165337967
 20
74.2233807125
 10
-25.0513122294
 20
74.2592964448
 10
-25.0878422365
 20
74.2934290947
 10
-25.126032512
 20
74.32569334839999
 10
-25.1657876002
 20
74.3560085619
 10
-25.1673305237
 20
74.35712300759999
  0
LWPOLYLINE
  5
63
100
AcDbEntity
  8
0
  6
ByLayer
 62
    0
370
   -1
100
AcDbPolyline
 90
   39
 70
    0
 43
0
 10
0.167330521088
 20
74.3571230152
 10
0.127517803059
 20
74.326883526
 10
0.08926618956970001
 20
74.29469201649999
 10
0.052671283406
 20
74.2606289564
 10
0.017824554814
 20
74.2247794832
 10
-0.0151868972151
 20
74.1872332017
 10
-0.0462805606148
 20
74.14808395750001
 10
-0.0753787167657
 20
74.10742960330001
 10
-0.102408635794
 20
74.0653717543
 10
-0.127302759809
 20
74.02201553490001
 10
-0.149998870517
 20
73.9774693147
 10
-0.170440234734
 20
73.9318444331
 10
-0.188575760809
 20
73.88525492860001
 10
-0.204360112032
 20
73.8378172484
 10
-0.217753832406
 20
73.789649962
 10
-0.228723470338
 20
73.74087346909999
 10
-0.237241600357
 20
73.6916096815
 10
-0.243286873024
 20
73.64198172579999
 10
-0.246844255946
 20
73.59211365749999
 10
-0.247904822907
 20
73.5421301164
 10
-0.24646595167
 20
73.4921560339
 10
-0.242531186797
 20
73.44231632260001
 10
-0.236110383971
 20
73.3927355555
 10
-0.227219636893
 20
73.3435376514
 10
-0.215881114667
 20
73.2948455871
 10
-0.202123166045
 20
73.2467810675
 10
-0.185980189436
 20
73.19946422620001
 10
-0.167492540688
 20
73.1530133272
 10
-0.14670641912
 20
73.1075444765
 10
-0.12367377404
 20
73.0631713257
 10
-0.09845217700559999
 20
73.0200047844
 10
-0.0711046722595
 20
72.9781527449
 10
-0.0416996159339
 20
72.9377198143
 10
-0.0103105050364
 20
72.8988070538
 10
0.0229842051109
 20
72.8615117259
 10
0.0581012948586
 20
72.8259270492
 10
0.0949529898236
 20
72.7921419669
 10
0.133447180098
 20
72.7602409242
 10
0.134943683653
 20
72.7590648804
  0
LWPOLYLINE
  5
64
100
AcDbEntity
  8
0
  6
ByLayer
 62
    0
370
   -1
100
AcDbPolyline
 90
   39
 70
    0
 43
0
 10
50.1349436388
 20
72.7590648959
 10
50.0963887986
 20
72.79089261199999
 10
50.0594728684
 20
72.82460749480001
 10
50.0242881136
 20
72.8601252685
 10
49.9909224795
 20
72.8973571591
 10
49.9594593629
 20
72.9362101064
 10
49.9299774057
 20
72.9765869985
 10
49.9025502976
 20
73.01838691410001
 10
49.8772465916
 20
73.06150537489999
 10
49.8541295322
 20
73.10583460629999
 10
49.8332568986
 20
73.15126380789999
 10
49.8146808647
 20
73.1976794321
 10
49.798447861
 20
73.2449654639
 10
49.7845984652
 20
73.2930037137
 10
49.7731672866
 20
73.3416741086
 10
49.7641828848
 20
73.3908549966
 10
49.7576677392
 20
73.44042345610001
 10
49.7536381489
 20
73.49025559099999
 10
49.7521041517
 20
73.5402268433
 10
49.7530695767
 20
73.5902123131
 10
49.7565320394
 20
73.6400870625
 10
49.7624828922
 20
73.6897264274
 10
49.7709072219
 20
73.73900634029999
 10
49.7817839858
 20
73.787803627
 10
49.7950860114
 20
73.8359963165
 10
49.8107800465
 20
73.88346395249999
 10
49.8288268608
 20
73.93008789149999
 10
49.8491813432
 20
73.9757515997
 10
49.8717926216
 20
74.0203409404
 10
49.8966041821
 20
74.0637444621
 10
49.9235540081
 20
74.1058536785
 10
49.9525747378
 20
74.1465633391
 10
49.9835938335
 20
74.1857716917
 10
50.0165337639
 20
74.22338073580001
 10
50.0513121967
 20
74.259296468
 10
50.0878422039
 20
74.2934291178
 10
50.1260324795
 20
74.32569337130001
 10
50.1657875678
 20
74.35600858470001
 10
50.1673304913
 20
74.3571230304
  0
LWPOLYLINE
  5
65
100
AcDbEntity
  8
0
  6
ByLayer
 62
    0
370
   -1
100
AcDbPolyline
 90
   39
 70
    0
 43
0
 10
24.8650563313
 20
72.759064892
 10
24.9036111724
 20
72.79089260720001
 10
24.9405271018
 20
72.82460749080001
 10
24.9757118567
 20
72.8601252645
 10
25.0090774909
 20
72.89735715499999
 10
25.0405406074
 20
72.9362101025
 10
25.0700225641
 20
72.97658699510001
 10
25.0974496706
 20
73.01838691179999
 10
25.1227533741
 20
73.0615053739
 10
25.1458704318
 20
73.1058346059
 10
25.1667430673
 20
73.15126380629999
 10
25.185319104
 20
73.1976794293
 10
25.2015521122
 20
73.2449654598
 10
25.2154015088
 20
73.2930037096
 10
25.2268326816
 20
73.3416741059
 10
25.2358170891
 20
73.3908549929
 10
25.2423322104
 20
73.4404234555
 10
25.2463618203
 20
73.4902555883
 10
25.2478958131
 20
73.5402268408
 10
25.246930399
 20
73.5902123109
 10
25.2434679197
 20
73.64008705880001
 10
25.2375170692
 20
73.6897264241
 10
25.2290927457
 20
73.73900633780001
 10
25.2182159827
 20
73.7878036247
 10
25.2049139541
 20
73.8359963134
 10
25.1892199132
 20
73.8834639473
 10
25.1711730997
 20
73.9300878862
 10
25.1508186224
 20
73.9757515964
 10
25.1282073471
 20
74.0203409388
 10
25.1033957867
 20
74.0637444608
 10
25.0764459593
 20
74.1058536765
 10
25.0474252284
 20
74.14656333630001
 10
25.016406132
 20
74.1857716884
 10
24.9834662015
 20
74.2233807323
 10
24.9486877685
 20
74.25929646429999
 10
24.9121577611
 20
74.29342911400001
 10
24.8739674855
 20
74.32569336749999
 10
24.8342123971
 20
74.35600858079999
 10
24.8326694736
 20
74.35712302650001
  0
ARC
  5
66
100
AcDbEntity
  8
0
  6
ByLayer
 62
    0
370
   -1
100
AcDbCircle
 10
-51.0606543125
 20
76.060666031
 40
2.1
100
AcDbArc
 50
-54.2142996191
 51
90
  0
LINE
  5
67
100
AcDbEntity
  8
0
  6
ByLayer
 62
    0
370
   -1
100
AcDbLine
 10
-51.0606543125
 20
78.16066603100001
 11
-72.26359803770001
 21
78.16066603100001
  0
ARC
  5
68
100
AcDbEntity
  8
0
  6
ByLayer
 62
    0
370
   -1
100
AcDbCircle
 10
-48.9393398282
 20
73.9393398282
 40
1.5
100
AcDbArc
 50
-128.108055677
 51
-90
  0
LINE
  5
69
100
AcDbEntity
  8
0
  6
ByLayer
 62
    0
370
   -1
100
AcDbLine
 10
-72.26359803770001
 20
78.16066603100001
 11
-75.2121320344
 21
75.2121320344
  0
LINE
  5
6A
100
AcDbEntity
  8
0
  6
ByLayer
 62
    0
370
   -1
100
AcDbLine
 10
-48.9393398282
 20
72.4393398282
 11
-26.0606601718
 21
72.4393398282
  0
LINE
  5
6B
100
AcDbEntity
  8
0
  6
ByLayer
 62
    0
370
   -1
100
AcDbLine
 10
-75.2121320344
 20
75.2121320344
 11
-72.439333969
 21
72.439333969
  0
ARC
  5
6C
100
AcDbEntity
  8
0
  6
ByLayer
 62
    0
370
   -1
100
AcDbCircle
 10
-26.0606601718
 20
73.9393398282
 40
1.5
100
AcDbArc
 50
-90
 51
-51.8921030857
  0
LINE
  5
6D
100
AcDbEntity
  8
0
  6
ByLayer
 62
    0
370
   -1
100
AcDbLine
 10
-72.439333969
 20
72.439333969
 11
-72.439333969
 21
71
  0
LINE
  5
6E
100
AcDbEntity
  8
0
  6
ByLayer
 62
    0
370
   -1
100
AcDbLine
 10
-72.439333969
 20
71
 11
-72.4393398481
 21
71
  0
LINE
  5
6F
100
AcDbEntity
  8
0
  6
ByLayer
 62
    0
370
   -1
100
AcDbLine
 10
-72.4393398481
 20
51.0606601381
 11
-72.4393398481
 21
71
  0
ARC
  5
70
100
AcDbEntity
  8
0
  6
ByLayer
 62
    0
370
   -1
100
AcDbCircle
 10
-73.9393398481
 20
51.0606601381
 40
1.5
100
AcDbArc
 50
-38.1078971007
 51
0
  0
ARC
  5
71
100
AcDbEntity
  8
0
  6
ByLayer
 62
    0
370
   -1
100
AcDbCircle
 10
-76.0606601798
 20
48.9393397827
 40
2.1
100
AcDbArc
 50
35.785858956
 51
-180
  0
LINE
  5
72
100
AcDbEntity
  8
0
  6
ByLayer
 62
    0
370
   -1
100
AcDbLine
 10
-78.1606601798
 20
26.0606601769
 11
-78.1606601798
 21
48.9393397827
  0
ARC
  5
73
100
AcDbEntity
  8
0
  6
ByLayer
 62
    0
370
   -1
100
AcDbCircle
 10
-76.0606601798
 20
26.0606601769
 40
2.1
100
AcDbArc
 50
180
 51
-35.7858587736
  0
ARC
  5
74
100
AcDbEntity
  8
0
  6
ByLayer
 62
    0
370
   -1
100
AcDbCircle
 10
-73.9393398414
 20
23.9393398282
 40
1.5
100
AcDbArc
 50
-0
 51
38.1078972832
  0
LINE
  5
75
100
AcDbEntity
  8
0
  6
ByLayer
 62
    0
370
   -1
100
AcDbLine
 10
-72.4393398414
 20
1.06066017178
 11
-72.4393398414
 21
23.9393398282
  0
ARC
  5
76
100
AcDbEntity
  8
0
  6
ByLayer
 62
    0
370
   -1
100
AcDbCircle
 10
-73.9393398414
 20
1.06066017178
 40
1.5
100
AcDbArc
 50
-38.1078965592
 51
0
  0
ARC
  5
77
100
AcDbEntity
  8
0
  6
ByLayer
 62
    0
370
   -1
100
AcDbCircle
 10
-76.060660153
 20
-1.06066020368
 40
2.1
100
AcDbArc
 50
35.7858594976
 51
-180
  0
LINE
  5
78
100
AcDbEntity
  8
0
  6
ByLayer
 62
    0
370
   -1
100
AcDbLine
 10
-78.16066015299999
 20
-23.9393398095
 11
-78.16066015299999
 21
-1.06066020368
  0
ARC
  5
79
100
AcDbEntity
  8
0
  6
ByLayer
 62
    0
370
   -1
100
AcDbCircle
 10
-76.060660153
 20
-23.9393398095
 40
2.1
100
AcDbArc
 50
180
 51
-35.7858591424
  0
ARC
  5
7A
100
AcDbEntity
  8
0
  6
ByLayer
 62
    0
370
   -1
100
AcDbCircle
 10
-73.9393398282
 20
-26.0606601718
 40
1.5
100
AcDbArc
 50
-0
 51
38.1078969143
  0
LINE
  5
7B
100
AcDbEntity
  8
0
  6
ByLayer
 62
    0
370
   -1
100
AcDbLine
 10
-72.4393398282
 20
-48.9393398282
 11
-72.4393398282
 21
-26.0606601718
  0
ARC
  5
7C
100
AcDbEntity
  8
0
  6
ByLayer
 62
    0
370
   -1
100
AcDbCircle
 10
-73.9393398282
 20
-48.9393398282
 40
1.5
100
AcDbArc
 50
-38.1080556772
 51
0
  0
ARC
  5
7D
100
AcDbEntity
  8
0
  6
ByLayer
 62
    0
370
   -1
100
AcDbCircle
 10
-76.060666031
 20
-51.0606543125
 40
2.1
100
AcDbArc
 50
35.7857003809
 51
-180
  0
LINE
  5
7E
100
AcDbEntity
  8
0
  6
ByLayer
 62
    0
370
   -1
100
AcDbLine
 10
-78.16066603100001
 20
-51.0606543125
 11
-78.16066603100001
 21
-72.26359803770001
  0
LINE
  5
7F
100
AcDbEntity
  8
0
  6
ByLayer
 62
    0
370
   -1
100
AcDbLine
 10
-78.16066603100001
 20
-72.26359803770001
 11
-75.2121320344
 21
-75.2121320344
  0
LINE
  5
80
100
AcDbEntity
  8
0
  6
ByLayer
 62
    0
370
   -1
100
AcDbLine
 10
-75.2121320344
 20
-75.2121320344
 11
-72.439333969
 21
-72.439333969
  0
LINE
  5
81
100
AcDbEntity
  8
0
  6
ByLayer
 62
    0
370
   -1
100
AcDbLine
 10
-72.439333969
 20
-72.439333969
 11
-71
 21
-72.439333969
  0
ARC
  5
82
100
AcDbEntity
  8
0
  6
ByLayer
 62
    0
370
   -1
100
AcDbCircle
 10
48.9393398282
 20
-73.9393398282
 40
1.5
100
AcDbArc
 50
51.8919443228
 51
90
  0
LINE
  5
83
100
AcDbEntity
  8
0
  6
ByLayer
 62
    0
370
   -1
100
AcDbLine
 10
48.9393398282
 20
-72.4393398282
 11
26.0606601718
 21
-72.4393398282
  0
ARC
  5
84
100
AcDbEntity
  8
0
  6
ByLayer
 62
    0
370
   -1
100
AcDbCircle
 10
51.0606543125
 20
-76.060666031
 40
2.1
100
AcDbArc
 50
125.785700381
 51
-90
  0
LINE
  5
85
100
AcDbEntity
  8
0
  6
ByLayer
 62
    0
370
   -1
100
AcDbLine
 10
51.0606543125
 20
-78.16066603100001
 11
72.26359803770001
 21
-78.16066603100001
  0
LINE
  5
86
100
AcDbEntity
  8
0
  6
ByLayer
 62
    0
370
   -1
100
AcDbLine
 10
72.26359803770001
 20
-78.16066603100001
 11
75.2121320344
 21
-75.2121320344
  0
LINE
  5
87
100
AcDbEntity
  8
0
  6
ByLayer
 62
    0
370
   -1
100
AcDbLine
 10
75.2121320344
 20
-75.2121320344
 11
72.439333969
 21
-72.439333969
  0
ARC
  5
88
100
AcDbEntity
  8
0
  6
ByLayer
 62
    0
370
   -1
100
AcDbCircle
 10
26.0606601718
 20
-73.9393398282
 40
1.5
100
AcDbArc
 50
90
 51
128.107896914
  0
LINE
  5
89
100
AcDbEntity
  8
0
  6
ByLayer
 62
    0
370
   -1
100
AcDbLine
 10
72.439333969
 20
-72.439333969
 11
72.439333969
 21
-71
  0
ARC
  5
8A
100
AcDbEntity
  8
0
  6
ByLayer
 62
    0
370
   -1
100
AcDbCircle
 10
23.9393398095
 20
-76.060660153
 40
2.1
100
AcDbArc
 50
-90
 51
54.2141408576
  0
LINE
  5
8B
100
AcDbEntity
  8
0
  6
ByLayer
 62
    0
370
   -1
100
AcDbLine
 10
23.9393398095
 20
-78.16066015299999
 11
1.06066020368
 21
-78.16066015299999
  0
ARC
  5
8C
100
AcDbEntity
  8
0
  6
ByLayer
 62
    0
370
   -1
100
AcDbCircle
 10
1.06066020368
 20
-76.060660153
 40
2.1
100
AcDbArc
 50
125.785859498
 51
-90
  0
ARC
  5
8D
100
AcDbEntity
  8
0
  6
ByLayer
 62
    0
370
   -1
100
AcDbCircle
 10
-1.06066017178
 20
-73.9393398414
 40
1.5
100
AcDbArc
 50
51.8921034408
 51
90
  0
LINE
  5
8E
100
AcDbEntity
  8
0
  6
ByLayer
 62
    0
370
   -1
100
AcDbLine
 10
-1.06066017178
 20
-72.4393398414
 11
-23.9393398282
 21
-72.4393398414
  0
ARC
  5
8F
100
AcDbEntity
  8
0
  6
ByLayer
 62
    0
370
   -1
100
AcDbCircle
 10
-23.9393398282
 20
-73.9393398414
 40
1.5
100
AcDbArc
 50
90
 51
128.107897283
  0
ARC
  5
90
100
AcDbEntity
  8
0
  6
ByLayer
 62
    0
370
   -1
100
AcDbCircle
 10
-26.0606601769
 20
-76.0606601798
 40
2.1
100
AcDbArc
 50
-90
 51
54.2141412264
  0
LINE
  5
91
100
AcDbEntity
  8
0
  6
ByLayer
 62
    0
370
   -1
100
AcDbLine
 10
-26.0606601769
 20
-78.1606601798
 11
-48.9393397827
 21
-78.1606601798
  0
LINE
  5
92
100
AcDbEntity
  8
0
  6
ByLayer
 62
    0
370
   -1
100
AcDbLine
 10
-71
 20
-72.439333969
 11
-71
 21
-72.4393398481
  0
LINE
  5
93
100
AcDbEntity
  8
0
  6
ByLayer
 62
    0
370
   -1
100
AcDbLine
 10
-51.0606601381
 20
-72.4393398481
 11
-71
 21
-72.4393398481
  0
ARC
  5
94
100
AcDbEntity
  8
0
  6
ByLayer
 62
    0
370
   -1
100
AcDbCircle
 10
-51.0606601381
 20
-73.9393398481
 40
1.5
100
AcDbArc
 50
51.8921028993
 51
90
  0
ARC
  5
95
100
AcDbEntity
  8
0
  6
ByLayer
 62
    0
370
   -1
100
AcDbCircle
 10
-48.9393397827
 20
-76.0606601798
 40
2.1
100
AcDbArc
 50
125.785858956
 51
-90
  0
LINE
  5
96
100
AcDbEntity
  8
0
  6
ByLayer
 62
    0
370
   -1
100
AcDbLine
 10
72.439333969
 20
-71
 11
72.4393398481
 21
-71
  0
LINE
  5
97
100
AcDbEntity
  8
0
  6
ByLayer
 62
    0
370
   -1
100
AcDbLine
 10
72.4393398481
 20
-51.0606601381
 11
72.4393398481
 21
-71
  0
ARC
  5
98
100
AcDbEntity
  8
0
  6
ByLayer
 62
    0
370
   -1
100
AcDbCircle
 10
73.9393398481
 20
-51.0606601381
 40
1.5
100
AcDbArc
 50
141.892102899
 51
-180
  0
ARC
  5
99
100
AcDbEntity
  8
0
  6
ByLayer
 62
    0
370
   -1
100
AcDbCircle
 10
76.0606601798
 20
-48.9393397827
 40
2.1
100
AcDbArc
 50
-144.214141044
 51
0
  0
LINE
  5
9A
100
AcDbEntity
  8
0
  6
ByLayer
 62
    0
370
   -1
100
AcDbLine
 10
78.1606601798
 20
-26.0606601769
 11
78.1606601798
 21
-48.9393397827
  0
ARC
  5
9B
100
AcDbEntity
  8
0
  6
ByLayer
 62
    0
370
   -1
100
AcDbCircle
 10
76.0606601798
 20
-26.0606601769
 40
2.1
100
AcDbArc
 50
-0
 51
144.214141226
  0
ARC
  5
9C
100
AcDbEntity
  8
0
  6
ByLayer
 62
    0
370
   -1
100
AcDbCircle
 10
73.9393398414
 20
-23.9393398282
 40
1.5
100
AcDbArc
 50
180
 51
-141.892102717
  0
LINE
  5
9D
100
AcDbEntity
  8
0
  6
ByLayer
 62
    0
370
   -1
100
AcDbLine
 10
72.4393398414
 20
-1.06066017178
 11
72.4393398414
 21
-23.9393398282
  0
ARC
  5
9E
100
AcDbEntity
  8
0
  6
ByLayer
 62
    0
370
   -1
100
AcDbCircle
 10
73.9393398414
 20
-1.06066017178
 40
1.5
100
AcDbArc
 50
141.892103441
 51
-180
  0
ARC
  5
9F
100
AcDbEntity
  8
0
  6
ByLayer
 62
    0
370
   -1
100
AcDbCircle
 10
76.060660153
 20
1.06066020368
 40
2.1
100
AcDbArc
 50
-144.214140502
 51
0
  0
LINE
  5
A0
100
AcDbEntity
  8
0
  6
ByLayer
 62
    0
370
   -1
100
AcDbLine
 10
78.16066015299999
 20
23.9393398095
 11
78.16066015299999
 21
1.06066020368
  0
ARC
  5
A1
100
AcDbEntity
  8
0
  6
ByLayer
 62
    0
370
   -1
100
AcDbCircle
 10
76.060660153
 20
23.9393398095
 40
2.1
100
AcDbArc
 50
-0
 51
144.214140858
  0
ARC
  5
A2
100
AcDbEntity
  8
0
  6
ByLayer
 62
    0
370
   -1
100
AcDbCircle
 10
73.9393398282
 20
26.0606601718
 40
1.5
100
AcDbArc
 50
180
 51
-141.892103086
  0
LINE
  5
A3
100
AcDbEntity
  8
0
  6
ByLayer
 62
    0
370
   -1
100
AcDbLine
 10
72.4393398282
 20
48.9393398282
 11
72.4393398282
 21
26.0606601718
  0
ARC
  5
A4
100
AcDbEntity
  8
0
  6
ByLayer
 62
    0
370
   -1
100
AcDbCircle
 10
73.9393398282
 20
48.9393398282
 40
1.5
100
AcDbArc
 50
141.891944323
 51
-180
  0
ARC
  5
A5
100
AcDbEntity
  8
0
  6
ByLayer
 62
    0
370
   -1
100
AcDbCircle
 10
76.060666031
 20
51.0606543125
 40
2.1
100
AcDbArc
 50
-144.214299619
 51
0
  0
LINE
  5
A6
100
AcDbEntity
  8
0
  6
ByLayer
 62
    0
370
   -1
100
AcDbLine
 10
78.16066603100001
 20
51.0606543125
 11
78.16066603100001
 21
72.26359803770001
  0
LINE
  5
A7
100
AcDbEntity
  8
0
  6
ByLayer
 62
    0
370
   -1
100
AcDbLine
 10
78.16066603100001
 20
72.26359803770001
 11
75.2121320344
 21
75.2121320344
  0
LINE
  5
A8
100
AcDbEntity
  8
0
  6
ByLayer
 62
    0
370
   -1
100
AcDbLine
 10
75.2121320344
 20
75.2121320344
 11
72.439333969
 21
72.439333969
  0
LINE
  5
A9
100
AcDbEntity
  8
0
  6
ByLayer
 62
    0
370
   -1
100
AcDbLine
 10
72.439333969
 20
72.439333969
 11
71
 21
72.439333969
  0
LINE
  5
AA
100
AcDbEntity
  8
0
  6
ByLayer
 62
    0
370
   -1
100
AcDbLine
 10
71
 20
72.439333969
 11
71
 21
72.4393398481
  0
ARC
  5
AB
100
AcDbEntity
  8
0
  6
ByLayer
 62
    0
370
   -1
100
AcDbCircle
 10
-23.9393398095
 20
76.060660153
 40
2.1
100
AcDbArc
 50
90
 51
-125.785859142
  0
LINE
  5
AC
100
AcDbEntity
  8
0
  6
ByLayer
 62
    0
370
   -1
100
AcDbLine
 10
-23.9393398095
 20
78.16066015299999
 11
-1.06066020368
 21
78.16066015299999
  0
ARC
  5
AD
100
AcDbEntity
  8
0
  6
ByLayer
 62
    0
370
   -1
100
AcDbCircle
 10
-1.06066020368
 20
76.060660153
 40
2.1
100
AcDbArc
 50
-54.2141405024
 51
90
  0
ARC
  5
AE
100
AcDbEntity
  8
0
  6
ByLayer
 62
    0
370
   -1
100
AcDbCircle
 10
1.06066017178
 20
73.9393398414
 40
1.5
100
AcDbArc
 50
-128.107896559
 51
-90
  0
LINE
  5
AF
100
AcDbEntity
  8
0
  6
ByLayer
 62
    0
370
   -1
100
AcDbLine
 10
51.0606601381
 20
72.4393398481
 11
71
 21
72.4393398481
  0
LINE
  5
B0
100
AcDbEntity
  8
0
  6
ByLayer
 62
    0
370
   -1
100
AcDbLine
 10
1.06066017178
 20
72.4393398414
 11
23.9393398282
 21
72.4393398414
  0
ARC
  5
B1
100
AcDbEntity
  8
0
  6
ByLayer
 62
    0
370
   -1
100
AcDbCircle
 10
51.0606601381
 20
73.9393398481
 40
1.5
100
AcDbArc
 50
-128.107897101
 51
-90
  0
ARC
  5
B2
100
AcDbEntity
  8
0
  6
ByLayer
 62
    0
370
   -1
100
AcDbCircle
 10
23.9393398282
 20
73.9393398414
 40
1.5
100
AcDbArc
 50
-90
 51
-51.8921027168
  0
ARC
  5
B3
100
AcDbEntity
  8
0
  6
ByLayer
 62
    0
370
   -1
100
AcDbCircle
 10
48.9393397827
 20
76.0606601798
 40
2.1
100
AcDbArc
 50
-54.214141044
 51
90
  0
ARC
  5
B4
100
AcDbEntity
  8
0
  6
ByLayer
 62
    0
370
   -1
100
AcDbCircle
 10
26.0606601769
 20
76.0606601798
 40
2.1
100
AcDbArc
 50
90
 51
-125.785858774
  0
LINE
  5
B5
100
AcDbEntity
  8
0
  6
ByLayer
 62
    0
370
   -1
100
AcDbLine
 10
26.0606601769
 20
78.1606601798
 11
48.9393397827
 21
78.1606601798
  0
ENDBLK
  5
4F
330
4D
100
AcDbEntity
  8
0
100
AcDbBlockEnd
  0
ENDSEC
  0
SECTION
  2
ENTITIES
  0
INSERT
  5
B6
100
AcDbEntity
  8
0
  6
ByLayer
 62
    0
370
   -1
100
AcDbBlockReference
  2
FUSION
 10
0
 20
0
 30
0
 41
1
 42
1
 43
0
 50
0
 70
    1
 71
    1
 44
0
 45
0
  0
ENDSEC
  0
SECTION
  2
OBJECTS
  0
DICTIONARY
  5
C
330
0
100
AcDbDictionary
281
    1
  3
ACAD_GROUP
350
D
  0
DICTIONARY
  5
D
330
C
100
AcDbDictionary
281
    1
  0
ENDSEC
  0
EOF
